<svg width="45" height="45" viewBox="0 0 45 45" fill="none" xmlns="http://www.w3.org/2000/svg">
<path d="M0 22.343C0 10.064 9.95413 0.109863 22.2332 0.109863V0.109863C34.5122 0.109863 44.4664 10.064 44.4664 22.343V22.343C44.4664 34.6221 34.5122 44.5762 22.2332 44.5762V44.5762C9.95413 44.5762 0 34.6221 0 22.343V22.343Z" fill="#F4F5F7"/>
<g clip-path="url(#clip0_293_539)">
<path d="M25.9385 21.1078H29.644L27.7912 18.6375L25.9385 21.1078ZM25.9385 23.5782H29.644L27.7912 26.0485L25.9385 23.5782Z" fill="#BBE0FF"/>
<path d="M15.4399 14.9319H19.1454V29.754H15.4399C15.2761 29.754 15.119 29.6889 15.0032 29.5731C14.8873 29.4573 14.8223 29.3002 14.8223 29.1364V15.5495C14.8223 15.3857 14.8873 15.2286 15.0032 15.1128C15.119 14.997 15.2761 14.9319 15.4399 14.9319Z" fill="#01589D"/>
<path d="M20.3809 14.9319H24.0864C24.2502 14.9319 24.4073 14.997 24.5231 15.1128C24.6389 15.2286 24.704 15.3857 24.704 15.5495V29.1364C24.704 29.3002 24.6389 29.4573 24.5231 29.5731C24.4073 29.6889 24.2502 29.754 24.0864 29.754H20.3809V14.9319Z" fill="#FECA1E"/>
</g>
<defs>
<clipPath id="clip0_293_539">
<rect width="14.8221" height="14.8221" fill="white" transform="translate(14.8223 14.9319)"/>
</clipPath>
</defs>
</svg>
