<svg width="45" height="45" viewBox="0 0 45 45" fill="none" xmlns="http://www.w3.org/2000/svg">
<path d="M0.0253906 22.343C0.0253906 10.064 9.97952 0.109863 22.2586 0.109863V0.109863C34.5376 0.109863 44.4917 10.064 44.4917 22.343V22.343C44.4917 34.6221 34.5376 44.5762 22.2586 44.5762V44.5762C9.97952 44.5762 0.0253906 34.6221 0.0253906 22.343V22.343Z" fill="#F4F5F7"/>
<g clip-path="url(#clip0_293_674)">
<path d="M27.8165 29.754H22.2582C22.0944 29.754 21.9373 29.689 21.8215 29.5732C21.7057 29.4573 21.6406 29.3003 21.6406 29.1365V27.9013C21.6406 27.7375 21.7057 27.5804 21.8215 27.4646C21.9373 27.3488 22.0944 27.2837 22.2582 27.2837H27.8165C27.9803 27.2837 28.1374 27.3488 28.2532 27.4646C28.369 27.5804 28.4341 27.7375 28.4341 27.9013V29.1365C28.4341 29.3003 28.369 29.4573 28.2532 29.5732C28.1374 29.689 27.9803 29.754 27.8165 29.754Z" fill="#BBE0FF"/>
<path d="M27.8162 14.9319H16.6996C16.5358 14.9319 16.3787 14.997 16.2629 15.1128C16.1471 15.2286 16.082 15.3857 16.082 15.5495V16.7846C16.082 16.9484 16.1471 17.1055 16.2629 17.2214C16.3787 17.3372 16.5358 17.4022 16.6996 17.4022H27.8162C27.98 17.4022 28.1371 17.3372 28.2529 17.2214C28.3687 17.1055 28.4338 16.9484 28.4338 16.7846V15.5495C28.4338 15.3857 28.3687 15.2286 28.2529 15.1128C28.1371 14.997 27.98 14.9319 27.8162 14.9319Z" fill="#FECA1E"/>
<path d="M27.8162 18.6375H16.6996C16.5358 18.6375 16.3787 18.7025 16.2629 18.8183C16.1471 18.9342 16.082 19.0912 16.082 19.255V25.4309C16.082 25.5947 16.1471 25.7518 16.2629 25.8676C16.3787 25.9834 16.5358 26.0485 16.6996 26.0485H27.8162C27.98 26.0485 28.1371 25.9834 28.2529 25.8676C28.3687 25.7518 28.4338 25.5947 28.4338 25.4309V19.255C28.4338 19.0912 28.3687 18.9342 28.2529 18.8183C28.1371 18.7025 27.98 18.6375 27.8162 18.6375Z" fill="#01589D"/>
</g>
<defs>
<clipPath id="clip0_293_674">
<rect width="14.8221" height="14.8221" fill="white" transform="translate(14.8477 14.9319)"/>
</clipPath>
</defs>
</svg>
