<svg width="46" height="47" viewBox="0 0 46 47" fill="none" xmlns="http://www.w3.org/2000/svg">
<path d="M0 23.7803C0 11.0986 10.2805 0.818115 22.9621 0.818115V0.818115C35.6438 0.818115 45.9243 11.0986 45.9243 23.7803V23.7803C45.9243 36.4619 35.6438 46.7424 22.9621 46.7424V46.7424C10.2805 46.7424 0 36.4619 0 23.7803V23.7803Z" fill="#F4F5F7"/>
<g clip-path="url(#clip0_293_531)">
<path d="M26.7891 22.5045H30.6161L28.7026 19.9531L26.7891 22.5045ZM26.7891 25.0558H30.6161L28.7026 27.6072L26.7891 25.0558Z" fill="#BBE0FF"/>
<path d="M15.9455 16.1262H19.7725V31.4343H15.9455C15.7763 31.4343 15.6141 31.3671 15.4944 31.2475C15.3748 31.1279 15.3076 30.9656 15.3076 30.7965V16.7641C15.3076 16.5949 15.3748 16.4327 15.4944 16.313C15.6141 16.1934 15.7763 16.1262 15.9455 16.1262Z" fill="#01589D"/>
<path d="M21.0488 16.1262H24.8759C25.045 16.1262 25.2073 16.1934 25.3269 16.313C25.4465 16.4327 25.5137 16.5949 25.5137 16.7641V30.7965C25.5137 30.9656 25.4465 31.1279 25.3269 31.2475C25.2073 31.3671 25.045 31.4343 24.8759 31.4343H21.0488V16.1262Z" fill="#9CD3FF"/>
</g>
<defs>
<clipPath id="clip0_293_531">
<rect width="15.3081" height="15.3081" fill="white" transform="translate(15.3076 16.1262)"/>
</clipPath>
</defs>
</svg>
