<svg width="47" height="47" viewBox="0 0 47 47" fill="none" xmlns="http://www.w3.org/2000/svg">
<path d="M0.567383 23.7803C0.567383 11.0986 10.8479 0.818115 23.5295 0.818115V0.818115C36.2112 0.818115 46.4917 11.0986 46.4917 23.7803V23.7803C46.4917 36.4619 36.2112 46.7424 23.5295 46.7424V46.7424C10.8479 46.7424 0.567383 36.4619 0.567383 23.7803V23.7803Z" fill="#F4F5F7"/>
<g clip-path="url(#clip0_293_563)">
<path d="M29.27 31.4344H23.5294C23.3603 31.4344 23.198 31.3672 23.0784 31.2476C22.9588 31.128 22.8916 30.9657 22.8916 30.7966V29.5209C22.8916 29.3517 22.9588 29.1895 23.0784 29.0699C23.198 28.9503 23.3603 28.8831 23.5294 28.8831H29.27C29.4391 28.8831 29.6014 28.9503 29.721 29.0699C29.8406 29.1895 29.9078 29.3517 29.9078 29.5209V30.7966C29.9078 30.9657 29.8406 31.128 29.721 31.2476C29.6014 31.3672 29.4391 31.4344 29.27 31.4344Z" fill="#BBE0FF"/>
<path d="M29.2703 16.1262H17.7892C17.62 16.1262 17.4578 16.1934 17.3382 16.313C17.2186 16.4327 17.1514 16.5949 17.1514 16.7641V18.0397C17.1514 18.2089 17.2186 18.3711 17.3382 18.4908C17.4578 18.6104 17.62 18.6776 17.7892 18.6776H29.2703C29.4394 18.6776 29.6017 18.6104 29.7213 18.4908C29.8409 18.3711 29.9081 18.2089 29.9081 18.0397V16.7641C29.9081 16.5949 29.8409 16.4327 29.7213 16.313C29.6017 16.1934 29.4394 16.1262 29.2703 16.1262Z" fill="#9CD3FF"/>
<path d="M29.2703 19.9531H17.7892C17.62 19.9531 17.4578 20.0203 17.3382 20.1399C17.2186 20.2596 17.1514 20.4218 17.1514 20.591V26.9693C17.1514 27.1385 17.2186 27.3007 17.3382 27.4204C17.4578 27.54 17.62 27.6072 17.7892 27.6072H29.2703C29.4394 27.6072 29.6017 27.54 29.7213 27.4204C29.8409 27.3007 29.9081 27.1385 29.9081 26.9693V20.591C29.9081 20.4218 29.8409 20.2596 29.7213 20.1399C29.6017 20.0203 29.4394 19.9531 29.2703 19.9531Z" fill="#01589D"/>
</g>
<defs>
<clipPath id="clip0_293_563">
<rect width="15.3081" height="15.3081" fill="white" transform="translate(15.875 16.1262)"/>
</clipPath>
</defs>
</svg>
