<svg width="26" height="26" viewBox="0 0 26 26" fill="none" xmlns="http://www.w3.org/2000/svg">
<path d="M12.6153 26C19.5825 26 25.2305 20.1797 25.2305 13C25.2305 5.8203 19.5825 0 12.6153 0C5.64804 0 0 5.8203 0 13C0 20.1797 5.64804 26 12.6153 26Z" fill="#F0F0F0"/>
<path d="M2.60874 5.08594C1.61782 6.41453 0.870619 7.94584 0.435547 9.60938H6.99825L2.60874 5.08594Z" fill="#0052B4"/>
<path d="M24.796 9.60933C24.3609 7.94583 23.6137 6.41453 22.6228 5.08594L18.2334 9.60933H24.796Z" fill="#0052B4"/>
<path d="M0.435547 16.3916C0.870661 18.0551 1.61784 19.5864 2.6087 20.9149L6.99798 16.3916H0.435547Z" fill="#0052B4"/>
<path d="M20.2967 2.6878C19.0075 1.66664 17.5215 0.896641 15.9072 0.448242V7.21114L20.2967 2.6878Z" fill="#0052B4"/>
<path d="M4.93555 23.3128C6.22485 24.334 7.71089 25.104 9.32519 25.5524V18.7896L4.93555 23.3128Z" fill="#0052B4"/>
<path d="M9.32493 0.448242C7.7107 0.896641 6.22474 1.66664 4.93555 2.68775L9.32493 7.21108V0.448242Z" fill="#0052B4"/>
<path d="M15.9072 25.5524C17.5215 25.104 19.0074 24.334 20.2966 23.3129L15.9072 18.7896V25.5524Z" fill="#0052B4"/>
<path d="M18.2334 16.3916L22.6228 20.915C23.6137 19.5864 24.3609 18.0551 24.796 16.3916H18.2334Z" fill="#0052B4"/>
<path d="M25.1237 11.3044H14.2608L14.2608 0.110043C13.7221 0.0377813 13.1729 0 12.6153 0C12.0575 0 11.5084 0.0377813 10.9698 0.110043V11.3043L0.106786 11.3043C0.0366631 11.8594 0 12.4253 0 13C0 13.5748 0.0366631 14.1406 0.106786 14.6956H10.9697L10.9698 25.89C11.5084 25.9622 12.0575 26 12.6153 26C13.1729 26 13.7221 25.9623 14.2607 25.89V14.6957L25.1237 14.6957C25.1938 14.1406 25.2305 13.5748 25.2305 13C25.2305 12.4253 25.1938 11.8594 25.1237 11.3044Z" fill="#D80027"/>
<path d="M15.9062 16.3912L21.5357 22.1922C21.7946 21.9255 22.0416 21.6467 22.2772 21.3576L17.4576 16.3911H15.9062V16.3912Z" fill="#D80027"/>
<path d="M9.32371 16.3911H9.32361L3.69434 22.1921C3.95314 22.4589 4.22373 22.7134 4.50422 22.9563L9.32371 17.9897V16.3911Z" fill="#D80027"/>
<path d="M9.32494 9.60882V9.60872L3.69563 3.80762C3.43673 4.07432 3.18975 4.35316 2.9541 4.64221L7.77362 9.60877H9.32494V9.60882Z" fill="#D80027"/>
<path d="M15.9062 9.60871L21.5356 3.80756C21.2768 3.54076 21.0062 3.28624 20.7257 3.04346L15.9062 8.01002V9.60871Z" fill="#D80027"/>
</svg>
