<svg width="309" height="82" viewBox="0 0 309 82" fill="none" xmlns="http://www.w3.org/2000/svg">
<g clip-path="url(#clip0_244_1058)">
<path d="M103.267 47.9711C101.769 47.9711 100.515 47.7147 99.5029 47.2018C98.4909 46.6888 97.6245 45.9749 96.9037 45.06L99.1494 42.5232C99.8425 43.4381 100.543 44.055 101.25 44.3738C101.97 44.6927 102.691 44.8521 103.412 44.8521C103.953 44.8521 104.396 44.755 104.743 44.561C105.089 44.3669 105.263 44.0758 105.263 43.6876C105.263 43.3549 105.117 43.0777 104.826 42.8559C104.549 42.6341 104.195 42.4608 103.766 42.336C103.336 42.1974 102.899 42.0796 102.456 41.9826C100.848 41.636 99.6485 41.0884 98.8583 40.3399C98.0681 39.5913 97.6731 38.6001 97.6731 37.3664C97.6731 36.4653 97.9295 35.6821 98.4424 35.0167C98.9692 34.3374 99.6554 33.8107 100.501 33.4364C101.347 33.0482 102.255 32.8542 103.225 32.8542C104.694 32.8542 105.859 33.0829 106.718 33.5403C107.578 33.9839 108.271 34.5939 108.798 35.3702L106.531 37.5535C106.088 37.0406 105.595 36.6594 105.055 36.4099C104.514 36.1465 103.953 36.0148 103.371 36.0148C102.788 36.0148 102.324 36.1118 101.977 36.3059C101.631 36.5 101.458 36.7841 101.458 37.1584C101.458 37.4495 101.575 37.6921 101.811 37.8862C102.061 38.0803 102.372 38.2397 102.747 38.3645C103.121 38.4754 103.509 38.5724 103.911 38.6556C104.923 38.8496 105.81 39.1338 106.573 39.5081C107.349 39.8824 107.952 40.3745 108.382 40.9845C108.812 41.5805 109.026 42.3222 109.026 43.2094C109.026 44.2352 108.777 45.1016 108.278 45.8086C107.779 46.5156 107.093 47.0562 106.219 47.4305C105.36 47.7909 104.376 47.9711 103.267 47.9711ZM111.246 47.7632V36.701H114.573L114.657 38.0734C115.558 37.0198 116.604 36.493 117.796 36.493C118.517 36.493 119.127 36.6386 119.626 36.9297C120.139 37.2208 120.59 37.7337 120.978 38.4684C121.463 37.7892 122.031 37.2901 122.683 36.9713C123.348 36.6525 124.041 36.493 124.762 36.493C126.024 36.493 126.987 36.8812 127.653 37.6575C128.318 38.4199 128.651 39.5358 128.651 41.0053V47.7632H125.116V41.2756C125.116 40.0557 124.596 39.4457 123.556 39.4457C123.016 39.4457 122.572 39.6121 122.225 39.9448C121.879 40.2775 121.706 40.6864 121.706 41.1716V47.7632H118.171V41.2756C118.171 40.6795 118.032 40.229 117.755 39.924C117.491 39.6052 117.117 39.4457 116.632 39.4457C116.091 39.4457 115.648 39.6121 115.301 39.9448C114.955 40.2636 114.781 40.6726 114.781 41.1716V47.7632H111.246ZM135.445 47.9503C134.53 47.9503 133.705 47.7077 132.971 47.2225C132.25 46.7235 131.674 46.0442 131.245 45.1848C130.829 44.3114 130.621 43.3203 130.621 42.2113C130.621 41.0884 130.829 40.0973 131.245 39.2378C131.674 38.3783 132.257 37.706 132.991 37.2208C133.74 36.7218 134.592 36.4722 135.549 36.4722C136.27 36.4722 136.901 36.6109 137.441 36.8881C137.982 37.1654 138.432 37.5258 138.793 37.9694V36.701H142.265V47.7632H138.71V46.4948C138.335 46.9245 137.871 47.278 137.316 47.5552C136.762 47.8186 136.138 47.9503 135.445 47.9503ZM136.443 45.0184C137.178 45.0184 137.753 44.7689 138.169 44.2699C138.599 43.7569 138.814 43.0708 138.814 42.2113C138.814 41.3657 138.599 40.6934 138.169 40.1943C137.753 39.6814 137.178 39.4249 136.443 39.4249C135.722 39.4249 135.147 39.6814 134.717 40.1943C134.301 40.6934 134.093 41.3657 134.093 42.2113C134.093 43.0708 134.301 43.7569 134.717 44.2699C135.147 44.7689 135.722 45.0184 136.443 45.0184ZM145.219 47.7632V36.701H148.546L148.609 38.3437C148.983 37.7892 149.454 37.3386 150.023 36.9921C150.605 36.6455 151.222 36.4722 151.873 36.4722C152.109 36.4722 152.338 36.493 152.559 36.5346C152.781 36.5762 152.982 36.6247 153.162 36.6802L152.206 40.5686C152.053 40.4854 151.846 40.4092 151.582 40.3399C151.319 40.2567 151.035 40.2151 150.73 40.2151C150.147 40.2151 149.669 40.4092 149.295 40.7973C148.934 41.1855 148.754 41.6914 148.754 42.3153V47.7632H145.219ZM156.082 47.7632V39.7576H154.169V36.701H156.082V33.9146H159.617V36.701H161.676V39.7576H159.617V47.7632H156.082ZM166.923 47.7632V34.8088H162.744V33.2076H172.87V34.8088H168.566V47.7632H166.923ZM177.742 47.9711C176.647 47.9711 175.676 47.7355 174.831 47.2641C173.999 46.7928 173.347 46.1343 172.876 45.2887C172.405 44.4431 172.169 43.4728 172.169 42.3776C172.169 41.2686 172.398 40.2844 172.855 39.4249C173.313 38.5655 173.95 37.8931 174.768 37.408C175.586 36.9089 176.522 36.6594 177.575 36.6594C178.546 36.6594 179.398 36.8881 180.133 37.3456C180.882 37.7892 181.457 38.4061 181.859 39.1962C182.261 39.9725 182.448 40.8736 182.42 41.8994L182.399 42.6272H173.791C173.86 43.8055 174.262 44.7412 174.997 45.4343C175.732 46.1274 176.709 46.474 177.929 46.474C178.456 46.474 178.969 46.3908 179.468 46.2245C179.98 46.0442 180.542 45.6977 181.152 45.1848L181.963 46.3284C181.478 46.7997 180.861 47.1948 180.112 47.5137C179.364 47.8186 178.573 47.9711 177.742 47.9711ZM177.555 38.1565C176.556 38.1565 175.732 38.4268 175.08 38.9675C174.429 39.4943 174.02 40.2705 173.853 41.2964H180.819V41.1716C180.791 40.6726 180.646 40.1943 180.382 39.7368C180.119 39.2655 179.745 38.8843 179.26 38.5932C178.788 38.3021 178.22 38.1565 177.555 38.1565ZM188.897 47.9711C187.954 47.9711 187.102 47.7285 186.339 47.2433C185.577 46.7443 184.974 46.072 184.53 45.2264C184.087 44.3669 183.865 43.3965 183.865 42.3153C183.865 41.2201 184.094 40.2498 184.551 39.4041C185.009 38.5447 185.625 37.8723 186.402 37.3872C187.178 36.902 188.044 36.6594 189.001 36.6594C189.874 36.6594 190.651 36.8604 191.33 37.2624C192.023 37.6644 192.55 38.1843 192.91 38.8219L192.952 36.8881H194.532V47.7632H192.931V45.8294C192.543 46.4393 191.988 46.9522 191.267 47.3681C190.547 47.7701 189.756 47.9711 188.897 47.9711ZM189.25 46.4532C189.971 46.4532 190.616 46.2799 191.184 45.9333C191.753 45.5729 192.196 45.0808 192.515 44.457C192.848 43.8332 193.014 43.1123 193.014 42.2945C193.014 41.5043 192.848 40.7973 192.515 40.1735C192.196 39.5497 191.753 39.0645 191.184 38.718C190.616 38.3575 189.971 38.1773 189.25 38.1773C188.516 38.1773 187.864 38.3575 187.296 38.718C186.741 39.0645 186.305 39.5497 185.986 40.1735C185.667 40.7973 185.508 41.5043 185.508 42.2945C185.508 43.0985 185.667 43.8193 185.986 44.457C186.305 45.0808 186.741 45.5729 187.296 45.9333C187.864 46.2799 188.516 46.4532 189.25 46.4532ZM202.124 47.9711C201.098 47.9711 200.183 47.7285 199.379 47.2433C198.575 46.7443 197.938 46.072 197.466 45.2264C197.009 44.3669 196.78 43.3965 196.78 42.3153C196.78 41.234 197.009 40.2705 197.466 39.4249C197.938 38.5655 198.575 37.8931 199.379 37.408C200.197 36.9089 201.126 36.6594 202.166 36.6594C203.081 36.6594 203.919 36.8465 204.682 37.2208C205.444 37.5951 206.054 38.108 206.512 38.7595L205.597 39.8824C205.195 39.3695 204.689 38.9536 204.079 38.6348C203.469 38.3159 202.852 38.1565 202.228 38.1565C201.48 38.1565 200.814 38.3367 200.232 38.6972C199.65 39.0576 199.192 39.5497 198.86 40.1735C198.527 40.7973 198.361 41.5112 198.361 42.3153C198.361 43.1054 198.527 43.8193 198.86 44.457C199.206 45.0808 199.671 45.5729 200.253 45.9333C200.835 46.2938 201.486 46.474 202.207 46.474C203.483 46.474 204.599 45.9056 205.555 44.7689L206.491 45.9126C206.006 46.5364 205.368 47.0354 204.578 47.4097C203.802 47.784 202.984 47.9711 202.124 47.9711ZM208.515 47.7632V32.3759H210.095V38.8219C210.456 38.1843 210.982 37.6644 211.676 37.2624C212.369 36.8604 213.083 36.6594 213.817 36.6594C215.065 36.6594 215.994 37.0337 216.604 37.7822C217.227 38.517 217.539 39.6398 217.539 41.1508V47.7632H215.938V41.2548C215.938 39.1477 215.079 38.108 213.36 38.1357C212.736 38.1357 212.175 38.2744 211.676 38.5516C211.19 38.8289 210.802 39.1962 210.511 39.6537C210.234 40.1111 210.095 40.6102 210.095 41.1508V47.7632H208.515ZM225.319 47.9711C224.224 47.9711 223.254 47.7355 222.408 47.2641C221.576 46.7928 220.925 46.1343 220.454 45.2887C219.982 44.4431 219.747 43.4728 219.747 42.3776C219.747 41.2686 219.975 40.2844 220.433 39.4249C220.89 38.5655 221.528 37.8931 222.346 37.408C223.164 36.9089 224.099 36.6594 225.153 36.6594C226.123 36.6594 226.976 36.8881 227.711 37.3456C228.459 37.7892 229.034 38.4061 229.436 39.1962C229.838 39.9725 230.026 40.8736 229.998 41.8994L229.977 42.6272H221.368C221.438 43.8055 221.84 44.7412 222.575 45.4343C223.309 46.1274 224.287 46.474 225.506 46.474C226.033 46.474 226.546 46.3908 227.045 46.2245C227.558 46.0442 228.119 45.6977 228.729 45.1848L229.54 46.3284C229.055 46.7997 228.438 47.1948 227.69 47.5137C226.941 47.8186 226.151 47.9711 225.319 47.9711ZM225.132 38.1565C224.134 38.1565 223.309 38.4268 222.658 38.9675C222.006 39.4943 221.597 40.2705 221.431 41.2964H228.397V41.1716C228.369 40.6726 228.223 40.1943 227.96 39.7368C227.697 39.2655 227.322 38.8843 226.837 38.5932C226.366 38.3021 225.798 38.1565 225.132 38.1565ZM232.233 47.7632V36.8881H233.813L233.834 38.9883C234.125 38.3367 234.568 37.7892 235.165 37.3456C235.761 36.8881 236.44 36.6594 237.202 36.6594C237.438 36.6594 237.66 36.6802 237.868 36.7218C238.076 36.7634 238.249 36.8049 238.388 36.8465L237.951 38.614C237.59 38.4615 237.23 38.3853 236.87 38.3853C236.246 38.3853 235.705 38.5377 235.248 38.8427C234.79 39.1338 234.437 39.522 234.187 40.0072C233.952 40.4923 233.834 41.026 233.834 41.6083V47.7632H232.233Z" fill="white"/>
<g clip-path="url(#clip1_244_1058)">
<path d="M246.345 28.8179H251.106V30.1963H249.508V34.3965H247.942V30.1963H246.345V28.8179ZM251.798 28.8179H253.859L254.654 32.211L255.446 28.8179H257.5V34.3955H256.22V30.1424L255.228 34.3955H254.07L253.081 30.1424V34.3955H251.798V28.8179Z" fill="white"/>
</g>
<path d="M97.4596 62.832V61.9954H98.7201V55.86H97.4596V55.0234H100.862V55.86H99.6014V61.9954H100.862V62.832H97.4596ZM102.461 62.832V56.9978H103.297L103.32 57.9907C103.498 57.6783 103.773 57.4143 104.145 57.1986C104.524 56.983 104.922 56.8751 105.339 56.8751C105.986 56.8751 106.473 57.0759 106.8 57.4775C107.135 57.8717 107.302 58.4741 107.302 59.2847V62.832H106.443V59.3404C106.443 58.2026 105.986 57.6448 105.071 57.6672C104.729 57.6672 104.424 57.7415 104.156 57.8903C103.896 58.039 103.688 58.2361 103.532 58.4815C103.383 58.7269 103.308 58.9946 103.308 59.2847V62.832H102.461ZM109.702 62.832V57.8122H108.397V56.9978H109.702V55.4807H110.55V56.9978H112.011V57.8122H110.55V62.832H109.702ZM115.572 62.9436C114.984 62.9436 114.464 62.8172 114.01 62.5643C113.564 62.3115 113.214 61.9582 112.961 61.5046C112.709 61.0509 112.582 60.5303 112.582 59.9428C112.582 59.3479 112.705 58.8199 112.95 58.3588C113.196 57.8977 113.538 57.537 113.977 57.2767C114.415 57.009 114.917 56.8751 115.483 56.8751C116.003 56.8751 116.46 56.9978 116.855 57.2433C117.256 57.4812 117.565 57.8122 117.78 58.2361C117.996 58.6525 118.097 59.1359 118.082 59.6863L118.071 60.0767H113.452C113.489 60.7088 113.705 61.2108 114.099 61.5826C114.493 61.9545 115.018 62.1404 115.672 62.1404C115.955 62.1404 116.23 62.0958 116.498 62.0065C116.773 61.9099 117.074 61.7239 117.401 61.4488L117.836 62.0623C117.576 62.3152 117.245 62.5271 116.843 62.6982C116.442 62.8618 116.018 62.9436 115.572 62.9436ZM115.471 57.6783C114.936 57.6783 114.493 57.8233 114.144 58.1134C113.794 58.396 113.575 58.8124 113.486 59.3628H117.223V59.2958C117.208 59.0281 117.13 58.7715 116.988 58.5261C116.847 58.2733 116.646 58.0687 116.386 57.9126C116.133 57.7564 115.828 57.6783 115.471 57.6783ZM121.736 65.3977C121.305 65.3977 120.896 65.3308 120.509 65.1969C120.13 65.0631 119.81 64.8957 119.55 64.695L119.895 63.981C120.119 64.1595 120.39 64.3082 120.71 64.4272C121.037 64.5462 121.387 64.6057 121.758 64.6057C122.391 64.6057 122.885 64.4272 123.242 64.0703C123.599 63.7207 123.777 63.2002 123.777 62.5085V61.7388C123.599 62.0735 123.313 62.3598 122.919 62.5978C122.532 62.8283 122.108 62.9436 121.647 62.9436C121.104 62.9436 120.617 62.8134 120.185 62.5532C119.762 62.2929 119.427 61.9359 119.182 61.4822C118.936 61.0212 118.813 60.4969 118.813 59.9094C118.813 59.3293 118.936 58.8124 119.182 58.3588C119.434 57.8977 119.773 57.537 120.197 57.2767C120.628 57.009 121.108 56.8751 121.636 56.8751C122.082 56.8751 122.495 56.983 122.874 57.1986C123.261 57.4143 123.554 57.6746 123.755 57.9795L123.777 56.9978H124.625V62.4751C124.625 63.4047 124.361 64.1223 123.833 64.628C123.305 65.1412 122.606 65.3977 121.736 65.3977ZM121.747 62.1293C122.141 62.1293 122.491 62.0363 122.796 61.8504C123.108 61.657 123.354 61.393 123.532 61.0583C123.711 60.7237 123.8 60.3407 123.8 59.9094C123.8 59.478 123.711 59.095 123.532 58.7604C123.354 58.4257 123.108 58.1617 122.796 57.9683C122.491 57.775 122.141 57.6783 121.747 57.6783C121.346 57.6783 120.989 57.775 120.676 57.9683C120.371 58.1617 120.13 58.4257 119.951 58.7604C119.78 59.095 119.695 59.478 119.695 59.9094C119.695 60.3333 119.78 60.7163 119.951 61.0583C120.13 61.393 120.371 61.657 120.676 61.8504C120.989 62.0363 121.346 62.1293 121.747 62.1293ZM126.253 62.832V56.9978H127.1L127.112 58.1245C127.268 57.775 127.506 57.4812 127.826 57.2433C128.145 56.9978 128.51 56.8751 128.919 56.8751C129.045 56.8751 129.164 56.8863 129.276 56.9086C129.387 56.9309 129.48 56.9532 129.555 56.9755L129.32 57.9237C129.127 57.8419 128.934 57.801 128.74 57.801C128.406 57.801 128.116 57.8828 127.87 58.0464C127.625 58.2026 127.435 58.4108 127.301 58.6711C127.175 58.9314 127.112 59.2177 127.112 59.5301V62.832H126.253ZM132.45 62.9436C131.944 62.9436 131.487 62.8134 131.078 62.5532C130.669 62.2854 130.345 61.9247 130.107 61.4711C129.869 61.01 129.75 60.4894 129.75 59.9094C129.75 59.3219 129.873 58.8013 130.119 58.3476C130.364 57.8865 130.695 57.5259 131.111 57.2656C131.528 57.0053 131.993 56.8751 132.506 56.8751C132.974 56.8751 133.391 56.983 133.755 57.1986C134.127 57.4143 134.41 57.6932 134.603 58.0353L134.625 56.9978H135.473V62.832H134.614V61.7946C134.406 62.1218 134.108 62.397 133.722 62.6201C133.335 62.8357 132.911 62.9436 132.45 62.9436ZM132.64 62.1293C133.026 62.1293 133.372 62.0363 133.677 61.8504C133.982 61.657 134.22 61.393 134.391 61.0583C134.57 60.7237 134.659 60.337 134.659 59.8982C134.659 59.4743 134.57 59.095 134.391 58.7604C134.22 58.4257 133.982 58.1654 133.677 57.9795C133.372 57.7861 133.026 57.6895 132.64 57.6895C132.246 57.6895 131.896 57.7861 131.591 57.9795C131.294 58.1654 131.059 58.4257 130.888 58.7604C130.717 59.095 130.632 59.4743 130.632 59.8982C130.632 60.3295 130.717 60.7163 130.888 61.0583C131.059 61.393 131.294 61.657 131.591 61.8504C131.896 62.0363 132.246 62.1293 132.64 62.1293ZM137.895 62.832V57.8122H136.59V56.9978H137.895V55.4807H138.743V56.9978H140.204V57.8122H138.743V62.832H137.895ZM143.765 62.9436C143.177 62.9436 142.657 62.8172 142.203 62.5643C141.757 62.3115 141.407 61.9582 141.155 61.5046C140.902 61.0509 140.775 60.5303 140.775 59.9428C140.775 59.3479 140.898 58.8199 141.143 58.3588C141.389 57.8977 141.731 57.537 142.17 57.2767C142.608 57.009 143.11 56.8751 143.676 56.8751C144.196 56.8751 144.654 56.9978 145.048 57.2433C145.449 57.4812 145.758 57.8122 145.974 58.2361C146.189 58.6525 146.29 59.1359 146.275 59.6863L146.264 60.0767H141.645C141.683 60.7088 141.898 61.2108 142.292 61.5826C142.687 61.9545 143.211 62.1404 143.865 62.1404C144.148 62.1404 144.423 62.0958 144.691 62.0065C144.966 61.9099 145.267 61.7239 145.594 61.4488L146.029 62.0623C145.769 62.3152 145.438 62.5271 145.037 62.6982C144.635 62.8618 144.211 62.9436 143.765 62.9436ZM143.664 57.6783C143.129 57.6783 142.687 57.8233 142.337 58.1134C141.987 58.396 141.768 58.8124 141.679 59.3628H145.416V59.2958C145.401 59.0281 145.323 58.7715 145.182 58.5261C145.04 58.2733 144.839 58.0687 144.579 57.9126C144.326 57.7564 144.021 57.6783 143.664 57.6783ZM149.85 62.9436C149.314 62.9436 148.835 62.8134 148.411 62.5532C147.994 62.2929 147.663 61.9359 147.418 61.4822C147.18 61.0212 147.061 60.4969 147.061 59.9094C147.061 59.3293 147.184 58.8124 147.429 58.3588C147.675 57.8977 148.005 57.537 148.422 57.2767C148.838 57.009 149.307 56.8751 149.827 56.8751C150.274 56.8751 150.683 56.9793 151.055 57.1875C151.434 57.3883 151.728 57.6374 151.936 57.9349V54.5772H152.784V62.832H151.947L151.925 61.8504C151.739 62.1553 151.456 62.4156 151.077 62.6312C150.698 62.8395 150.289 62.9436 149.85 62.9436ZM149.961 62.1627C150.348 62.1627 150.694 62.066 150.999 61.8727C151.304 61.6793 151.542 61.4153 151.713 61.0807C151.891 60.7386 151.98 60.3481 151.98 59.9094C151.98 59.4706 151.891 59.0839 151.713 58.7492C151.542 58.4071 151.304 58.1394 150.999 57.946C150.694 57.7527 150.348 57.656 149.961 57.656C149.567 57.656 149.218 57.7527 148.913 57.946C148.608 58.1394 148.37 58.4071 148.199 58.7492C148.028 59.0839 147.942 59.4706 147.942 59.9094C147.942 60.3407 148.028 60.7274 148.199 61.0695C148.37 61.4116 148.608 61.6793 148.913 61.8727C149.218 62.066 149.567 62.1627 149.961 62.1627ZM157.874 62.832V55.0234H162.604V55.8823H158.756V58.3811H161.979V59.24H158.756V61.9731H162.582V62.832H157.874ZM166.55 62.9436C166.015 62.9436 165.535 62.8134 165.111 62.5532C164.694 62.2929 164.364 61.9359 164.118 61.4822C163.88 61.0212 163.761 60.4969 163.761 59.9094C163.761 59.3293 163.884 58.8124 164.129 58.3588C164.375 57.8977 164.706 57.537 165.122 57.2767C165.539 57.009 166.007 56.8751 166.528 56.8751C166.974 56.8751 167.383 56.9793 167.755 57.1875C168.134 57.3883 168.428 57.6374 168.636 57.9349V54.5772H169.484V62.832H168.647L168.625 61.8504C168.439 62.1553 168.156 62.4156 167.777 62.6312C167.398 62.8395 166.989 62.9436 166.55 62.9436ZM166.662 62.1627C167.048 62.1627 167.394 62.066 167.699 61.8727C168.004 61.6793 168.242 61.4153 168.413 61.0807C168.591 60.7386 168.681 60.3481 168.681 59.9094C168.681 59.4706 168.591 59.0839 168.413 58.7492C168.242 58.4071 168.004 58.1394 167.699 57.946C167.394 57.7527 167.048 57.656 166.662 57.656C166.267 57.656 165.918 57.7527 165.613 57.946C165.308 58.1394 165.07 58.4071 164.899 58.7492C164.728 59.0839 164.642 59.4706 164.642 59.9094C164.642 60.3407 164.728 60.7274 164.899 61.0695C165.07 61.4116 165.308 61.6793 165.613 61.8727C165.918 62.066 166.267 62.1627 166.662 62.1627ZM173.351 62.9436C172.682 62.9436 172.169 62.7428 171.812 62.3412C171.455 61.9322 171.276 61.3409 171.276 60.5675V56.9978H172.135V60.4002C172.135 61.5826 172.622 62.1739 173.597 62.1739C173.916 62.1739 174.206 62.1032 174.467 61.9619C174.727 61.8132 174.932 61.6161 175.08 61.3707C175.236 61.1178 175.315 60.839 175.315 60.5341V56.9978H176.162V62.832H175.326L175.292 61.8281C175.114 62.1478 174.846 62.4156 174.489 62.6312C174.132 62.8395 173.753 62.9436 173.351 62.9436ZM180.245 62.9436C179.695 62.9436 179.204 62.8134 178.773 62.5532C178.341 62.2854 177.999 61.9247 177.747 61.4711C177.501 61.01 177.378 60.4894 177.378 59.9094C177.378 59.3293 177.501 58.8124 177.747 58.3588C177.999 57.8977 178.341 57.537 178.773 57.2767C179.212 57.009 179.71 56.8751 180.268 56.8751C180.758 56.8751 181.208 56.9755 181.617 57.1763C182.026 57.3771 182.354 57.6523 182.599 58.0018L182.108 58.6042C181.893 58.329 181.621 58.1059 181.294 57.9349C180.967 57.7638 180.636 57.6783 180.301 57.6783C179.899 57.6783 179.543 57.775 179.23 57.9683C178.918 58.1617 178.672 58.4257 178.494 58.7604C178.315 59.095 178.226 59.478 178.226 59.9094C178.226 60.3333 178.315 60.7163 178.494 61.0583C178.68 61.393 178.929 61.657 179.241 61.8504C179.554 62.0437 179.903 62.1404 180.29 62.1404C180.974 62.1404 181.573 61.8355 182.086 61.2257L182.588 61.8392C182.328 62.1739 181.985 62.4416 181.562 62.6424C181.145 62.8432 180.706 62.9436 180.245 62.9436ZM185.949 62.9436C185.444 62.9436 184.986 62.8134 184.577 62.5532C184.168 62.2854 183.845 61.9247 183.607 61.4711C183.369 61.01 183.25 60.4894 183.25 59.9094C183.25 59.3219 183.373 58.8013 183.618 58.3476C183.863 57.8865 184.194 57.5259 184.611 57.2656C185.027 57.0053 185.492 56.8751 186.005 56.8751C186.474 56.8751 186.89 56.983 187.255 57.1986C187.626 57.4143 187.909 57.6932 188.102 58.0353L188.125 56.9978H188.973V62.832H188.114V61.7946C187.905 62.1218 187.608 62.397 187.221 62.6201C186.834 62.8357 186.411 62.9436 185.949 62.9436ZM186.139 62.1293C186.526 62.1293 186.872 62.0363 187.177 61.8504C187.481 61.657 187.719 61.393 187.89 61.0583C188.069 60.7237 188.158 60.337 188.158 59.8982C188.158 59.4743 188.069 59.095 187.89 58.7604C187.719 58.4257 187.481 58.1654 187.177 57.9795C186.872 57.7861 186.526 57.6895 186.139 57.6895C185.745 57.6895 185.395 57.7861 185.09 57.9795C184.793 58.1654 184.559 58.4257 184.388 58.7604C184.217 59.095 184.131 59.4743 184.131 59.8982C184.131 60.3295 184.217 60.7163 184.388 61.0583C184.559 61.393 184.793 61.657 185.09 61.8504C185.395 62.0363 185.745 62.1293 186.139 62.1293ZM191.395 62.832V57.8122H190.089V56.9978H191.395V55.4807H192.242V56.9978H193.704V57.8122H192.242V62.832H191.395ZM195.277 55.7485C195.069 55.7485 194.909 55.6964 194.798 55.5923C194.686 55.4807 194.63 55.3283 194.63 55.1349C194.63 54.949 194.686 54.8003 194.798 54.6887C194.909 54.5772 195.069 54.5214 195.277 54.5214C195.478 54.5214 195.634 54.5772 195.746 54.6887C195.857 54.7928 195.913 54.9416 195.913 55.1349C195.913 55.3208 195.857 55.4696 195.746 55.5811C195.634 55.6927 195.478 55.7485 195.277 55.7485ZM194.853 62.832V56.9978H195.712V62.832H194.853ZM199.988 62.9436C199.415 62.9436 198.902 62.8134 198.448 62.5532C198.002 62.2854 197.649 61.9247 197.389 61.4711C197.128 61.01 196.998 60.4857 196.998 59.8982C196.998 59.3181 197.128 58.8013 197.389 58.3476C197.649 57.8865 198.002 57.5259 198.448 57.2656C198.902 57.0053 199.415 56.8751 199.988 56.8751C200.56 56.8751 201.07 57.0053 201.516 57.2656C201.97 57.5259 202.323 57.8865 202.576 58.3476C202.836 58.8013 202.966 59.3181 202.966 59.8982C202.966 60.4857 202.836 61.01 202.576 61.4711C202.323 61.9247 201.97 62.2854 201.516 62.5532C201.07 62.8134 200.56 62.9436 199.988 62.9436ZM199.988 62.1404C200.397 62.1404 200.757 62.0437 201.07 61.8504C201.39 61.657 201.639 61.393 201.817 61.0583C201.996 60.7163 202.085 60.3295 202.085 59.8982C202.085 59.4669 201.996 59.0876 201.817 58.7604C201.639 58.4257 201.39 58.1617 201.07 57.9683C200.757 57.775 200.397 57.6783 199.988 57.6783C199.579 57.6783 199.214 57.775 198.894 57.9683C198.575 58.1617 198.326 58.4257 198.147 58.7604C197.969 59.095 197.879 59.4743 197.879 59.8982C197.879 60.3295 197.969 60.7163 198.147 61.0583C198.326 61.393 198.575 61.657 198.894 61.8504C199.214 62.0437 199.579 62.1404 199.988 62.1404ZM204.187 62.832V56.9978H205.023L205.046 57.9907C205.224 57.6783 205.499 57.4143 205.871 57.1986C206.25 56.983 206.648 56.8751 207.065 56.8751C207.712 56.8751 208.199 57.0759 208.526 57.4775C208.861 57.8717 209.028 58.4741 209.028 59.2847V62.832H208.169V59.3404C208.169 58.2026 207.712 57.6448 206.797 57.6672C206.455 57.6672 206.15 57.7415 205.882 57.8903C205.622 58.039 205.414 58.2361 205.258 58.4815C205.109 58.7269 205.035 58.9946 205.035 59.2847V62.832H204.187ZM212.901 62.9436C212.395 62.9436 211.938 62.8134 211.529 62.5532C211.12 62.2854 210.796 61.9247 210.558 61.4711C210.32 61.01 210.201 60.4894 210.201 59.9094C210.201 59.3219 210.324 58.8013 210.569 58.3476C210.815 57.8865 211.146 57.5259 211.562 57.2656C211.978 57.0053 212.443 56.8751 212.956 56.8751C213.425 56.8751 213.841 56.983 214.206 57.1986C214.578 57.4143 214.86 57.6932 215.054 58.0353L215.076 56.9978H215.924V62.832H215.065V61.7946C214.857 62.1218 214.559 62.397 214.172 62.6201C213.786 62.8357 213.362 62.9436 212.901 62.9436ZM213.09 62.1293C213.477 62.1293 213.823 62.0363 214.128 61.8504C214.433 61.657 214.671 61.393 214.842 61.0583C215.02 60.7237 215.109 60.337 215.109 59.8982C215.109 59.4743 215.02 59.095 214.842 58.7604C214.671 58.4257 214.433 58.1654 214.128 57.9795C213.823 57.7861 213.477 57.6895 213.09 57.6895C212.696 57.6895 212.347 57.7861 212.042 57.9795C211.744 58.1654 211.51 58.4257 211.339 58.7604C211.168 59.095 211.082 59.4743 211.082 59.8982C211.082 60.3295 211.168 60.7163 211.339 61.0583C211.51 61.393 211.744 61.657 212.042 61.8504C212.347 62.0363 212.696 62.1293 213.09 62.1293ZM217.565 62.832V54.5772H218.413V62.832H217.565ZM223.52 62.832V55.0234H226.61C227.019 55.0234 227.387 55.1275 227.715 55.3357C228.042 55.5365 228.302 55.8117 228.495 56.1612C228.689 56.5107 228.785 56.9049 228.785 57.3437C228.785 57.8047 228.689 58.2175 228.495 58.5819C228.302 58.9463 228.042 59.2326 227.715 59.4408C227.387 59.6491 227.019 59.7532 226.61 59.7532H224.401V62.832H223.52ZM224.401 58.8942H226.655C226.885 58.8942 227.09 58.8273 227.268 58.6934C227.454 58.5596 227.603 58.3737 227.715 58.1357C227.826 57.8977 227.882 57.63 227.882 57.3325C227.882 56.9235 227.763 56.5814 227.525 56.3062C227.287 56.0236 226.997 55.8823 226.655 55.8823H224.401V58.8942ZM230.158 62.832V54.5772H231.006V62.832H230.158ZM234.819 62.9436C234.313 62.9436 233.856 62.8134 233.447 62.5532C233.038 62.2854 232.714 61.9247 232.476 61.4711C232.238 61.01 232.119 60.4894 232.119 59.9094C232.119 59.3219 232.242 58.8013 232.488 58.3476C232.733 57.8865 233.064 57.5259 233.48 57.2656C233.897 57.0053 234.362 56.8751 234.875 56.8751C235.343 56.8751 235.76 56.983 236.124 57.1986C236.496 57.4143 236.779 57.6932 236.972 58.0353L236.994 56.9978H237.842V62.832H236.983V61.7946C236.775 62.1218 236.477 62.397 236.091 62.6201C235.704 62.8357 235.28 62.9436 234.819 62.9436ZM235.009 62.1293C235.395 62.1293 235.741 62.0363 236.046 61.8504C236.351 61.657 236.589 61.393 236.76 61.0583C236.938 60.7237 237.028 60.337 237.028 59.8982C237.028 59.4743 236.938 59.095 236.76 58.7604C236.589 58.4257 236.351 58.1654 236.046 57.9795C235.741 57.7861 235.395 57.6895 235.009 57.6895C234.614 57.6895 234.265 57.7861 233.96 57.9795C233.663 58.1654 233.428 58.4257 233.257 58.7604C233.086 59.095 233.001 59.4743 233.001 59.8982C233.001 60.3295 233.086 60.7163 233.257 61.0583C233.428 61.393 233.663 61.657 233.96 61.8504C234.265 62.0363 234.614 62.1293 235.009 62.1293ZM240.264 62.832V57.8122H238.959V56.9978H240.264V55.4807H241.112V56.9978H242.573V57.8122H241.112V62.832H240.264ZM243.997 62.832V57.8345H242.96V57.0536H243.997V56.1054C243.997 55.6741 244.139 55.3171 244.421 55.0345C244.704 54.7519 245.08 54.6106 245.548 54.6106C245.786 54.6106 246.002 54.6552 246.195 54.7445C246.388 54.8263 246.548 54.9416 246.675 55.0903L246.374 55.7485C246.255 55.6295 246.128 55.5439 245.994 55.4919C245.86 55.4324 245.73 55.4026 245.604 55.4026C245.106 55.4026 244.856 55.6406 244.856 56.1166V57.0536H246.34V57.8345H244.856V62.832H243.997ZM249.914 62.9436C249.341 62.9436 248.828 62.8134 248.374 62.5532C247.928 62.2854 247.575 61.9247 247.315 61.4711C247.054 61.01 246.924 60.4857 246.924 59.8982C246.924 59.3181 247.054 58.8013 247.315 58.3476C247.575 57.8865 247.928 57.5259 248.374 57.2656C248.828 57.0053 249.341 56.8751 249.914 56.8751C250.487 56.8751 250.996 57.0053 251.442 57.2656C251.896 57.5259 252.249 57.8865 252.502 58.3476C252.762 58.8013 252.892 59.3181 252.892 59.8982C252.892 60.4857 252.762 61.01 252.502 61.4711C252.249 61.9247 251.896 62.2854 251.442 62.5532C250.996 62.8134 250.487 62.9436 249.914 62.9436ZM249.914 62.1404C250.323 62.1404 250.684 62.0437 250.996 61.8504C251.316 61.657 251.565 61.393 251.743 61.0583C251.922 60.7163 252.011 60.3295 252.011 59.8982C252.011 59.4669 251.922 59.0876 251.743 58.7604C251.565 58.4257 251.316 58.1617 250.996 57.9683C250.684 57.775 250.323 57.6783 249.914 57.6783C249.505 57.6783 249.14 57.775 248.821 57.9683C248.501 58.1617 248.252 58.4257 248.073 58.7604C247.895 59.095 247.806 59.4743 247.806 59.8982C247.806 60.3295 247.895 60.7163 248.073 61.0583C248.252 61.393 248.501 61.657 248.821 61.8504C249.14 62.0437 249.505 62.1404 249.914 62.1404ZM254.113 62.832V56.9978H254.961L254.972 58.1245C255.128 57.775 255.366 57.4812 255.686 57.2433C256.006 56.9978 256.37 56.8751 256.779 56.8751C256.906 56.8751 257.024 56.8863 257.136 56.9086C257.248 56.9309 257.341 56.9532 257.415 56.9755L257.181 57.9237C256.987 57.8419 256.794 57.801 256.601 57.801C256.266 57.801 255.976 57.8828 255.73 58.0464C255.485 58.2026 255.295 58.4108 255.162 58.6711C255.035 58.9314 254.972 59.2177 254.972 59.5301V62.832H254.113ZM258.274 62.832V56.9978H259.122L259.133 58.0018C259.326 57.6672 259.602 57.3994 259.959 57.1986C260.316 56.9904 260.702 56.8863 261.119 56.8863C261.535 56.8863 261.888 56.983 262.178 57.1763C262.476 57.3697 262.699 57.7006 262.848 58.1691C262.959 57.9386 263.123 57.7267 263.339 57.5333C263.554 57.3399 263.8 57.1838 264.075 57.0648C264.357 56.9458 264.655 56.8863 264.967 56.8863C265.585 56.8863 266.053 57.0871 266.373 57.4887C266.7 57.8828 266.864 58.4926 266.864 59.3181V62.832H266.005V59.3628C266.005 58.7901 265.897 58.3699 265.681 58.1022C265.466 57.827 265.142 57.6895 264.711 57.6895C264.376 57.6895 264.079 57.7638 263.818 57.9126C263.558 58.0613 263.353 58.2584 263.205 58.5038C263.063 58.7492 262.993 59.0169 262.993 59.307V62.832H262.134V59.3516C262.134 58.2435 261.703 57.6895 260.84 57.6895C260.513 57.6895 260.219 57.7638 259.959 57.9126C259.698 58.0539 259.494 58.2472 259.345 58.4926C259.204 58.7381 259.133 59.0058 259.133 59.2958V62.832H258.274Z" fill="white"/>
</g>
<g style="mix-blend-mode:luminosity" clip-path="url(#clip2_244_1058)">
<path d="M81.8051 40.9025C81.8051 18.3127 63.4924 0 40.9025 0C18.3127 0 0 18.3127 0 40.9025C0 63.4924 18.3127 81.8051 40.9025 81.8051C63.4924 81.8051 81.8051 63.4924 81.8051 40.9025Z" fill="#2196F3"/>
<g filter="url(#filter0_d_244_1058)">
<path d="M10.502 28.5308C10.502 28.5308 24.2155 36.2273 30.7429 41.4093C37.2702 46.5913 40.5158 55.1009 40.5158 55.1009C40.5158 55.1009 44.419 43.4867 51.4879 34.4203C58.5568 25.354 68.4267 19.1885 68.4267 19.1885C66.2124 18.4655 49.1843 28.8445 38.8673 40.8317C46.4819 52.1807 46.625 38.4337 10.502 28.5308Z" fill="white"/>
</g>
<g filter="url(#filter1_d_244_1058)">
<path d="M10.502 28.5308C10.502 28.5308 24.2155 36.2273 30.7429 41.4093C37.2702 46.5913 40.5158 55.1009 40.5158 55.1009C40.5158 55.1009 44.419 43.4867 51.4879 34.4203C58.5568 25.354 68.4267 19.1885 68.4267 19.1885C66.2124 18.4655 49.1843 28.8445 38.8673 40.8317C46.4819 52.1807 46.625 38.4337 10.502 28.5308Z" fill="white"/>
</g>
<g filter="url(#filter2_d_244_1058)">
<path d="M29.3662 24.7324V28.0881V24.7324Z" fill="#FAFAFA"/>
<path d="M29.3662 24.7324V28.0881" stroke="white" stroke-width="3.71841" stroke-linecap="round"/>
</g>
<path d="M29.3711 24.7271V28.0827" stroke="white" stroke-width="3.71841" stroke-linecap="round"/>
<g filter="url(#filter3_d_244_1058)">
<path d="M27.0889 25.2753L33.7777 19.8135L45.0668 20.0509L38.2354 25.2753H27.0889Z" fill="white"/>
</g>
<g filter="url(#filter4_d_244_1058)">
<path d="M27.0889 25.2753L33.7777 19.8135L45.0668 20.0509L38.2354 25.2753H27.0889Z" fill="white"/>
</g>
<g filter="url(#filter5_d_244_1058)">
<path d="M37.3794 21.6739C38.1427 21.6698 38.8994 21.8162 39.6061 22.1046C40.3129 22.3929 40.9559 22.8177 41.4986 23.3546C42.0412 23.8916 42.4727 24.5301 42.7685 25.2338C43.0643 25.9375 43.2186 26.6926 43.2226 27.4559C43.2186 28.2192 43.0643 28.9742 42.7684 29.6779C42.4726 30.3816 42.0411 31.0201 41.4985 31.557C40.9559 32.0939 40.3128 32.5186 39.6061 32.807C38.8993 33.0954 38.1427 33.2417 37.3794 33.2376C36.616 33.2417 35.8594 33.0954 35.1526 32.807C34.4459 32.5186 33.8028 32.0939 33.2602 31.557C32.7176 31.0201 32.2861 30.3816 31.9903 29.6779C31.6945 28.9742 31.5401 28.2192 31.5361 27.4559C31.5401 26.6926 31.6944 25.9375 31.9902 25.2338C32.286 24.5301 32.7176 23.8916 33.2602 23.3546C33.8028 22.8177 34.4458 22.3929 35.1526 22.1046C35.8594 21.8162 36.616 21.6698 37.3794 21.6739Z" fill="white"/>
</g>
<g filter="url(#filter6_d_244_1058)">
<path d="M37.3794 21.6739C38.1427 21.6698 38.8994 21.8162 39.6061 22.1046C40.3129 22.3929 40.9559 22.8177 41.4986 23.3546C42.0412 23.8916 42.4727 24.5301 42.7685 25.2338C43.0643 25.9375 43.2186 26.6926 43.2226 27.4559C43.2186 28.2192 43.0643 28.9742 42.7684 29.6779C42.4726 30.3816 42.0411 31.0201 41.4985 31.557C40.9559 32.0939 40.3128 32.5186 39.6061 32.807C38.8993 33.0954 38.1427 33.2417 37.3794 33.2376C36.616 33.2417 35.8594 33.0954 35.1526 32.807C34.4459 32.5186 33.8028 32.0939 33.2602 31.557C32.7176 31.0201 32.2861 30.3816 31.9903 29.6779C31.6945 28.9742 31.5401 28.2192 31.5361 27.4559C31.5401 26.6926 31.6944 25.9375 31.9902 25.2338C32.286 24.5301 32.7176 23.8916 33.2602 23.3546C33.8028 22.8177 34.4458 22.3929 35.1526 22.1046C35.8594 21.8162 36.616 21.6698 37.3794 21.6739Z" fill="white"/>
</g>
<g filter="url(#filter7_d_244_1058)">
<path d="M42.4756 57.681C47.0614 56.1833 51.7643 55.0715 56.5353 54.3571C64.0763 53.2733 72.6392 53.3453 72.6392 53.3453L68.8016 51.4351C68.8016 51.4351 61.5278 51.7936 54.9462 53.3551C52.5481 53.9006 50.1819 54.5778 47.8584 55.3837C46.0194 56.0402 44.2219 56.8073 42.4756 57.681Z" fill="black" stroke="black" stroke-width="0.464801" stroke-linecap="round"/>
</g>
<g filter="url(#filter8_d_244_1058)">
<path d="M41.835 56.9352C41.835 56.9352 46.8073 54.1029 54.5456 52.5177C62.2839 50.9326 72.1405 50.851 72.1405 50.851L68.5607 48.3613C68.5607 48.3613 59.9994 48.8655 53.103 51.077C50.503 51.9107 49.2388 52.3354 46.2597 53.8633C43.2806 55.3912 41.835 56.9352 41.835 56.9352Z" fill="white"/>
</g>
<g filter="url(#filter9_d_244_1058)">
<path d="M41.835 56.9352C41.835 56.9352 46.8073 54.1029 54.5456 52.5177C62.2839 50.9326 72.1405 50.851 72.1405 50.851L68.5607 48.3613C68.5607 48.3613 59.9994 48.8655 53.103 51.077C50.503 51.9107 49.2388 52.3354 46.2597 53.8633C43.2806 55.3912 41.835 56.9352 41.835 56.9352Z" fill="white"/>
</g>
<g filter="url(#filter10_d_244_1058)">
<path d="M41.1709 56.0602C43.0422 54.6123 45.0612 53.3661 47.1943 52.3423C49.1235 51.4036 51.4949 50.6861 54.0255 49.9276C61.1543 47.7909 69.6895 47.513 69.6895 47.513L66.3218 45.0029C66.3218 45.0029 59.3919 44.9709 53.1044 47.7355C50.8533 48.7251 48.6248 49.6177 46.718 50.9764C44.6772 52.4491 42.8155 54.1552 41.1709 56.0602Z" fill="white"/>
</g>
<g filter="url(#filter11_d_244_1058)">
<path d="M41.1709 56.0602C43.0422 54.6123 45.0612 53.3661 47.1943 52.3423C49.1235 51.4036 51.4949 50.6861 54.0255 49.9276C61.1543 47.7909 69.6895 47.513 69.6895 47.513L66.3218 45.0029C66.3218 45.0029 59.3919 44.9709 53.1044 47.7355C50.8533 48.7251 48.6248 49.6177 46.718 50.9764C44.6772 52.4491 42.8155 54.1552 41.1709 56.0602Z" fill="white"/>
</g>
<g filter="url(#filter12_d_244_1058)">
<path d="M38.7376 57.681C34.1519 56.1833 29.449 55.0715 24.6781 54.3571C17.1371 53.2733 8.57422 53.3453 8.57422 53.3453L12.4118 51.4351C12.4118 51.4351 19.6857 51.7936 26.2672 53.3551C28.6653 53.9006 31.0315 54.5778 33.3551 55.3837C35.1939 56.0402 36.9914 56.8073 38.7376 57.681Z" fill="black" stroke="black" stroke-width="0.464801" stroke-linecap="round"/>
</g>
<g filter="url(#filter13_d_244_1058)">
<path d="M39.3787 56.9349C39.3787 56.9349 34.4064 54.1026 26.6681 52.5174C18.9298 50.9323 9.07324 50.8507 9.07324 50.8507L12.6523 48.3599C12.6523 48.3599 21.2136 48.864 28.11 51.0755C30.71 51.9093 31.9742 52.3339 34.9533 53.8618C37.9324 55.3897 39.3787 56.9349 39.3787 56.9349Z" fill="white"/>
</g>
<g filter="url(#filter14_d_244_1058)">
<path d="M39.3787 56.9349C39.3787 56.9349 34.4064 54.1026 26.6681 52.5174C18.9298 50.9323 9.07324 50.8507 9.07324 50.8507L12.6523 48.3599C12.6523 48.3599 21.2136 48.864 28.11 51.0755C30.71 51.9093 31.9742 52.3339 34.9533 53.8618C37.9324 55.3897 39.3787 56.9349 39.3787 56.9349Z" fill="white"/>
</g>
<g filter="url(#filter15_d_244_1058)">
<path d="M40.0421 56.0602C38.1707 54.6123 36.1517 53.3661 34.0187 52.3423C32.0895 51.4036 29.7181 50.6861 27.1875 49.9276C20.0588 47.7909 11.5234 47.513 11.5234 47.513L14.8915 45.0029C14.8915 45.0029 21.8213 44.9709 28.1088 47.7355C30.3599 48.7251 32.5885 49.6177 34.4952 50.9764C36.5359 52.4491 38.3975 54.1553 40.0421 56.0602Z" fill="white"/>
</g>
<g filter="url(#filter16_d_244_1058)">
<path d="M40.0421 56.0602C38.1707 54.6123 36.1517 53.3661 34.0187 52.3423C32.0895 51.4036 29.7181 50.6861 27.1875 49.9276C20.0588 47.7909 11.5234 47.513 11.5234 47.513L14.8915 45.0029C14.8915 45.0029 21.8213 44.9709 28.1088 47.7355C30.3599 48.7251 32.5885 49.6177 34.4952 50.9764C36.5359 52.4491 38.3975 54.1553 40.0421 56.0602Z" fill="white"/>
</g>
<path d="M41.0213 77.8316C61.3521 77.8316 77.8336 61.3502 77.8336 41.0193C77.8336 20.6885 61.3521 4.20703 41.0213 4.20703C20.6904 4.20703 4.20898 20.6885 4.20898 41.0193C4.20898 61.3502 20.6904 77.8316 41.0213 77.8316Z" stroke="white" stroke-width="9.29603"/>
<g filter="url(#filter17_d_244_1058)">
<path d="M45.1096 67.7817H37.1628C36.1301 67.7817 35.293 68.6189 35.293 69.6516C35.293 70.6842 36.1301 71.5214 37.1628 71.5214H45.1096C46.1423 71.5214 46.9794 70.6842 46.9794 69.6516C46.9794 68.6189 46.1423 67.7817 45.1096 67.7817Z" fill="white"/>
</g>
<g filter="url(#filter18_d_244_1058)">
<path d="M45.1096 67.7817H37.1628C36.1301 67.7817 35.293 68.6189 35.293 69.6516C35.293 70.6842 36.1301 71.5214 37.1628 71.5214H45.1096C46.1423 71.5214 46.9794 70.6842 46.9794 69.6516C46.9794 68.6189 46.1423 67.7817 45.1096 67.7817Z" fill="white"/>
</g>
<g filter="url(#filter19_d_244_1058)">
<path d="M50.7179 60.5356H31.0847C30.052 60.5356 29.2148 61.3728 29.2148 62.4055C29.2148 63.4382 30.052 64.2753 31.0847 64.2753H50.7179C51.7506 64.2753 52.5877 63.4382 52.5877 62.4055C52.5877 61.3728 51.7506 60.5356 50.7179 60.5356Z" fill="white"/>
</g>
<g filter="url(#filter20_d_244_1058)">
<path d="M50.7179 60.5356H31.0847C30.052 60.5356 29.2148 61.3728 29.2148 62.4055C29.2148 63.4382 30.052 64.2753 31.0847 64.2753H50.7179C51.7506 64.2753 52.5877 63.4382 52.5877 62.4055C52.5877 61.3728 51.7506 60.5356 50.7179 60.5356Z" fill="white"/>
</g>
</g>
<defs>
<filter id="filter0_d_244_1058" x="10.502" y="16.364" width="72.7985" height="47.1035" filterUnits="userSpaceOnUse" color-interpolation-filters="sRGB">
<feFlood flood-opacity="0" result="BackgroundImageFix"/>
<feColorMatrix in="SourceAlpha" type="matrix" values="0 0 0 0 0 0 0 0 0 0 0 0 0 0 0 0 0 0 127 0" result="hardAlpha"/>
<feOffset dx="9.29603" dy="2.78881"/>
<feGaussianBlur stdDeviation="2.78881"/>
<feColorMatrix type="matrix" values="0 0 0 0 0 0 0 0 0 0 0 0 0 0 0 0 0 0 0.161 0"/>
<feBlend mode="normal" in2="BackgroundImageFix" result="effect1_dropShadow_244_1058"/>
<feBlend mode="normal" in="SourceGraphic" in2="effect1_dropShadow_244_1058" result="shape"/>
</filter>
<filter id="filter1_d_244_1058" x="4.92434" y="16.364" width="69.08" height="47.1035" filterUnits="userSpaceOnUse" color-interpolation-filters="sRGB">
<feFlood flood-opacity="0" result="BackgroundImageFix"/>
<feColorMatrix in="SourceAlpha" type="matrix" values="0 0 0 0 0 0 0 0 0 0 0 0 0 0 0 0 0 0 127 0" result="hardAlpha"/>
<feOffset dy="2.78881"/>
<feGaussianBlur stdDeviation="2.78881"/>
<feColorMatrix type="matrix" values="0 0 0 0 0 0 0 0 0 0 0 0 0 0 0 0 0 0 0.161 0"/>
<feBlend mode="normal" in2="BackgroundImageFix" result="effect1_dropShadow_244_1058"/>
<feBlend mode="normal" in="SourceGraphic" in2="effect1_dropShadow_244_1058" result="shape"/>
</filter>
<filter id="filter2_d_244_1058" x="26.5772" y="20.0842" width="14.874" height="18.2295" filterUnits="userSpaceOnUse" color-interpolation-filters="sRGB">
<feFlood flood-opacity="0" result="BackgroundImageFix"/>
<feColorMatrix in="SourceAlpha" type="matrix" values="0 0 0 0 0 0 0 0 0 0 0 0 0 0 0 0 0 0 127 0" result="hardAlpha"/>
<feOffset dx="4.64801" dy="2.78881"/>
<feGaussianBlur stdDeviation="2.78881"/>
<feColorMatrix type="matrix" values="0 0 0 0 0 0 0 0 0 0 0 0 0 0 0 0 0 0 0.161 0"/>
<feBlend mode="normal" in2="BackgroundImageFix" result="effect1_dropShadow_244_1058"/>
<feBlend mode="normal" in="SourceGraphic" in2="effect1_dropShadow_244_1058" result="shape"/>
</filter>
<filter id="filter3_d_244_1058" x="26.1593" y="17.0247" width="29.1328" height="16.6171" filterUnits="userSpaceOnUse" color-interpolation-filters="sRGB">
<feFlood flood-opacity="0" result="BackgroundImageFix"/>
<feColorMatrix in="SourceAlpha" type="matrix" values="0 0 0 0 0 0 0 0 0 0 0 0 0 0 0 0 0 0 127 0" result="hardAlpha"/>
<feOffset dx="4.64801" dy="2.78881"/>
<feGaussianBlur stdDeviation="2.78881"/>
<feColorMatrix type="matrix" values="0 0 0 0 0 0 0 0 0 0 0 0 0 0 0 0 0 0 0.161 0"/>
<feBlend mode="normal" in2="BackgroundImageFix" result="effect1_dropShadow_244_1058"/>
<feBlend mode="normal" in="SourceGraphic" in2="effect1_dropShadow_244_1058" result="shape"/>
</filter>
<filter id="filter4_d_244_1058" x="21.5112" y="17.0247" width="29.1328" height="16.6171" filterUnits="userSpaceOnUse" color-interpolation-filters="sRGB">
<feFlood flood-opacity="0" result="BackgroundImageFix"/>
<feColorMatrix in="SourceAlpha" type="matrix" values="0 0 0 0 0 0 0 0 0 0 0 0 0 0 0 0 0 0 127 0" result="hardAlpha"/>
<feOffset dy="2.78881"/>
<feGaussianBlur stdDeviation="2.78881"/>
<feColorMatrix type="matrix" values="0 0 0 0 0 0 0 0 0 0 0 0 0 0 0 0 0 0 0.161 0"/>
<feBlend mode="normal" in2="BackgroundImageFix" result="effect1_dropShadow_244_1058"/>
<feBlend mode="normal" in="SourceGraphic" in2="effect1_dropShadow_244_1058" result="shape"/>
</filter>
<filter id="filter5_d_244_1058" x="30.6065" y="18.885" width="22.8418" height="22.7192" filterUnits="userSpaceOnUse" color-interpolation-filters="sRGB">
<feFlood flood-opacity="0" result="BackgroundImageFix"/>
<feColorMatrix in="SourceAlpha" type="matrix" values="0 0 0 0 0 0 0 0 0 0 0 0 0 0 0 0 0 0 127 0" result="hardAlpha"/>
<feOffset dx="4.64801" dy="2.78881"/>
<feGaussianBlur stdDeviation="2.78881"/>
<feColorMatrix type="matrix" values="0 0 0 0 0 0 0 0 0 0 0 0 0 0 0 0 0 0 0.161 0"/>
<feBlend mode="normal" in2="BackgroundImageFix" result="effect1_dropShadow_244_1058"/>
<feBlend mode="normal" in="SourceGraphic" in2="effect1_dropShadow_244_1058" result="shape"/>
</filter>
<filter id="filter6_d_244_1058" x="25.9585" y="18.885" width="22.8418" height="22.7192" filterUnits="userSpaceOnUse" color-interpolation-filters="sRGB">
<feFlood flood-opacity="0" result="BackgroundImageFix"/>
<feColorMatrix in="SourceAlpha" type="matrix" values="0 0 0 0 0 0 0 0 0 0 0 0 0 0 0 0 0 0 127 0" result="hardAlpha"/>
<feOffset dy="2.78881"/>
<feGaussianBlur stdDeviation="2.78881"/>
<feColorMatrix type="matrix" values="0 0 0 0 0 0 0 0 0 0 0 0 0 0 0 0 0 0 0.161 0"/>
<feBlend mode="normal" in2="BackgroundImageFix" result="effect1_dropShadow_244_1058"/>
<feBlend mode="normal" in="SourceGraphic" in2="effect1_dropShadow_244_1058" result="shape"/>
</filter>
<filter id="filter7_d_244_1058" x="42.3721" y="48.4109" width="54.5408" height="17.8574" filterUnits="userSpaceOnUse" color-interpolation-filters="sRGB">
<feFlood flood-opacity="0" result="BackgroundImageFix"/>
<feColorMatrix in="SourceAlpha" type="matrix" values="0 0 0 0 0 0 0 0 0 0 0 0 0 0 0 0 0 0 127 0" result="hardAlpha"/>
<feOffset dx="18.5921" dy="2.78881"/>
<feGaussianBlur stdDeviation="2.78881"/>
<feColorMatrix type="matrix" values="0 0 0 0 0 0 0 0 0 0 0 0 0 0 0 0 0 0 0.161 0"/>
<feBlend mode="normal" in2="BackgroundImageFix" result="effect1_dropShadow_244_1058"/>
<feBlend mode="normal" in="SourceGraphic" in2="effect1_dropShadow_244_1058" result="shape"/>
</filter>
<filter id="filter8_d_244_1058" x="36.2573" y="45.5725" width="41.4609" height="19.729" filterUnits="userSpaceOnUse" color-interpolation-filters="sRGB">
<feFlood flood-opacity="0" result="BackgroundImageFix"/>
<feColorMatrix in="SourceAlpha" type="matrix" values="0 0 0 0 0 0 0 0 0 0 0 0 0 0 0 0 0 0 127 0" result="hardAlpha"/>
<feOffset dy="2.78881"/>
<feGaussianBlur stdDeviation="2.78881"/>
<feColorMatrix type="matrix" values="0 0 0 0 0 0 0 0 0 0 0 0 0 0 0 0 0 0 0.161 0"/>
<feBlend mode="normal" in2="BackgroundImageFix" result="effect1_dropShadow_244_1058"/>
<feBlend mode="normal" in="SourceGraphic" in2="effect1_dropShadow_244_1058" result="shape"/>
</filter>
<filter id="filter9_d_244_1058" x="36.2573" y="45.5725" width="41.4609" height="19.729" filterUnits="userSpaceOnUse" color-interpolation-filters="sRGB">
<feFlood flood-opacity="0" result="BackgroundImageFix"/>
<feColorMatrix in="SourceAlpha" type="matrix" values="0 0 0 0 0 0 0 0 0 0 0 0 0 0 0 0 0 0 127 0" result="hardAlpha"/>
<feOffset dy="2.78881"/>
<feGaussianBlur stdDeviation="2.78881"/>
<feColorMatrix type="matrix" values="0 0 0 0 0 0 0 0 0 0 0 0 0 0 0 0 0 0 0.161 0"/>
<feBlend mode="normal" in2="BackgroundImageFix" result="effect1_dropShadow_244_1058"/>
<feBlend mode="normal" in="SourceGraphic" in2="effect1_dropShadow_244_1058" result="shape"/>
</filter>
<filter id="filter10_d_244_1058" x="35.5933" y="42.2141" width="39.6738" height="22.2124" filterUnits="userSpaceOnUse" color-interpolation-filters="sRGB">
<feFlood flood-opacity="0" result="BackgroundImageFix"/>
<feColorMatrix in="SourceAlpha" type="matrix" values="0 0 0 0 0 0 0 0 0 0 0 0 0 0 0 0 0 0 127 0" result="hardAlpha"/>
<feOffset dy="2.78881"/>
<feGaussianBlur stdDeviation="2.78881"/>
<feColorMatrix type="matrix" values="0 0 0 0 0 0 0 0 0 0 0 0 0 0 0 0 0 0 0.161 0"/>
<feBlend mode="normal" in2="BackgroundImageFix" result="effect1_dropShadow_244_1058"/>
<feBlend mode="normal" in="SourceGraphic" in2="effect1_dropShadow_244_1058" result="shape"/>
</filter>
<filter id="filter11_d_244_1058" x="35.5933" y="42.2141" width="39.6738" height="22.2124" filterUnits="userSpaceOnUse" color-interpolation-filters="sRGB">
<feFlood flood-opacity="0" result="BackgroundImageFix"/>
<feColorMatrix in="SourceAlpha" type="matrix" values="0 0 0 0 0 0 0 0 0 0 0 0 0 0 0 0 0 0 127 0" result="hardAlpha"/>
<feOffset dy="2.78881"/>
<feGaussianBlur stdDeviation="2.78881"/>
<feColorMatrix type="matrix" values="0 0 0 0 0 0 0 0 0 0 0 0 0 0 0 0 0 0 0.161 0"/>
<feBlend mode="normal" in2="BackgroundImageFix" result="effect1_dropShadow_244_1058"/>
<feBlend mode="normal" in="SourceGraphic" in2="effect1_dropShadow_244_1058" result="shape"/>
</filter>
<filter id="filter12_d_244_1058" x="8.4707" y="48.4109" width="54.5408" height="17.8574" filterUnits="userSpaceOnUse" color-interpolation-filters="sRGB">
<feFlood flood-opacity="0" result="BackgroundImageFix"/>
<feColorMatrix in="SourceAlpha" type="matrix" values="0 0 0 0 0 0 0 0 0 0 0 0 0 0 0 0 0 0 127 0" result="hardAlpha"/>
<feOffset dx="18.5921" dy="2.78881"/>
<feGaussianBlur stdDeviation="2.78881"/>
<feColorMatrix type="matrix" values="0 0 0 0 0 0 0 0 0 0 0 0 0 0 0 0 0 0 0.161 0"/>
<feBlend mode="normal" in2="BackgroundImageFix" result="effect1_dropShadow_244_1058"/>
<feBlend mode="normal" in="SourceGraphic" in2="effect1_dropShadow_244_1058" result="shape"/>
</filter>
<filter id="filter13_d_244_1058" x="9.07324" y="45.5711" width="45.1793" height="19.7304" filterUnits="userSpaceOnUse" color-interpolation-filters="sRGB">
<feFlood flood-opacity="0" result="BackgroundImageFix"/>
<feColorMatrix in="SourceAlpha" type="matrix" values="0 0 0 0 0 0 0 0 0 0 0 0 0 0 0 0 0 0 127 0" result="hardAlpha"/>
<feOffset dx="9.29603" dy="2.78881"/>
<feGaussianBlur stdDeviation="2.78881"/>
<feColorMatrix type="matrix" values="0 0 0 0 0 0 0 0 0 0 0 0 0 0 0 0 0 0 0.161 0"/>
<feBlend mode="normal" in2="BackgroundImageFix" result="effect1_dropShadow_244_1058"/>
<feBlend mode="normal" in="SourceGraphic" in2="effect1_dropShadow_244_1058" result="shape"/>
</filter>
<filter id="filter14_d_244_1058" x="3.49562" y="45.5711" width="41.4609" height="19.7304" filterUnits="userSpaceOnUse" color-interpolation-filters="sRGB">
<feFlood flood-opacity="0" result="BackgroundImageFix"/>
<feColorMatrix in="SourceAlpha" type="matrix" values="0 0 0 0 0 0 0 0 0 0 0 0 0 0 0 0 0 0 127 0" result="hardAlpha"/>
<feOffset dy="2.78881"/>
<feGaussianBlur stdDeviation="2.78881"/>
<feColorMatrix type="matrix" values="0 0 0 0 0 0 0 0 0 0 0 0 0 0 0 0 0 0 0.161 0"/>
<feBlend mode="normal" in2="BackgroundImageFix" result="effect1_dropShadow_244_1058"/>
<feBlend mode="normal" in="SourceGraphic" in2="effect1_dropShadow_244_1058" result="shape"/>
</filter>
<filter id="filter15_d_244_1058" x="11.5234" y="42.2141" width="43.3922" height="22.2124" filterUnits="userSpaceOnUse" color-interpolation-filters="sRGB">
<feFlood flood-opacity="0" result="BackgroundImageFix"/>
<feColorMatrix in="SourceAlpha" type="matrix" values="0 0 0 0 0 0 0 0 0 0 0 0 0 0 0 0 0 0 127 0" result="hardAlpha"/>
<feOffset dx="9.29603" dy="2.78881"/>
<feGaussianBlur stdDeviation="2.78881"/>
<feColorMatrix type="matrix" values="0 0 0 0 0 0 0 0 0 0 0 0 0 0 0 0 0 0 0.161 0"/>
<feBlend mode="normal" in2="BackgroundImageFix" result="effect1_dropShadow_244_1058"/>
<feBlend mode="normal" in="SourceGraphic" in2="effect1_dropShadow_244_1058" result="shape"/>
</filter>
<filter id="filter16_d_244_1058" x="5.94582" y="42.2141" width="39.6738" height="22.2124" filterUnits="userSpaceOnUse" color-interpolation-filters="sRGB">
<feFlood flood-opacity="0" result="BackgroundImageFix"/>
<feColorMatrix in="SourceAlpha" type="matrix" values="0 0 0 0 0 0 0 0 0 0 0 0 0 0 0 0 0 0 127 0" result="hardAlpha"/>
<feOffset dy="2.78881"/>
<feGaussianBlur stdDeviation="2.78881"/>
<feColorMatrix type="matrix" values="0 0 0 0 0 0 0 0 0 0 0 0 0 0 0 0 0 0 0.161 0"/>
<feBlend mode="normal" in2="BackgroundImageFix" result="effect1_dropShadow_244_1058"/>
<feBlend mode="normal" in="SourceGraphic" in2="effect1_dropShadow_244_1058" result="shape"/>
</filter>
<filter id="filter17_d_244_1058" x="29.7154" y="64.9929" width="22.8418" height="14.895" filterUnits="userSpaceOnUse" color-interpolation-filters="sRGB">
<feFlood flood-opacity="0" result="BackgroundImageFix"/>
<feColorMatrix in="SourceAlpha" type="matrix" values="0 0 0 0 0 0 0 0 0 0 0 0 0 0 0 0 0 0 127 0" result="hardAlpha"/>
<feOffset dy="2.78881"/>
<feGaussianBlur stdDeviation="2.78881"/>
<feColorMatrix type="matrix" values="0 0 0 0 0 0 0 0 0 0 0 0 0 0 0 0 0 0 0.161 0"/>
<feBlend mode="normal" in2="BackgroundImageFix" result="effect1_dropShadow_244_1058"/>
<feBlend mode="normal" in="SourceGraphic" in2="effect1_dropShadow_244_1058" result="shape"/>
</filter>
<filter id="filter18_d_244_1058" x="29.7154" y="64.9929" width="22.8418" height="14.895" filterUnits="userSpaceOnUse" color-interpolation-filters="sRGB">
<feFlood flood-opacity="0" result="BackgroundImageFix"/>
<feColorMatrix in="SourceAlpha" type="matrix" values="0 0 0 0 0 0 0 0 0 0 0 0 0 0 0 0 0 0 127 0" result="hardAlpha"/>
<feOffset dy="2.78881"/>
<feGaussianBlur stdDeviation="2.78881"/>
<feColorMatrix type="matrix" values="0 0 0 0 0 0 0 0 0 0 0 0 0 0 0 0 0 0 0.161 0"/>
<feBlend mode="normal" in2="BackgroundImageFix" result="effect1_dropShadow_244_1058"/>
<feBlend mode="normal" in="SourceGraphic" in2="effect1_dropShadow_244_1058" result="shape"/>
</filter>
<filter id="filter19_d_244_1058" x="23.6372" y="57.7468" width="34.5283" height="14.895" filterUnits="userSpaceOnUse" color-interpolation-filters="sRGB">
<feFlood flood-opacity="0" result="BackgroundImageFix"/>
<feColorMatrix in="SourceAlpha" type="matrix" values="0 0 0 0 0 0 0 0 0 0 0 0 0 0 0 0 0 0 127 0" result="hardAlpha"/>
<feOffset dy="2.78881"/>
<feGaussianBlur stdDeviation="2.78881"/>
<feColorMatrix type="matrix" values="0 0 0 0 0 0 0 0 0 0 0 0 0 0 0 0 0 0 0.161 0"/>
<feBlend mode="normal" in2="BackgroundImageFix" result="effect1_dropShadow_244_1058"/>
<feBlend mode="normal" in="SourceGraphic" in2="effect1_dropShadow_244_1058" result="shape"/>
</filter>
<filter id="filter20_d_244_1058" x="23.6372" y="57.7468" width="34.5283" height="14.895" filterUnits="userSpaceOnUse" color-interpolation-filters="sRGB">
<feFlood flood-opacity="0" result="BackgroundImageFix"/>
<feColorMatrix in="SourceAlpha" type="matrix" values="0 0 0 0 0 0 0 0 0 0 0 0 0 0 0 0 0 0 127 0" result="hardAlpha"/>
<feOffset dy="2.78881"/>
<feGaussianBlur stdDeviation="2.78881"/>
<feColorMatrix type="matrix" values="0 0 0 0 0 0 0 0 0 0 0 0 0 0 0 0 0 0 0.161 0"/>
<feBlend mode="normal" in2="BackgroundImageFix" result="effect1_dropShadow_244_1058"/>
<feBlend mode="normal" in="SourceGraphic" in2="effect1_dropShadow_244_1058" result="shape"/>
</filter>
<clipPath id="clip0_244_1058">
<rect width="288.549" height="62.728" fill="white" transform="translate(20.4512 9.2959)"/>
</clipPath>
<clipPath id="clip1_244_1058">
<rect width="12.0848" height="6.04242" fill="white" transform="translate(246.345 28.8179)"/>
</clipPath>
<clipPath id="clip2_244_1058">
<rect width="81.8051" height="81.8051" fill="white"/>
</clipPath>
</defs>
</svg>
