<svg width="153" height="47" viewBox="0 0 153 47" fill="none" xmlns="http://www.w3.org/2000/svg">
<path d="M58.9364 27.1101C58.082 27.1101 57.366 26.9638 56.7884 26.671C56.2109 26.3783 55.7164 25.9708 55.305 25.4487L56.5867 24.0008C56.9822 24.523 57.3818 24.8751 57.7853 25.057C58.1967 25.239 58.6081 25.33 59.0195 25.33C59.3281 25.33 59.5812 25.2746 59.779 25.1639C59.9768 25.0531 60.0757 24.8869 60.0757 24.6654C60.0757 24.4755 59.9926 24.3173 59.8265 24.1907C59.6683 24.0641 59.4665 23.9652 59.2213 23.894C58.976 23.8149 58.7268 23.7477 58.4736 23.6923C57.5558 23.4945 56.8715 23.182 56.4205 22.7547C55.9695 22.3275 55.7441 21.7618 55.7441 21.0577C55.7441 20.5434 55.8904 20.0964 56.1832 19.7167C56.4838 19.329 56.8754 19.0283 57.358 18.8147C57.8407 18.5932 58.3589 18.4824 58.9127 18.4824C59.7513 18.4824 60.4159 18.613 60.9064 18.8741C61.397 19.1272 61.7925 19.4754 62.0932 19.9184L60.7996 21.1645C60.5465 20.8718 60.2656 20.6542 59.957 20.5118C59.6485 20.3615 59.3281 20.2863 58.9958 20.2863C58.6635 20.2863 58.3984 20.3417 58.2006 20.4524C58.0029 20.5632 57.904 20.7254 57.904 20.939C57.904 21.1052 57.9712 21.2436 58.1057 21.3544C58.2481 21.4651 58.4261 21.5561 58.6397 21.6273C58.8534 21.6906 59.0749 21.746 59.3043 21.7935C59.8819 21.9042 60.3882 22.0664 60.8234 22.28C61.2664 22.4937 61.6106 22.7745 61.8558 23.1226C62.1011 23.4628 62.2237 23.8861 62.2237 24.3925C62.2237 24.9779 62.0813 25.4724 61.7965 25.8759C61.5117 26.2794 61.1201 26.588 60.6216 26.8016C60.1311 27.0073 59.5694 27.1101 58.9364 27.1101ZM63.4908 26.9915V20.6779H65.3896L65.4371 21.4612C65.9513 20.8599 66.5486 20.5593 67.2291 20.5593C67.6405 20.5593 67.9886 20.6423 68.2734 20.8085C68.5661 20.9746 68.8233 21.2673 69.0448 21.6867C69.3217 21.299 69.6461 21.0142 70.0179 20.8322C70.3977 20.6502 70.7933 20.5593 71.2047 20.5593C71.9246 20.5593 72.4745 20.7808 72.8543 21.2238C73.234 21.659 73.4239 22.2959 73.4239 23.1345V26.9915H71.4064V23.2888C71.4064 22.5926 71.1097 22.2444 70.5164 22.2444C70.2078 22.2444 69.9546 22.3394 69.7568 22.5293C69.559 22.7191 69.4601 22.9525 69.4601 23.2294V26.9915H67.4427V23.2888C67.4427 22.9486 67.3636 22.6915 67.2053 22.5174C67.055 22.3354 66.8414 22.2444 66.5645 22.2444C66.2559 22.2444 66.0027 22.3394 65.8049 22.5293C65.6072 22.7112 65.5083 22.9446 65.5083 23.2294V26.9915H63.4908ZM77.3016 27.0983C76.7794 27.0983 76.3087 26.9598 75.8894 26.6829C75.478 26.3981 75.1496 26.0104 74.9044 25.5199C74.667 25.0214 74.5484 24.4558 74.5484 23.8228C74.5484 23.182 74.667 22.6163 74.9044 22.1258C75.1496 21.6352 75.4819 21.2515 75.9012 20.9746C76.3285 20.6898 76.815 20.5474 77.361 20.5474C77.7724 20.5474 78.1323 20.6265 78.4409 20.7847C78.7495 20.943 79.0066 21.1487 79.2123 21.4018V20.6779H81.1942V26.9915H79.1648V26.2675C78.9512 26.5128 78.6862 26.7145 78.3697 26.8728C78.0532 27.0231 77.6972 27.0983 77.3016 27.0983ZM77.8713 25.4249C78.2906 25.4249 78.6189 25.2825 78.8563 24.9977C79.1015 24.705 79.2242 24.3133 79.2242 23.8228C79.2242 23.3402 79.1015 22.9565 78.8563 22.6717C78.6189 22.3789 78.2906 22.2326 77.8713 22.2326C77.4599 22.2326 77.1315 22.3789 76.8863 22.6717C76.6489 22.9565 76.5302 23.3402 76.5302 23.8228C76.5302 24.3133 76.6489 24.705 76.8863 24.9977C77.1315 25.2825 77.4599 25.4249 77.8713 25.4249ZM82.8801 26.9915V20.6779H84.7789L84.8145 21.6155C85.0281 21.299 85.2971 21.0419 85.6215 20.8441C85.9538 20.6463 86.3059 20.5474 86.6777 20.5474C86.8122 20.5474 86.9428 20.5593 87.0693 20.583C87.1959 20.6067 87.3106 20.6344 87.4135 20.6661L86.8676 22.8853C86.7806 22.8378 86.6619 22.7943 86.5116 22.7547C86.3612 22.7073 86.1991 22.6835 86.025 22.6835C85.6927 22.6835 85.4198 22.7943 85.2061 23.0158C85.0004 23.2374 84.8976 23.5261 84.8976 23.8822V26.9915H82.8801ZM89.08 26.9915V22.4225H87.9881V20.6779H89.08V19.0877H91.0974V20.6779H92.2723V22.4225H91.0974V26.9915H89.08ZM96.2523 27.1101C94.9073 27.1101 93.863 26.5721 93.1193 25.4961L93.9975 24.4874C94.3851 25.0412 94.757 25.4249 95.113 25.6386C95.469 25.8522 95.8923 25.959 96.3828 25.959C96.8338 25.959 97.2136 25.8561 97.5221 25.6504C97.8386 25.4447 97.9968 25.1797 97.9968 24.8553C97.9968 24.4914 97.8426 24.1947 97.534 23.9652C97.2254 23.7279 96.7389 23.5459 96.0743 23.4193C94.3812 23.087 93.5346 22.2444 93.5346 20.8915C93.5346 20.4406 93.6612 20.041 93.9144 19.6929C94.1676 19.3448 94.5078 19.0719 94.935 18.8741C95.3701 18.6684 95.8567 18.5655 96.3947 18.5655C97.7001 18.5655 98.6377 19.0521 99.2073 20.0252L98.3054 20.9153C98.068 20.5276 97.7832 20.2309 97.4509 20.0252C97.1265 19.8195 96.7626 19.7167 96.3591 19.7167C95.9002 19.7167 95.5284 19.8235 95.2436 20.0371C94.9587 20.2428 94.8163 20.5157 94.8163 20.8559C94.8163 21.1961 94.9429 21.4731 95.1961 21.6867C95.4572 21.8924 95.9002 22.0585 96.5253 22.1851C97.3955 22.3671 98.072 22.6598 98.5546 23.0633C99.0372 23.4668 99.2785 23.9534 99.2785 24.523C99.2785 25.3142 99.0056 25.9432 98.4597 26.4099C97.9217 26.8767 97.1859 27.1101 96.2523 27.1101ZM101.557 26.9915V21.9478H100.264V20.761H101.557V19.1708H102.78V20.761H104.228V21.9478H102.78V26.9915H101.557ZM107.524 27.1101C106.86 27.1101 106.33 26.8846 105.934 26.4337C105.538 25.9827 105.341 25.3735 105.341 24.6061V20.761H106.563V24.2738C106.563 24.8197 106.69 25.2509 106.943 25.5674C107.204 25.8838 107.564 26.0421 108.023 26.0421C108.474 26.0421 108.845 25.8996 109.138 25.6148C109.439 25.33 109.589 24.9621 109.589 24.5111V20.761H110.812V26.9915H109.589V25.9946C109.383 26.3269 109.095 26.5959 108.723 26.8016C108.359 27.0073 107.959 27.1101 107.524 27.1101ZM115.125 27.1101C114.555 27.1101 114.045 26.9717 113.594 26.6948C113.151 26.4099 112.799 26.0262 112.538 25.5436C112.277 25.0531 112.146 24.4953 112.146 23.8703C112.146 23.2453 112.273 22.6915 112.526 22.2088C112.787 21.7183 113.139 21.3346 113.582 21.0577C114.025 20.7729 114.528 20.6305 115.089 20.6305C115.501 20.6305 115.888 20.7175 116.252 20.8915C116.624 21.0656 116.921 21.2792 117.142 21.5324V18.2095H118.365V26.9915H117.142V26.137C116.953 26.406 116.672 26.6354 116.3 26.8253C115.928 27.0152 115.536 27.1101 115.125 27.1101ZM115.291 26.0539C115.663 26.0539 115.991 25.959 116.276 25.7691C116.561 25.5792 116.783 25.3221 116.941 24.9977C117.107 24.6654 117.19 24.2896 117.19 23.8703C117.19 23.451 117.107 23.0791 116.941 22.7547C116.783 22.4225 116.561 22.1614 116.276 21.9715C115.991 21.7816 115.663 21.6867 115.291 21.6867C114.919 21.6867 114.591 21.7816 114.306 21.9715C114.021 22.1614 113.796 22.4225 113.63 22.7547C113.471 23.0791 113.392 23.451 113.392 23.8703C113.392 24.2896 113.471 24.6654 113.63 24.9977C113.796 25.3221 114.021 25.5792 114.306 25.7691C114.591 25.959 114.919 26.0539 115.291 26.0539ZM122.955 27.1101C122.314 27.1101 121.745 26.9756 121.246 26.7066C120.756 26.4297 120.368 26.0539 120.083 25.5792C119.806 25.1045 119.668 24.5586 119.668 23.9415C119.668 23.2848 119.802 22.7112 120.071 22.2207C120.348 21.7223 120.724 21.3346 121.199 21.0577C121.681 20.7729 122.231 20.6265 122.848 20.6186C123.386 20.6265 123.869 20.761 124.296 21.0221C124.731 21.2832 125.071 21.6392 125.317 22.0902C125.57 22.5411 125.689 23.0593 125.673 23.6448L125.661 24.167H120.89C120.961 24.7287 121.191 25.1757 121.578 25.508C121.974 25.8324 122.472 25.9946 123.074 25.9946C123.382 25.9946 123.667 25.9432 123.928 25.8403C124.197 25.7375 124.486 25.5515 124.795 25.2825L125.412 26.1489C125.119 26.4337 124.747 26.6671 124.296 26.849C123.845 27.0231 123.398 27.1101 122.955 27.1101ZM122.848 21.746C121.78 21.746 121.143 22.2286 120.938 23.1938H124.427V23.1108C124.403 22.8497 124.316 22.6163 124.166 22.4106C124.015 22.2049 123.825 22.0427 123.596 21.924C123.366 21.8053 123.117 21.746 122.848 21.746ZM127.001 26.9915V20.761H128.224V21.7341C128.429 21.4256 128.718 21.1645 129.09 20.9509C129.47 20.7373 129.861 20.6305 130.265 20.6305C131.689 20.6305 132.401 21.4849 132.401 23.1938V26.9915H131.179V23.2769C131.179 22.2088 130.739 21.6985 129.861 21.746C129.553 21.746 129.272 21.8133 129.019 21.9478C128.773 22.0743 128.58 22.2484 128.437 22.4699C128.295 22.6915 128.224 22.9407 128.224 23.2176V26.9915H127.001ZM134.83 26.9915V21.9478H133.537V20.761H134.83V19.1708H136.053V20.761H137.501V21.9478H136.053V26.9915H134.83Z" fill="white"/>
<g clip-path="url(#clip0_280_991)">
<path d="M140.596 16.447H143.313V17.2337H142.401V19.6308H141.507V17.2337H140.596V16.447ZM143.708 16.447H144.884L145.338 18.3835L145.79 16.447H146.962V19.6303H146.232V17.2029L145.665 19.6303H145.005L144.44 17.2029V19.6303H143.708V16.447Z" fill="white"/>
</g>
<path d="M55.6234 35.8747V35.3972H56.3428V31.8956H55.6234V31.4181H57.5652V31.8956H56.8458V35.3972H57.5652V35.8747H55.6234ZM58.4776 35.8747V32.545H58.9551L58.9679 33.1116C59.0697 32.9333 59.2268 32.7826 59.439 32.6596C59.6555 32.5365 59.8825 32.4749 60.1202 32.4749C60.4895 32.4749 60.7675 32.5895 60.9542 32.8187C61.1452 33.0437 61.2407 33.3875 61.2407 33.8501V35.8747H60.7505V33.8819C60.7505 33.2325 60.4895 32.9142 59.9674 32.9269C59.7722 32.9269 59.5982 32.9694 59.4454 33.0543C59.2968 33.1392 59.178 33.2516 59.0888 33.3917C59.0039 33.5318 58.9615 33.6846 58.9615 33.8501V35.8747H58.4776ZM62.6105 35.8747V33.0097H61.8656V32.545H62.6105V31.6791H63.0944V32.545H63.9284V33.0097H63.0944V35.8747H62.6105ZM65.9605 35.9384C65.6252 35.9384 65.3281 35.8662 65.0692 35.7219C64.8146 35.5776 64.6151 35.376 64.4708 35.1171C64.3265 34.8582 64.2543 34.561 64.2543 34.2257C64.2543 33.8862 64.3243 33.5848 64.4644 33.3217C64.6045 33.0585 64.7997 32.8527 65.0501 32.7041C65.3005 32.5513 65.587 32.4749 65.9096 32.4749C66.2067 32.4749 66.4678 32.545 66.6927 32.685C66.9219 32.8208 67.0981 33.0097 67.2211 33.2516C67.3442 33.4893 67.4015 33.7652 67.393 34.0793L67.3867 34.3021H64.7509C64.7721 34.6629 64.8952 34.9494 65.1202 35.1616C65.3451 35.3739 65.6443 35.48 66.0178 35.48C66.1791 35.48 66.3362 35.4545 66.489 35.4036C66.646 35.3484 66.8179 35.2423 67.0047 35.0852L67.253 35.4354C67.1044 35.5797 66.9155 35.7007 66.6863 35.7983C66.4571 35.8917 66.2152 35.9384 65.9605 35.9384ZM65.9032 32.9333C65.5977 32.9333 65.3451 33.0161 65.1456 33.1816C64.9461 33.3429 64.8209 33.5806 64.77 33.8947H66.9028V33.8565C66.8943 33.7037 66.8498 33.5572 66.7691 33.4172C66.6885 33.2729 66.5739 33.1561 66.4253 33.067C66.281 32.9779 66.107 32.9333 65.9032 32.9333ZM69.4787 37.339C69.2325 37.339 68.9991 37.3008 68.7784 37.2244C68.5619 37.148 68.3794 37.0525 68.2308 36.9379L68.4282 36.5305C68.5555 36.6323 68.7105 36.7172 68.893 36.7851C69.0797 36.853 69.2792 36.887 69.4914 36.887C69.8522 36.887 70.1345 36.7851 70.3382 36.5814C70.5419 36.3819 70.6438 36.0848 70.6438 35.6901V35.2508C70.5419 35.4418 70.3785 35.6052 70.1536 35.741C69.9329 35.8726 69.6909 35.9384 69.4278 35.9384C69.1179 35.9384 68.8399 35.8641 68.5937 35.7155C68.3518 35.567 68.1608 35.3632 68.0207 35.1043C67.8807 34.8412 67.8106 34.5419 67.8106 34.2066C67.8106 33.8756 67.8807 33.5806 68.0207 33.3217C68.1651 33.0585 68.3582 32.8527 68.6001 32.7041C68.8463 32.5513 69.1201 32.4749 69.4214 32.4749C69.6761 32.4749 69.9116 32.5365 70.1281 32.6596C70.3488 32.7826 70.5165 32.9312 70.6311 33.1052L70.6438 32.545H71.1277V35.671C71.1277 36.2015 70.977 36.6111 70.6756 36.8997C70.3743 37.1926 69.9753 37.339 69.4787 37.339ZM69.4851 35.4736C69.71 35.4736 69.9095 35.4205 70.0835 35.3144C70.2618 35.2041 70.4019 35.0534 70.5037 34.8624C70.6056 34.6714 70.6565 34.4528 70.6565 34.2066C70.6565 33.9605 70.6056 33.7419 70.5037 33.5509C70.4019 33.3599 70.2618 33.2092 70.0835 33.0988C69.9095 32.9885 69.71 32.9333 69.4851 32.9333C69.2559 32.9333 69.0521 32.9885 68.8739 33.0988C68.6999 33.2092 68.5619 33.3599 68.46 33.5509C68.3624 33.7419 68.3136 33.9605 68.3136 34.2066C68.3136 34.4486 68.3624 34.6672 68.46 34.8624C68.5619 35.0534 68.6999 35.2041 68.8739 35.3144C69.0521 35.4205 69.2559 35.4736 69.4851 35.4736ZM72.0564 35.8747V32.545H72.5403L72.5467 33.188C72.6358 32.9885 72.7716 32.8208 72.9541 32.685C73.1366 32.545 73.3446 32.4749 73.5781 32.4749C73.6502 32.4749 73.7181 32.4813 73.7818 32.494C73.8455 32.5068 73.8985 32.5195 73.941 32.5322L73.8073 33.0734C73.6969 33.0267 73.5865 33.0033 73.4762 33.0033C73.2852 33.0033 73.1197 33.05 72.9796 33.1434C72.8395 33.2325 72.7313 33.3514 72.6549 33.4999C72.5827 33.6485 72.5467 33.8119 72.5467 33.9902V35.8747H72.0564ZM75.5935 35.9384C75.3049 35.9384 75.0438 35.8641 74.8104 35.7155C74.577 35.5627 74.3923 35.3569 74.2565 35.098C74.1207 34.8348 74.0528 34.5377 74.0528 34.2066C74.0528 33.8713 74.1228 33.5742 74.2629 33.3153C74.4029 33.0522 74.5918 32.8463 74.8295 32.6978C75.0672 32.5492 75.3325 32.4749 75.6253 32.4749C75.8927 32.4749 76.1304 32.5365 76.3384 32.6596C76.5506 32.7826 76.7119 32.9418 76.8223 33.137L76.835 32.545H77.3188V35.8747H76.8286V35.2826C76.7098 35.4694 76.54 35.6264 76.3193 35.7537C76.0986 35.8768 75.8566 35.9384 75.5935 35.9384ZM75.7017 35.4736C75.9224 35.4736 76.1198 35.4205 76.2938 35.3144C76.4678 35.2041 76.6037 35.0534 76.7013 34.8624C76.8032 34.6714 76.8541 34.4507 76.8541 34.2003C76.8541 33.9583 76.8032 33.7419 76.7013 33.5509C76.6037 33.3599 76.4678 33.2113 76.2938 33.1052C76.1198 32.9949 75.9224 32.9397 75.7017 32.9397C75.4768 32.9397 75.2773 32.9949 75.1033 33.1052C74.9335 33.2113 74.7998 33.3599 74.7022 33.5509C74.6045 33.7419 74.5557 33.9583 74.5557 34.2003C74.5557 34.4464 74.6045 34.6672 74.7022 34.8624C74.7998 35.0534 74.9335 35.2041 75.1033 35.3144C75.2773 35.4205 75.4768 35.4736 75.7017 35.4736ZM78.7011 35.8747V33.0097H77.9563V32.545H78.7011V31.6791H79.185V32.545H80.019V33.0097H79.185V35.8747H78.7011ZM82.0512 35.9384C81.7159 35.9384 81.4188 35.8662 81.1599 35.7219C80.9052 35.5776 80.7057 35.376 80.5614 35.1171C80.4171 34.8582 80.3449 34.561 80.3449 34.2257C80.3449 33.8862 80.415 33.5848 80.555 33.3217C80.6951 33.0585 80.8903 32.8527 81.1408 32.7041C81.3912 32.5513 81.6777 32.4749 82.0003 32.4749C82.2974 32.4749 82.5584 32.545 82.7833 32.685C83.0125 32.8208 83.1887 33.0097 83.3118 33.2516C83.4349 33.4893 83.4922 33.7652 83.4837 34.0793L83.4773 34.3021H80.8415C80.8627 34.6629 80.9858 34.9494 81.2108 35.1616C81.4357 35.3739 81.735 35.48 82.1085 35.48C82.2698 35.48 82.4268 35.4545 82.5796 35.4036C82.7367 35.3484 82.9086 35.2423 83.0953 35.0852L83.3436 35.4354C83.1951 35.5797 83.0062 35.7007 82.777 35.7983C82.5478 35.8917 82.3058 35.9384 82.0512 35.9384ZM81.9939 32.9333C81.6883 32.9333 81.4357 33.0161 81.2363 33.1816C81.0368 33.3429 80.9116 33.5806 80.8606 33.8947H82.9934V33.8565C82.985 33.7037 82.9404 33.5572 82.8597 33.4172C82.7791 33.2729 82.6645 33.1561 82.5159 33.067C82.3716 32.9779 82.1976 32.9333 81.9939 32.9333ZM85.524 35.9384C85.2184 35.9384 84.9447 35.8641 84.7027 35.7155C84.465 35.567 84.2762 35.3632 84.1361 35.1043C84.0003 34.8412 83.9324 34.5419 83.9324 34.2066C83.9324 33.8756 84.0024 33.5806 84.1425 33.3217C84.2825 33.0585 84.4714 32.8527 84.7091 32.7041C84.9468 32.5513 85.2142 32.4749 85.5113 32.4749C85.766 32.4749 85.9994 32.5343 86.2116 32.6532C86.4281 32.7678 86.5957 32.91 86.7146 33.0797V31.1634H87.1984V35.8747H86.721L86.7082 35.3144C86.6021 35.4885 86.4408 35.637 86.2244 35.7601C86.0079 35.8789 85.7744 35.9384 85.524 35.9384ZM85.5877 35.4927C85.8084 35.4927 86.0058 35.4375 86.1798 35.3272C86.3538 35.2168 86.4896 35.0661 86.5873 34.8751C86.6891 34.6799 86.7401 34.4571 86.7401 34.2066C86.7401 33.9562 86.6891 33.7355 86.5873 33.5445C86.4896 33.3493 86.3538 33.1965 86.1798 33.0861C86.0058 32.9758 85.8084 32.9206 85.5877 32.9206C85.3627 32.9206 85.1633 32.9758 84.9892 33.0861C84.8152 33.1965 84.6794 33.3493 84.5818 33.5445C84.4841 33.7355 84.4353 33.9562 84.4353 34.2066C84.4353 34.4528 84.4841 34.6735 84.5818 34.8688C84.6794 35.064 84.8152 35.2168 84.9892 35.3272C85.1633 35.4375 85.3627 35.4927 85.5877 35.4927ZM90.1038 35.8747V31.4181H92.8033V31.9083H90.6068V33.3344H92.4467V33.8246H90.6068V35.3845H92.7905V35.8747H90.1038ZM95.0553 35.9384C94.7497 35.9384 94.4759 35.8641 94.234 35.7155C93.9963 35.567 93.8074 35.3632 93.6674 35.1043C93.5316 34.8412 93.4636 34.5419 93.4636 34.2066C93.4636 33.8756 93.5337 33.5806 93.6737 33.3217C93.8138 33.0585 94.0027 32.8527 94.2404 32.7041C94.4781 32.5513 94.7455 32.4749 95.0426 32.4749C95.2972 32.4749 95.5307 32.5343 95.7429 32.6532C95.9594 32.7678 96.127 32.91 96.2459 33.0797V31.1634H96.7297V35.8747H96.2522L96.2395 35.3144C96.1334 35.4885 95.9721 35.637 95.7556 35.7601C95.5392 35.8789 95.3057 35.9384 95.0553 35.9384ZM95.119 35.4927C95.3397 35.4927 95.537 35.4375 95.7111 35.3272C95.8851 35.2168 96.0209 35.0661 96.1185 34.8751C96.2204 34.6799 96.2713 34.4571 96.2713 34.2066C96.2713 33.9562 96.2204 33.7355 96.1185 33.5445C96.0209 33.3493 95.8851 33.1965 95.7111 33.0861C95.537 32.9758 95.3397 32.9206 95.119 32.9206C94.894 32.9206 94.6945 32.9758 94.5205 33.0861C94.3465 33.1965 94.2107 33.3493 94.113 33.5445C94.0154 33.7355 93.9666 33.9562 93.9666 34.2066C93.9666 34.4528 94.0154 34.6735 94.113 34.8688C94.2107 35.064 94.3465 35.2168 94.5205 35.3272C94.6945 35.4375 94.894 35.4927 95.119 35.4927ZM98.937 35.9384C98.555 35.9384 98.2621 35.8238 98.0584 35.5946C97.8547 35.3611 97.7528 35.0237 97.7528 34.5823V32.545H98.243V34.4868C98.243 35.1616 98.521 35.4991 99.0771 35.4991C99.2596 35.4991 99.4251 35.4587 99.5737 35.3781C99.7222 35.2932 99.8389 35.1807 99.9238 35.0407C100.013 34.8964 100.058 34.7372 100.058 34.5632V32.545H100.541V35.8747H100.064L100.045 35.3017C99.9429 35.4842 99.7901 35.637 99.5864 35.7601C99.3827 35.8789 99.1662 35.9384 98.937 35.9384ZM102.872 35.9384C102.558 35.9384 102.277 35.8641 102.031 35.7155C101.785 35.5627 101.59 35.3569 101.445 35.098C101.305 34.8348 101.235 34.5377 101.235 34.2066C101.235 33.8756 101.305 33.5806 101.445 33.3217C101.59 33.0585 101.785 32.8527 102.031 32.7041C102.282 32.5513 102.566 32.4749 102.884 32.4749C103.164 32.4749 103.421 32.5322 103.655 32.6468C103.888 32.7614 104.075 32.9185 104.215 33.1179L103.935 33.4617C103.812 33.3047 103.657 33.1774 103.47 33.0797C103.283 32.9821 103.094 32.9333 102.903 32.9333C102.674 32.9333 102.471 32.9885 102.292 33.0988C102.114 33.2092 101.974 33.3599 101.872 33.5509C101.77 33.7419 101.719 33.9605 101.719 34.2066C101.719 34.4486 101.77 34.6672 101.872 34.8624C101.978 35.0534 102.12 35.2041 102.299 35.3144C102.477 35.4248 102.676 35.48 102.897 35.48C103.288 35.48 103.629 35.3059 103.922 34.9579L104.209 35.3081C104.06 35.4991 103.865 35.6519 103.623 35.7665C103.385 35.8811 103.135 35.9384 102.872 35.9384ZM106.127 35.9384C105.839 35.9384 105.577 35.8641 105.344 35.7155C105.111 35.5627 104.926 35.3569 104.79 35.098C104.654 34.8348 104.586 34.5377 104.586 34.2066C104.586 33.8713 104.656 33.5742 104.797 33.3153C104.937 33.0522 105.125 32.8463 105.363 32.6978C105.601 32.5492 105.866 32.4749 106.159 32.4749C106.426 32.4749 106.664 32.5365 106.872 32.6596C107.084 32.7826 107.246 32.9418 107.356 33.137L107.369 32.545H107.853V35.8747H107.362V35.2826C107.243 35.4694 107.074 35.6264 106.853 35.7537C106.632 35.8768 106.39 35.9384 106.127 35.9384ZM106.235 35.4736C106.456 35.4736 106.653 35.4205 106.827 35.3144C107.002 35.2041 107.137 35.0534 107.235 34.8624C107.337 34.6714 107.388 34.4507 107.388 34.2003C107.388 33.9583 107.337 33.7419 107.235 33.5509C107.137 33.3599 107.002 33.2113 106.827 33.1052C106.653 32.9949 106.456 32.9397 106.235 32.9397C106.01 32.9397 105.811 32.9949 105.637 33.1052C105.467 33.2113 105.333 33.3599 105.236 33.5509C105.138 33.7419 105.089 33.9583 105.089 34.2003C105.089 34.4464 105.138 34.6672 105.236 34.8624C105.333 35.0534 105.467 35.2041 105.637 35.3144C105.811 35.4205 106.01 35.4736 106.235 35.4736ZM109.235 35.8747V33.0097H108.49V32.545H109.235V31.6791H109.719V32.545H110.553V33.0097H109.719V35.8747H109.235ZM111.451 31.8319C111.332 31.8319 111.241 31.8022 111.177 31.7428C111.113 31.6791 111.082 31.5921 111.082 31.4817C111.082 31.3756 111.113 31.2907 111.177 31.2271C111.241 31.1634 111.332 31.1316 111.451 31.1316C111.565 31.1316 111.655 31.1634 111.718 31.2271C111.782 31.2865 111.814 31.3714 111.814 31.4817C111.814 31.5878 111.782 31.6727 111.718 31.7364C111.655 31.8001 111.565 31.8319 111.451 31.8319ZM111.209 35.8747V32.545H111.699V35.8747H111.209ZM114.139 35.9384C113.812 35.9384 113.52 35.8641 113.261 35.7155C113.006 35.5627 112.804 35.3569 112.656 35.098C112.507 34.8348 112.433 34.5356 112.433 34.2003C112.433 33.8692 112.507 33.5742 112.656 33.3153C112.804 33.0522 113.006 32.8463 113.261 32.6978C113.52 32.5492 113.812 32.4749 114.139 32.4749C114.466 32.4749 114.757 32.5492 115.011 32.6978C115.27 32.8463 115.472 33.0522 115.616 33.3153C115.765 33.5742 115.839 33.8692 115.839 34.2003C115.839 34.5356 115.765 34.8348 115.616 35.098C115.472 35.3569 115.27 35.5627 115.011 35.7155C114.757 35.8641 114.466 35.9384 114.139 35.9384ZM114.139 35.48C114.373 35.48 114.578 35.4248 114.757 35.3144C114.939 35.2041 115.081 35.0534 115.183 34.8624C115.285 34.6672 115.336 34.4464 115.336 34.2003C115.336 33.9541 115.285 33.7376 115.183 33.5509C115.081 33.3599 114.939 33.2092 114.757 33.0988C114.578 32.9885 114.373 32.9333 114.139 32.9333C113.906 32.9333 113.698 32.9885 113.515 33.0988C113.333 33.2092 113.191 33.3599 113.089 33.5509C112.987 33.7419 112.936 33.9583 112.936 34.2003C112.936 34.4464 112.987 34.6672 113.089 34.8624C113.191 35.0534 113.333 35.2041 113.515 35.3144C113.698 35.4248 113.906 35.48 114.139 35.48ZM116.536 35.8747V32.545H117.013L117.026 33.1116C117.128 32.9333 117.285 32.7826 117.497 32.6596C117.714 32.5365 117.941 32.4749 118.178 32.4749C118.548 32.4749 118.826 32.5895 119.012 32.8187C119.203 33.0437 119.299 33.3875 119.299 33.8501V35.8747H118.809V33.8819C118.809 33.2325 118.548 32.9142 118.026 32.9269C117.83 32.9269 117.656 32.9694 117.503 33.0543C117.355 33.1392 117.236 33.2516 117.147 33.3917C117.062 33.5318 117.02 33.6846 117.02 33.8501V35.8747H116.536ZM121.509 35.9384C121.22 35.9384 120.959 35.8641 120.726 35.7155C120.492 35.5627 120.308 35.3569 120.172 35.098C120.036 34.8348 119.968 34.5377 119.968 34.2066C119.968 33.8713 120.038 33.5742 120.178 33.3153C120.318 33.0522 120.507 32.8463 120.745 32.6978C120.983 32.5492 121.248 32.4749 121.541 32.4749C121.808 32.4749 122.046 32.5365 122.254 32.6596C122.466 32.7826 122.627 32.9418 122.738 33.137L122.75 32.545H123.234V35.8747H122.744V35.2826C122.625 35.4694 122.456 35.6264 122.235 35.7537C122.014 35.8768 121.772 35.9384 121.509 35.9384ZM121.617 35.4736C121.838 35.4736 122.035 35.4205 122.209 35.3144C122.383 35.2041 122.519 35.0534 122.617 34.8624C122.719 34.6714 122.77 34.4507 122.77 34.2003C122.77 33.9583 122.719 33.7419 122.617 33.5509C122.519 33.3599 122.383 33.2113 122.209 33.1052C122.035 32.9949 121.838 32.9397 121.617 32.9397C121.392 32.9397 121.193 32.9949 121.019 33.1052C120.849 33.2113 120.715 33.3599 120.618 33.5509C120.52 33.7419 120.471 33.9583 120.471 34.2003C120.471 34.4464 120.52 34.6672 120.618 34.8624C120.715 35.0534 120.849 35.2041 121.019 35.3144C121.193 35.4205 121.392 35.4736 121.617 35.4736ZM124.171 35.8747V31.1634H124.655V35.8747H124.171ZM127.57 35.8747V31.4181H129.333C129.567 31.4181 129.777 31.4775 129.964 31.5963C130.15 31.7109 130.299 31.868 130.409 32.0675C130.52 32.2669 130.575 32.4919 130.575 32.7423C130.575 33.0055 130.52 33.241 130.409 33.449C130.299 33.657 130.15 33.8204 129.964 33.9392C129.777 34.0581 129.567 34.1175 129.333 34.1175H128.073V35.8747H127.57ZM128.073 33.6273H129.359C129.49 33.6273 129.607 33.5891 129.709 33.5127C129.815 33.4363 129.9 33.3302 129.964 33.1943C130.027 33.0585 130.059 32.9057 130.059 32.736C130.059 32.5025 129.991 32.3073 129.855 32.1502C129.72 31.9889 129.554 31.9083 129.359 31.9083H128.073V33.6273ZM131.358 35.8747V31.1634H131.842V35.8747H131.358ZM134.018 35.9384C133.73 35.9384 133.469 35.8641 133.235 35.7155C133.002 35.5627 132.817 35.3569 132.681 35.098C132.546 34.8348 132.478 34.5377 132.478 34.2066C132.478 33.8713 132.548 33.5742 132.688 33.3153C132.828 33.0522 133.017 32.8463 133.254 32.6978C133.492 32.5492 133.757 32.4749 134.05 32.4749C134.318 32.4749 134.555 32.5365 134.763 32.6596C134.976 32.7826 135.137 32.9418 135.247 33.137L135.26 32.545H135.744V35.8747H135.254V35.2826C135.135 35.4694 134.965 35.6264 134.744 35.7537C134.523 35.8768 134.282 35.9384 134.018 35.9384ZM134.127 35.4736C134.347 35.4736 134.545 35.4205 134.719 35.3144C134.893 35.2041 135.029 35.0534 135.126 34.8624C135.228 34.6714 135.279 34.4507 135.279 34.2003C135.279 33.9583 135.228 33.7419 135.126 33.5509C135.029 33.3599 134.893 33.2113 134.719 33.1052C134.545 32.9949 134.347 32.9397 134.127 32.9397C133.902 32.9397 133.702 32.9949 133.528 33.1052C133.358 33.2113 133.225 33.3599 133.127 33.5509C133.029 33.7419 132.981 33.9583 132.981 34.2003C132.981 34.4464 133.029 34.6672 133.127 34.8624C133.225 35.0534 133.358 35.2041 133.528 35.3144C133.702 35.4205 133.902 35.4736 134.127 35.4736ZM137.126 35.8747V33.0097H136.381V32.545H137.126V31.6791H137.61V32.545H138.444V33.0097H137.61V35.8747H137.126ZM139.257 35.8747V33.0224H138.665V32.5768H139.257V32.0356C139.257 31.7894 139.337 31.5857 139.499 31.4244C139.66 31.2631 139.874 31.1825 140.142 31.1825C140.278 31.1825 140.401 31.208 140.511 31.2589C140.621 31.3056 140.713 31.3714 140.785 31.4563L140.613 31.8319C140.545 31.764 140.473 31.7152 140.396 31.6855C140.32 31.6515 140.246 31.6345 140.174 31.6345C139.889 31.6345 139.747 31.7703 139.747 32.042V32.5768H140.594V33.0224H139.747V35.8747H139.257ZM142.634 35.9384C142.307 35.9384 142.014 35.8641 141.755 35.7155C141.5 35.5627 141.299 35.3569 141.15 35.098C141.002 34.8348 140.927 34.5356 140.927 34.2003C140.927 33.8692 141.002 33.5742 141.15 33.3153C141.299 33.0522 141.5 32.8463 141.755 32.6978C142.014 32.5492 142.307 32.4749 142.634 32.4749C142.96 32.4749 143.251 32.5492 143.506 32.6978C143.765 32.8463 143.966 33.0522 144.111 33.3153C144.259 33.5742 144.333 33.8692 144.333 34.2003C144.333 34.5356 144.259 34.8348 144.111 35.098C143.966 35.3569 143.765 35.5627 143.506 35.7155C143.251 35.8641 142.96 35.9384 142.634 35.9384ZM142.634 35.48C142.867 35.48 143.073 35.4248 143.251 35.3144C143.434 35.2041 143.576 35.0534 143.678 34.8624C143.78 34.6672 143.83 34.4464 143.83 34.2003C143.83 33.9541 143.78 33.7376 143.678 33.5509C143.576 33.3599 143.434 33.2092 143.251 33.0988C143.073 32.9885 142.867 32.9333 142.634 32.9333C142.4 32.9333 142.192 32.9885 142.01 33.0988C141.827 33.2092 141.685 33.3599 141.583 33.5509C141.481 33.7419 141.43 33.9583 141.43 34.2003C141.43 34.4464 141.481 34.6672 141.583 34.8624C141.685 35.0534 141.827 35.2041 142.01 35.3144C142.192 35.4248 142.4 35.48 142.634 35.48ZM145.03 35.8747V32.545H145.514L145.52 33.188C145.609 32.9885 145.745 32.8208 145.928 32.685C146.11 32.545 146.318 32.4749 146.552 32.4749C146.624 32.4749 146.692 32.4813 146.755 32.494C146.819 32.5068 146.872 32.5195 146.915 32.5322L146.781 33.0734C146.671 33.0267 146.56 33.0033 146.45 33.0033C146.259 33.0033 146.093 33.05 145.953 33.1434C145.813 33.2325 145.705 33.3514 145.629 33.4999C145.556 33.6485 145.52 33.8119 145.52 33.9902V35.8747H145.03ZM147.405 35.8747V32.545H147.889L147.895 33.1179C148.006 32.927 148.163 32.7742 148.366 32.6596C148.57 32.5407 148.791 32.4813 149.028 32.4813C149.266 32.4813 149.468 32.5365 149.633 32.6468C149.803 32.7572 149.93 32.946 150.015 33.2134C150.079 33.0819 150.172 32.9609 150.295 32.8506C150.419 32.7402 150.559 32.6511 150.716 32.5832C150.877 32.5152 151.047 32.4813 151.225 32.4813C151.577 32.4813 151.845 32.5959 152.027 32.8251C152.214 33.05 152.307 33.3981 152.307 33.8692V35.8747H151.817V33.8947C151.817 33.5679 151.755 33.328 151.632 33.1752C151.509 33.0182 151.325 32.9397 151.079 32.9397C150.888 32.9397 150.718 32.9821 150.569 33.067C150.421 33.1519 150.304 33.2644 150.219 33.4044C150.138 33.5445 150.098 33.6973 150.098 33.8628V35.8747H149.608V33.8883C149.608 33.2559 149.362 32.9397 148.869 32.9397C148.683 32.9397 148.515 32.9821 148.366 33.067C148.218 33.1477 148.101 33.258 148.016 33.3981C147.936 33.5381 147.895 33.6909 147.895 33.8565V35.8747H147.405Z" fill="white"/>
<g style="mix-blend-mode:luminosity" clip-path="url(#clip1_280_991)">
<path d="M46.6885 23.3443C46.6885 10.4516 36.237 0 23.3443 0C10.4516 0 0 10.4516 0 23.3443C0 36.237 10.4516 46.6885 23.3443 46.6885C36.237 46.6885 46.6885 36.237 46.6885 23.3443Z" fill="#2196F3"/>
<g filter="url(#filter0_d_280_991)">
<path d="M5.99316 16.2834C5.99316 16.2834 13.8199 20.676 17.5452 23.6335C21.2706 26.591 23.1229 31.4477 23.1229 31.4477C23.1229 31.4477 25.3506 24.8191 29.3851 19.6447C33.4195 14.4703 39.0525 10.9514 39.0525 10.9514C37.7887 10.5388 28.0703 16.4624 22.1821 23.3039C26.528 29.781 26.6096 21.9352 5.99316 16.2834Z" fill="white"/>
</g>
<g filter="url(#filter1_d_280_991)">
<path d="M5.99316 16.2834C5.99316 16.2834 13.8199 20.676 17.5452 23.6335C21.2706 26.591 23.1229 31.4477 23.1229 31.4477C23.1229 31.4477 25.3506 24.8191 29.3851 19.6447C33.4195 14.4703 39.0525 10.9514 39.0525 10.9514C37.7887 10.5388 28.0703 16.4624 22.1821 23.3039C26.528 29.781 26.6096 21.9352 5.99316 16.2834Z" fill="white"/>
</g>
<g filter="url(#filter2_d_280_991)">
<path d="M16.7598 14.1162V16.0314V14.1162Z" fill="#FAFAFA"/>
<path d="M16.7598 14.1162V16.0314" stroke="white" stroke-width="2.12221" stroke-linecap="round"/>
</g>
<path d="M16.7637 14.1126V16.0278" stroke="white" stroke-width="2.12221" stroke-linecap="round"/>
<g filter="url(#filter3_d_280_991)">
<path d="M15.4609 14.4256L19.2785 11.3084L25.7215 11.4439L21.8226 14.4256H15.4609Z" fill="white"/>
</g>
<g filter="url(#filter4_d_280_991)">
<path d="M15.4609 14.4256L19.2785 11.3084L25.7215 11.4439L21.8226 14.4256H15.4609Z" fill="white"/>
</g>
<g filter="url(#filter5_d_280_991)">
<path d="M21.3329 12.3701C21.7686 12.3678 22.2005 12.4513 22.6038 12.6159C23.0072 12.7805 23.3742 13.0229 23.6839 13.3293C23.9936 13.6358 24.2399 14.0002 24.4087 14.4018C24.5775 14.8034 24.6656 15.2344 24.6678 15.67C24.6656 16.1057 24.5775 16.5366 24.4086 16.9382C24.2398 17.3398 23.9935 17.7042 23.6838 18.0107C23.3742 18.3171 23.0072 18.5595 22.6038 18.7241C22.2004 18.8887 21.7686 18.9722 21.3329 18.9699C20.8973 18.9722 20.4655 18.8887 20.0621 18.7241C19.6587 18.5595 19.2917 18.3171 18.982 18.0107C18.6724 17.7042 18.4261 17.3398 18.2572 16.9382C18.0884 16.5366 18.0003 16.1057 17.998 15.67C18.0003 15.2344 18.0884 14.8034 18.2572 14.4018C18.426 14.0002 18.6723 13.6358 18.982 13.3293C19.2917 13.0229 19.6587 12.7805 20.0621 12.6159C20.4654 12.4513 20.8973 12.3678 21.3329 12.3701Z" fill="white"/>
</g>
<g filter="url(#filter6_d_280_991)">
<path d="M21.3329 12.3701C21.7686 12.3678 22.2005 12.4513 22.6038 12.6159C23.0072 12.7805 23.3742 13.0229 23.6839 13.3293C23.9936 13.6358 24.2399 14.0002 24.4087 14.4018C24.5775 14.8034 24.6656 15.2344 24.6678 15.67C24.6656 16.1057 24.5775 16.5366 24.4086 16.9382C24.2398 17.3398 23.9935 17.7042 23.6838 18.0107C23.3742 18.3171 23.0072 18.5595 22.6038 18.7241C22.2004 18.8887 21.7686 18.9722 21.3329 18.9699C20.8973 18.9722 20.4655 18.8887 20.0621 18.7241C19.6587 18.5595 19.2917 18.3171 18.982 18.0107C18.6724 17.7042 18.4261 17.3398 18.2572 16.9382C18.0884 16.5366 18.0003 16.1057 17.998 15.67C18.0003 15.2344 18.0884 14.8034 18.2572 14.4018C18.426 14.0002 18.6723 13.6358 18.982 13.3293C19.2917 13.0229 19.6587 12.7805 20.0621 12.6159C20.4654 12.4513 20.8973 12.3678 21.3329 12.3701Z" fill="white"/>
</g>
<g filter="url(#filter7_d_280_991)">
<path d="M24.2422 32.9203C26.8594 32.0656 29.5435 31.431 32.2665 31.0233C36.5704 30.4047 41.4575 30.4458 41.4575 30.4458L39.2672 29.3556C39.2672 29.3556 35.1158 29.5602 31.3595 30.4514C29.9909 30.7627 28.6404 31.1493 27.3143 31.6092C26.2647 31.9839 25.2388 32.4217 24.2422 32.9203Z" fill="black" stroke="black" stroke-width="0.265276" stroke-linecap="round"/>
</g>
<g filter="url(#filter8_d_280_991)">
<path d="M23.876 32.4945C23.876 32.4945 26.7138 30.8781 31.1303 29.9734C35.5468 29.0687 41.1722 29.0221 41.1722 29.0221L39.1291 27.6012C39.1291 27.6012 34.243 27.8889 30.307 29.1511C28.8231 29.6269 28.1016 29.8693 26.4013 30.7413C24.701 31.6133 23.876 32.4945 23.876 32.4945Z" fill="white"/>
</g>
<g filter="url(#filter9_d_280_991)">
<path d="M23.876 32.4945C23.876 32.4945 26.7138 30.8781 31.1303 29.9734C35.5468 29.0687 41.1722 29.0221 41.1722 29.0221L39.1291 27.6012C39.1291 27.6012 34.243 27.8889 30.307 29.1511C28.8231 29.6269 28.1016 29.8693 26.4013 30.7413C24.701 31.6133 23.876 32.4945 23.876 32.4945Z" fill="white"/>
</g>
<g filter="url(#filter10_d_280_991)">
<path d="M23.4971 31.9951C24.5651 31.1688 25.7174 30.4576 26.9348 29.8732C28.0359 29.3375 29.3893 28.928 30.8336 28.4951C34.9022 27.2756 39.7735 27.117 39.7735 27.117L37.8514 25.6845C37.8514 25.6845 33.8963 25.6662 30.3079 27.244C29.0231 27.8088 27.7512 28.3182 26.663 29.0937C25.4982 29.9342 24.4357 30.9079 23.4971 31.9951Z" fill="white"/>
</g>
<g filter="url(#filter11_d_280_991)">
<path d="M23.4971 31.9951C24.5651 31.1688 25.7174 30.4576 26.9348 29.8732C28.0359 29.3375 29.3893 28.928 30.8336 28.4951C34.9022 27.2756 39.7735 27.117 39.7735 27.117L37.8514 25.6845C37.8514 25.6845 33.8963 25.6662 30.3079 27.244C29.0231 27.8088 27.7512 28.3182 26.663 29.0937C25.4982 29.9342 24.4357 30.9079 23.4971 31.9951Z" fill="white"/>
</g>
<g filter="url(#filter12_d_280_991)">
<path d="M22.1087 32.9203C19.4915 32.0656 16.8074 31.431 14.0845 31.0233C9.78063 30.4047 4.89355 30.4458 4.89355 30.4458L7.08377 29.3556C7.08377 29.3556 11.2352 29.5602 14.9915 30.4514C16.3601 30.7627 17.7106 31.1493 19.0367 31.6092C20.0862 31.9839 21.1121 32.4217 22.1087 32.9203Z" fill="black" stroke="black" stroke-width="0.265276" stroke-linecap="round"/>
</g>
<g filter="url(#filter13_d_280_991)">
<path d="M22.4749 32.4946C22.4749 32.4946 19.6371 30.8781 15.2206 29.9734C10.8041 29.0687 5.17871 29.0222 5.17871 29.0222L7.2214 27.6006C7.2214 27.6006 12.1076 27.8883 16.0435 29.1505C17.5274 29.6263 18.249 29.8687 19.9492 30.7407C21.6495 31.6127 22.4749 32.4946 22.4749 32.4946Z" fill="white"/>
</g>
<g filter="url(#filter14_d_280_991)">
<path d="M22.4749 32.4946C22.4749 32.4946 19.6371 30.8781 15.2206 29.9734C10.8041 29.0687 5.17871 29.0222 5.17871 29.0222L7.2214 27.6006C7.2214 27.6006 12.1076 27.8883 16.0435 29.1505C17.5274 29.6263 18.249 29.8687 19.9492 30.7407C21.6495 31.6127 22.4749 32.4946 22.4749 32.4946Z" fill="white"/>
</g>
<g filter="url(#filter15_d_280_991)">
<path d="M22.8536 31.9951C21.7855 31.1688 20.6332 30.4576 19.4158 29.8732C18.3148 29.3375 16.9614 28.928 15.5171 28.4951C11.4485 27.2756 6.57715 27.117 6.57715 27.117L8.49939 25.6845C8.49939 25.6845 12.4544 25.6662 16.0429 27.244C17.3276 27.8088 18.5996 28.3182 19.6878 29.0937C20.8525 29.9342 21.915 30.908 22.8536 31.9951Z" fill="white"/>
</g>
<g filter="url(#filter16_d_280_991)">
<path d="M22.8536 31.9951C21.7855 31.1688 20.6332 30.4576 19.4158 29.8732C18.3148 29.3375 16.9614 28.928 15.5171 28.4951C11.4485 27.2756 6.57715 27.117 6.57715 27.117L8.49939 25.6845C8.49939 25.6845 12.4544 25.6662 16.0429 27.244C17.3276 27.8088 18.5996 28.3182 19.6878 29.0937C20.8525 29.9342 21.915 30.908 22.8536 31.9951Z" fill="white"/>
</g>
<path d="M23.4122 44.4207C35.0156 44.4207 44.422 35.0143 44.422 23.4108C44.422 11.8074 35.0156 2.401 23.4122 2.401C11.8088 2.401 2.40234 11.8074 2.40234 23.4108C2.40234 35.0143 11.8088 44.4207 23.4122 44.4207Z" stroke="white" stroke-width="5.30552"/>
<g filter="url(#filter17_d_280_991)">
<path d="M25.7452 38.6847H21.2097C20.6204 38.6847 20.1426 39.1625 20.1426 39.7519C20.1426 40.3412 20.6204 40.819 21.2097 40.819H25.7452C26.3346 40.819 26.8124 40.3412 26.8124 39.7519C26.8124 39.1625 26.3346 38.6847 25.7452 38.6847Z" fill="white"/>
</g>
<g filter="url(#filter18_d_280_991)">
<path d="M25.7452 38.6847H21.2097C20.6204 38.6847 20.1426 39.1625 20.1426 39.7519C20.1426 40.3412 20.6204 40.819 21.2097 40.819H25.7452C26.3346 40.819 26.8124 40.3412 26.8124 39.7519C26.8124 39.1625 26.3346 38.6847 25.7452 38.6847Z" fill="white"/>
</g>
<g filter="url(#filter19_d_280_991)">
<path d="M28.9462 34.5495H17.741C17.1516 34.5495 16.6738 35.0273 16.6738 35.6167C16.6738 36.206 17.1516 36.6838 17.741 36.6838H28.9462C29.5356 36.6838 30.0134 36.206 30.0134 35.6167C30.0134 35.0273 29.5356 34.5495 28.9462 34.5495Z" fill="white"/>
</g>
<g filter="url(#filter20_d_280_991)">
<path d="M28.9462 34.5495H17.741C17.1516 34.5495 16.6738 35.0273 16.6738 35.6167C16.6738 36.206 17.1516 36.6838 17.741 36.6838H28.9462C29.5356 36.6838 30.0134 36.206 30.0134 35.6167C30.0134 35.0273 29.5356 34.5495 28.9462 34.5495Z" fill="white"/>
</g>
</g>
<defs>
<filter id="filter0_d_280_991" x="5.99316" y="9.33944" width="41.5484" height="26.8832" filterUnits="userSpaceOnUse" color-interpolation-filters="sRGB">
<feFlood flood-opacity="0" result="BackgroundImageFix"/>
<feColorMatrix in="SourceAlpha" type="matrix" values="0 0 0 0 0 0 0 0 0 0 0 0 0 0 0 0 0 0 127 0" result="hardAlpha"/>
<feOffset dx="5.30552" dy="1.59165"/>
<feGaussianBlur stdDeviation="1.59165"/>
<feColorMatrix type="matrix" values="0 0 0 0 0 0 0 0 0 0 0 0 0 0 0 0 0 0 0.161 0"/>
<feBlend mode="normal" in2="BackgroundImageFix" result="effect1_dropShadow_280_991"/>
<feBlend mode="normal" in="SourceGraphic" in2="effect1_dropShadow_280_991" result="shape"/>
</filter>
<filter id="filter1_d_280_991" x="2.80985" y="9.33944" width="39.4262" height="26.8832" filterUnits="userSpaceOnUse" color-interpolation-filters="sRGB">
<feFlood flood-opacity="0" result="BackgroundImageFix"/>
<feColorMatrix in="SourceAlpha" type="matrix" values="0 0 0 0 0 0 0 0 0 0 0 0 0 0 0 0 0 0 127 0" result="hardAlpha"/>
<feOffset dy="1.59165"/>
<feGaussianBlur stdDeviation="1.59165"/>
<feColorMatrix type="matrix" values="0 0 0 0 0 0 0 0 0 0 0 0 0 0 0 0 0 0 0.161 0"/>
<feBlend mode="normal" in2="BackgroundImageFix" result="effect1_dropShadow_280_991"/>
<feBlend mode="normal" in="SourceGraphic" in2="effect1_dropShadow_280_991" result="shape"/>
</filter>
<filter id="filter2_d_280_991" x="15.1677" y="11.4635" width="8.48967" height="10.404" filterUnits="userSpaceOnUse" color-interpolation-filters="sRGB">
<feFlood flood-opacity="0" result="BackgroundImageFix"/>
<feColorMatrix in="SourceAlpha" type="matrix" values="0 0 0 0 0 0 0 0 0 0 0 0 0 0 0 0 0 0 127 0" result="hardAlpha"/>
<feOffset dx="2.65276" dy="1.59165"/>
<feGaussianBlur stdDeviation="1.59165"/>
<feColorMatrix type="matrix" values="0 0 0 0 0 0 0 0 0 0 0 0 0 0 0 0 0 0 0.161 0"/>
<feBlend mode="normal" in2="BackgroundImageFix" result="effect1_dropShadow_280_991"/>
<feBlend mode="normal" in="SourceGraphic" in2="effect1_dropShadow_280_991" result="shape"/>
</filter>
<filter id="filter3_d_280_991" x="14.9304" y="9.71676" width="16.6274" height="9.48381" filterUnits="userSpaceOnUse" color-interpolation-filters="sRGB">
<feFlood flood-opacity="0" result="BackgroundImageFix"/>
<feColorMatrix in="SourceAlpha" type="matrix" values="0 0 0 0 0 0 0 0 0 0 0 0 0 0 0 0 0 0 127 0" result="hardAlpha"/>
<feOffset dx="2.65276" dy="1.59165"/>
<feGaussianBlur stdDeviation="1.59165"/>
<feColorMatrix type="matrix" values="0 0 0 0 0 0 0 0 0 0 0 0 0 0 0 0 0 0 0.161 0"/>
<feBlend mode="normal" in2="BackgroundImageFix" result="effect1_dropShadow_280_991"/>
<feBlend mode="normal" in="SourceGraphic" in2="effect1_dropShadow_280_991" result="shape"/>
</filter>
<filter id="filter4_d_280_991" x="12.2776" y="9.71676" width="16.6274" height="9.48381" filterUnits="userSpaceOnUse" color-interpolation-filters="sRGB">
<feFlood flood-opacity="0" result="BackgroundImageFix"/>
<feColorMatrix in="SourceAlpha" type="matrix" values="0 0 0 0 0 0 0 0 0 0 0 0 0 0 0 0 0 0 127 0" result="hardAlpha"/>
<feOffset dy="1.59165"/>
<feGaussianBlur stdDeviation="1.59165"/>
<feColorMatrix type="matrix" values="0 0 0 0 0 0 0 0 0 0 0 0 0 0 0 0 0 0 0.161 0"/>
<feBlend mode="normal" in2="BackgroundImageFix" result="effect1_dropShadow_280_991"/>
<feBlend mode="normal" in="SourceGraphic" in2="effect1_dropShadow_280_991" result="shape"/>
</filter>
<filter id="filter5_d_280_991" x="17.4675" y="10.7784" width="13.0365" height="12.9665" filterUnits="userSpaceOnUse" color-interpolation-filters="sRGB">
<feFlood flood-opacity="0" result="BackgroundImageFix"/>
<feColorMatrix in="SourceAlpha" type="matrix" values="0 0 0 0 0 0 0 0 0 0 0 0 0 0 0 0 0 0 127 0" result="hardAlpha"/>
<feOffset dx="2.65276" dy="1.59165"/>
<feGaussianBlur stdDeviation="1.59165"/>
<feColorMatrix type="matrix" values="0 0 0 0 0 0 0 0 0 0 0 0 0 0 0 0 0 0 0.161 0"/>
<feBlend mode="normal" in2="BackgroundImageFix" result="effect1_dropShadow_280_991"/>
<feBlend mode="normal" in="SourceGraphic" in2="effect1_dropShadow_280_991" result="shape"/>
</filter>
<filter id="filter6_d_280_991" x="14.8147" y="10.7784" width="13.0365" height="12.9665" filterUnits="userSpaceOnUse" color-interpolation-filters="sRGB">
<feFlood flood-opacity="0" result="BackgroundImageFix"/>
<feColorMatrix in="SourceAlpha" type="matrix" values="0 0 0 0 0 0 0 0 0 0 0 0 0 0 0 0 0 0 127 0" result="hardAlpha"/>
<feOffset dy="1.59165"/>
<feGaussianBlur stdDeviation="1.59165"/>
<feColorMatrix type="matrix" values="0 0 0 0 0 0 0 0 0 0 0 0 0 0 0 0 0 0 0.161 0"/>
<feBlend mode="normal" in2="BackgroundImageFix" result="effect1_dropShadow_280_991"/>
<feBlend mode="normal" in="SourceGraphic" in2="effect1_dropShadow_280_991" result="shape"/>
</filter>
<filter id="filter7_d_280_991" x="24.1826" y="27.6298" width="31.1283" height="10.1916" filterUnits="userSpaceOnUse" color-interpolation-filters="sRGB">
<feFlood flood-opacity="0" result="BackgroundImageFix"/>
<feColorMatrix in="SourceAlpha" type="matrix" values="0 0 0 0 0 0 0 0 0 0 0 0 0 0 0 0 0 0 127 0" result="hardAlpha"/>
<feOffset dx="10.611" dy="1.59165"/>
<feGaussianBlur stdDeviation="1.59165"/>
<feColorMatrix type="matrix" values="0 0 0 0 0 0 0 0 0 0 0 0 0 0 0 0 0 0 0.161 0"/>
<feBlend mode="normal" in2="BackgroundImageFix" result="effect1_dropShadow_280_991"/>
<feBlend mode="normal" in="SourceGraphic" in2="effect1_dropShadow_280_991" result="shape"/>
</filter>
<filter id="filter8_d_280_991" x="20.6927" y="26.0095" width="23.6625" height="11.26" filterUnits="userSpaceOnUse" color-interpolation-filters="sRGB">
<feFlood flood-opacity="0" result="BackgroundImageFix"/>
<feColorMatrix in="SourceAlpha" type="matrix" values="0 0 0 0 0 0 0 0 0 0 0 0 0 0 0 0 0 0 127 0" result="hardAlpha"/>
<feOffset dy="1.59165"/>
<feGaussianBlur stdDeviation="1.59165"/>
<feColorMatrix type="matrix" values="0 0 0 0 0 0 0 0 0 0 0 0 0 0 0 0 0 0 0.161 0"/>
<feBlend mode="normal" in2="BackgroundImageFix" result="effect1_dropShadow_280_991"/>
<feBlend mode="normal" in="SourceGraphic" in2="effect1_dropShadow_280_991" result="shape"/>
</filter>
<filter id="filter9_d_280_991" x="20.6927" y="26.0095" width="23.6625" height="11.26" filterUnits="userSpaceOnUse" color-interpolation-filters="sRGB">
<feFlood flood-opacity="0" result="BackgroundImageFix"/>
<feColorMatrix in="SourceAlpha" type="matrix" values="0 0 0 0 0 0 0 0 0 0 0 0 0 0 0 0 0 0 127 0" result="hardAlpha"/>
<feOffset dy="1.59165"/>
<feGaussianBlur stdDeviation="1.59165"/>
<feColorMatrix type="matrix" values="0 0 0 0 0 0 0 0 0 0 0 0 0 0 0 0 0 0 0.161 0"/>
<feBlend mode="normal" in2="BackgroundImageFix" result="effect1_dropShadow_280_991"/>
<feBlend mode="normal" in="SourceGraphic" in2="effect1_dropShadow_280_991" result="shape"/>
</filter>
<filter id="filter10_d_280_991" x="20.3138" y="24.0928" width="22.643" height="12.6773" filterUnits="userSpaceOnUse" color-interpolation-filters="sRGB">
<feFlood flood-opacity="0" result="BackgroundImageFix"/>
<feColorMatrix in="SourceAlpha" type="matrix" values="0 0 0 0 0 0 0 0 0 0 0 0 0 0 0 0 0 0 127 0" result="hardAlpha"/>
<feOffset dy="1.59165"/>
<feGaussianBlur stdDeviation="1.59165"/>
<feColorMatrix type="matrix" values="0 0 0 0 0 0 0 0 0 0 0 0 0 0 0 0 0 0 0.161 0"/>
<feBlend mode="normal" in2="BackgroundImageFix" result="effect1_dropShadow_280_991"/>
<feBlend mode="normal" in="SourceGraphic" in2="effect1_dropShadow_280_991" result="shape"/>
</filter>
<filter id="filter11_d_280_991" x="20.3138" y="24.0928" width="22.643" height="12.6773" filterUnits="userSpaceOnUse" color-interpolation-filters="sRGB">
<feFlood flood-opacity="0" result="BackgroundImageFix"/>
<feColorMatrix in="SourceAlpha" type="matrix" values="0 0 0 0 0 0 0 0 0 0 0 0 0 0 0 0 0 0 127 0" result="hardAlpha"/>
<feOffset dy="1.59165"/>
<feGaussianBlur stdDeviation="1.59165"/>
<feColorMatrix type="matrix" values="0 0 0 0 0 0 0 0 0 0 0 0 0 0 0 0 0 0 0.161 0"/>
<feBlend mode="normal" in2="BackgroundImageFix" result="effect1_dropShadow_280_991"/>
<feBlend mode="normal" in="SourceGraphic" in2="effect1_dropShadow_280_991" result="shape"/>
</filter>
<filter id="filter12_d_280_991" x="4.83398" y="27.6298" width="31.1283" height="10.1916" filterUnits="userSpaceOnUse" color-interpolation-filters="sRGB">
<feFlood flood-opacity="0" result="BackgroundImageFix"/>
<feColorMatrix in="SourceAlpha" type="matrix" values="0 0 0 0 0 0 0 0 0 0 0 0 0 0 0 0 0 0 127 0" result="hardAlpha"/>
<feOffset dx="10.611" dy="1.59165"/>
<feGaussianBlur stdDeviation="1.59165"/>
<feColorMatrix type="matrix" values="0 0 0 0 0 0 0 0 0 0 0 0 0 0 0 0 0 0 0.161 0"/>
<feBlend mode="normal" in2="BackgroundImageFix" result="effect1_dropShadow_280_991"/>
<feBlend mode="normal" in="SourceGraphic" in2="effect1_dropShadow_280_991" result="shape"/>
</filter>
<filter id="filter13_d_280_991" x="5.17871" y="26.0089" width="25.7847" height="11.2607" filterUnits="userSpaceOnUse" color-interpolation-filters="sRGB">
<feFlood flood-opacity="0" result="BackgroundImageFix"/>
<feColorMatrix in="SourceAlpha" type="matrix" values="0 0 0 0 0 0 0 0 0 0 0 0 0 0 0 0 0 0 127 0" result="hardAlpha"/>
<feOffset dx="5.30552" dy="1.59165"/>
<feGaussianBlur stdDeviation="1.59165"/>
<feColorMatrix type="matrix" values="0 0 0 0 0 0 0 0 0 0 0 0 0 0 0 0 0 0 0.161 0"/>
<feBlend mode="normal" in2="BackgroundImageFix" result="effect1_dropShadow_280_991"/>
<feBlend mode="normal" in="SourceGraphic" in2="effect1_dropShadow_280_991" result="shape"/>
</filter>
<filter id="filter14_d_280_991" x="1.9954" y="26.0089" width="23.6625" height="11.2607" filterUnits="userSpaceOnUse" color-interpolation-filters="sRGB">
<feFlood flood-opacity="0" result="BackgroundImageFix"/>
<feColorMatrix in="SourceAlpha" type="matrix" values="0 0 0 0 0 0 0 0 0 0 0 0 0 0 0 0 0 0 127 0" result="hardAlpha"/>
<feOffset dy="1.59165"/>
<feGaussianBlur stdDeviation="1.59165"/>
<feColorMatrix type="matrix" values="0 0 0 0 0 0 0 0 0 0 0 0 0 0 0 0 0 0 0.161 0"/>
<feBlend mode="normal" in2="BackgroundImageFix" result="effect1_dropShadow_280_991"/>
<feBlend mode="normal" in="SourceGraphic" in2="effect1_dropShadow_280_991" result="shape"/>
</filter>
<filter id="filter15_d_280_991" x="6.57715" y="24.0928" width="24.7652" height="12.6773" filterUnits="userSpaceOnUse" color-interpolation-filters="sRGB">
<feFlood flood-opacity="0" result="BackgroundImageFix"/>
<feColorMatrix in="SourceAlpha" type="matrix" values="0 0 0 0 0 0 0 0 0 0 0 0 0 0 0 0 0 0 127 0" result="hardAlpha"/>
<feOffset dx="5.30552" dy="1.59165"/>
<feGaussianBlur stdDeviation="1.59165"/>
<feColorMatrix type="matrix" values="0 0 0 0 0 0 0 0 0 0 0 0 0 0 0 0 0 0 0.161 0"/>
<feBlend mode="normal" in2="BackgroundImageFix" result="effect1_dropShadow_280_991"/>
<feBlend mode="normal" in="SourceGraphic" in2="effect1_dropShadow_280_991" result="shape"/>
</filter>
<filter id="filter16_d_280_991" x="3.39384" y="24.0928" width="22.643" height="12.6773" filterUnits="userSpaceOnUse" color-interpolation-filters="sRGB">
<feFlood flood-opacity="0" result="BackgroundImageFix"/>
<feColorMatrix in="SourceAlpha" type="matrix" values="0 0 0 0 0 0 0 0 0 0 0 0 0 0 0 0 0 0 127 0" result="hardAlpha"/>
<feOffset dy="1.59165"/>
<feGaussianBlur stdDeviation="1.59165"/>
<feColorMatrix type="matrix" values="0 0 0 0 0 0 0 0 0 0 0 0 0 0 0 0 0 0 0.161 0"/>
<feBlend mode="normal" in2="BackgroundImageFix" result="effect1_dropShadow_280_991"/>
<feBlend mode="normal" in="SourceGraphic" in2="effect1_dropShadow_280_991" result="shape"/>
</filter>
<filter id="filter17_d_280_991" x="16.9593" y="37.093" width="13.0365" height="8.50096" filterUnits="userSpaceOnUse" color-interpolation-filters="sRGB">
<feFlood flood-opacity="0" result="BackgroundImageFix"/>
<feColorMatrix in="SourceAlpha" type="matrix" values="0 0 0 0 0 0 0 0 0 0 0 0 0 0 0 0 0 0 127 0" result="hardAlpha"/>
<feOffset dy="1.59165"/>
<feGaussianBlur stdDeviation="1.59165"/>
<feColorMatrix type="matrix" values="0 0 0 0 0 0 0 0 0 0 0 0 0 0 0 0 0 0 0.161 0"/>
<feBlend mode="normal" in2="BackgroundImageFix" result="effect1_dropShadow_280_991"/>
<feBlend mode="normal" in="SourceGraphic" in2="effect1_dropShadow_280_991" result="shape"/>
</filter>
<filter id="filter18_d_280_991" x="16.9593" y="37.093" width="13.0365" height="8.50096" filterUnits="userSpaceOnUse" color-interpolation-filters="sRGB">
<feFlood flood-opacity="0" result="BackgroundImageFix"/>
<feColorMatrix in="SourceAlpha" type="matrix" values="0 0 0 0 0 0 0 0 0 0 0 0 0 0 0 0 0 0 127 0" result="hardAlpha"/>
<feOffset dy="1.59165"/>
<feGaussianBlur stdDeviation="1.59165"/>
<feColorMatrix type="matrix" values="0 0 0 0 0 0 0 0 0 0 0 0 0 0 0 0 0 0 0.161 0"/>
<feBlend mode="normal" in2="BackgroundImageFix" result="effect1_dropShadow_280_991"/>
<feBlend mode="normal" in="SourceGraphic" in2="effect1_dropShadow_280_991" result="shape"/>
</filter>
<filter id="filter19_d_280_991" x="13.4905" y="32.9578" width="19.7065" height="8.50096" filterUnits="userSpaceOnUse" color-interpolation-filters="sRGB">
<feFlood flood-opacity="0" result="BackgroundImageFix"/>
<feColorMatrix in="SourceAlpha" type="matrix" values="0 0 0 0 0 0 0 0 0 0 0 0 0 0 0 0 0 0 127 0" result="hardAlpha"/>
<feOffset dy="1.59165"/>
<feGaussianBlur stdDeviation="1.59165"/>
<feColorMatrix type="matrix" values="0 0 0 0 0 0 0 0 0 0 0 0 0 0 0 0 0 0 0.161 0"/>
<feBlend mode="normal" in2="BackgroundImageFix" result="effect1_dropShadow_280_991"/>
<feBlend mode="normal" in="SourceGraphic" in2="effect1_dropShadow_280_991" result="shape"/>
</filter>
<filter id="filter20_d_280_991" x="13.4905" y="32.9578" width="19.7065" height="8.50096" filterUnits="userSpaceOnUse" color-interpolation-filters="sRGB">
<feFlood flood-opacity="0" result="BackgroundImageFix"/>
<feColorMatrix in="SourceAlpha" type="matrix" values="0 0 0 0 0 0 0 0 0 0 0 0 0 0 0 0 0 0 127 0" result="hardAlpha"/>
<feOffset dy="1.59165"/>
<feGaussianBlur stdDeviation="1.59165"/>
<feColorMatrix type="matrix" values="0 0 0 0 0 0 0 0 0 0 0 0 0 0 0 0 0 0 0.161 0"/>
<feBlend mode="normal" in2="BackgroundImageFix" result="effect1_dropShadow_280_991"/>
<feBlend mode="normal" in="SourceGraphic" in2="effect1_dropShadow_280_991" result="shape"/>
</filter>
<clipPath id="clip0_280_991">
<rect width="6.89717" height="3.44859" fill="white" transform="translate(140.596 16.447)"/>
</clipPath>
<clipPath id="clip1_280_991">
<rect width="46.6885" height="46.6885" fill="white"/>
</clipPath>
</defs>
</svg>
