<svg width="237" height="74" viewBox="0 0 237 74" fill="none" xmlns="http://www.w3.org/2000/svg">
<path d="M73.0831 36.5416C73.0831 16.6364 56.9468 0.5 37.0416 0.5C17.1364 0.5 1 16.6364 1 36.5416C1 56.4468 17.1364 72.5831 37.0416 72.5831C56.9468 72.5831 73.0831 56.4468 73.0831 36.5416Z" fill="#2196F3"/>
<g filter="url(#filter0_d_390_651)">
<path d="M10.2537 25.6401C10.2537 25.6401 22.3375 32.4219 28.0891 36.988C33.8407 41.5542 36.7006 49.0525 36.7006 49.0525C36.7006 49.0525 40.1399 38.8185 46.3688 30.8297C52.5976 22.8408 61.2945 17.408 61.2945 17.408C59.3433 16.771 44.3389 25.9165 35.248 36.4791C41.9577 46.4793 42.0837 34.3661 10.2537 25.6401Z" fill="white"/>
</g>
<g filter="url(#filter1_d_390_651)">
<path d="M10.2537 25.6401C10.2537 25.6401 22.3375 32.4219 28.0891 36.988C33.8407 41.5542 36.7006 49.0525 36.7006 49.0525C36.7006 49.0525 40.1399 38.8185 46.3688 30.8297C52.5976 22.8408 61.2945 17.408 61.2945 17.408C59.3433 16.771 44.3389 25.9165 35.248 36.4791C41.9577 46.4793 42.0837 34.3661 10.2537 25.6401Z" fill="white"/>
</g>
<g filter="url(#filter2_d_390_651)">
<path d="M26.8762 22.2936V25.2504V22.2936Z" fill="#FAFAFA"/>
<path d="M26.8762 22.2936V25.2504" stroke="white" stroke-width="3.27651" stroke-linecap="round"/>
</g>
<path d="M26.8815 22.2883V25.2452" stroke="white" stroke-width="3.27651" stroke-linecap="round"/>
<g filter="url(#filter3_d_390_651)">
<path d="M24.8696 22.7712L30.7636 17.9585L40.711 18.1677L34.6915 22.7712H24.8696Z" fill="white"/>
</g>
<g filter="url(#filter4_d_390_651)">
<path d="M24.8696 22.7712L30.7636 17.9585L40.711 18.1677L34.6915 22.7712H24.8696Z" fill="white"/>
</g>
<g filter="url(#filter5_d_390_651)">
<path d="M33.9376 19.5976C34.6102 19.594 35.277 19.723 35.8998 19.9771C36.5225 20.2312 37.0892 20.6055 37.5673 21.0786C38.0454 21.5517 38.4256 22.1143 38.6863 22.7344C38.947 23.3545 39.0829 24.0198 39.0864 24.6924C39.0829 25.365 38.9469 26.0304 38.6862 26.6504C38.4256 27.2704 38.0453 27.8331 37.5672 28.3062C37.0891 28.7792 36.5225 29.1535 35.8997 29.4076C35.2769 29.6617 34.6102 29.7906 33.9376 29.7871C33.265 29.7906 32.5983 29.6617 31.9755 29.4076C31.3528 29.1535 30.7861 28.7792 30.308 28.3062C29.8299 27.8331 29.4497 27.2704 29.189 26.6504C28.9283 26.0304 28.7924 25.365 28.7888 24.6924C28.7923 24.0198 28.9283 23.3545 29.1889 22.7344C29.4496 22.1143 29.8298 21.5517 30.308 21.0786C30.7861 20.6055 31.3527 20.2312 31.9755 19.9771C32.5983 19.723 33.265 19.594 33.9376 19.5976Z" fill="white"/>
</g>
<g filter="url(#filter6_d_390_651)">
<path d="M33.9376 19.5976C34.6102 19.594 35.277 19.723 35.8998 19.9771C36.5225 20.2312 37.0892 20.6055 37.5673 21.0786C38.0454 21.5517 38.4256 22.1143 38.6863 22.7344C38.947 23.3545 39.0829 24.0198 39.0864 24.6924C39.0829 25.365 38.9469 26.0304 38.6862 26.6504C38.4256 27.2704 38.0453 27.8331 37.5672 28.3062C37.0891 28.7792 36.5225 29.1535 35.8997 29.4076C35.2769 29.6617 34.6102 29.7906 33.9376 29.7871C33.265 29.7906 32.5983 29.6617 31.9755 29.4076C31.3528 29.1535 30.7861 28.7792 30.308 28.3062C29.8299 27.8331 29.4497 27.2704 29.189 26.6504C28.9283 26.0304 28.7924 25.365 28.7888 24.6924C28.7923 24.0198 28.9283 23.3545 29.1889 22.7344C29.4496 22.1143 29.8298 21.5517 30.308 21.0786C30.7861 20.6055 31.3527 20.2312 31.9755 19.9771C32.5983 19.723 33.265 19.594 33.9376 19.5976Z" fill="white"/>
</g>
<g filter="url(#filter7_d_390_651)">
<path d="M38.4279 51.3259C42.4687 50.0062 46.6128 49.0265 50.8167 48.3971C57.4616 47.4421 65.0068 47.5055 65.0068 47.5055L61.6253 45.8223C61.6253 45.8223 55.2159 46.1382 49.4165 47.5142C47.3034 47.9948 45.2184 48.5915 43.171 49.3016C41.5506 49.8801 39.9667 50.5561 38.4279 51.3259Z" fill="black" stroke="black" stroke-width="0.409563" stroke-linecap="round"/>
</g>
<g filter="url(#filter8_d_390_651)">
<path d="M37.8632 50.6688C37.8632 50.6688 42.2446 48.1731 49.0633 46.7763C55.8819 45.3796 64.5671 45.3077 64.5671 45.3077L61.4128 43.1139C61.4128 43.1139 53.869 43.5581 47.7921 45.5068C45.5011 46.2415 44.3872 46.6157 41.7621 47.962C39.137 49.3083 37.8632 50.6688 37.8632 50.6688Z" fill="white"/>
</g>
<g filter="url(#filter9_d_390_651)">
<path d="M37.8632 50.6688C37.8632 50.6688 42.2446 48.1731 49.0633 46.7763C55.8819 45.3796 64.5671 45.3077 64.5671 45.3077L61.4128 43.1139C61.4128 43.1139 53.869 43.5581 47.7921 45.5068C45.5011 46.2415 44.3872 46.6157 41.7621 47.962C39.137 49.3083 37.8632 50.6688 37.8632 50.6688Z" fill="white"/>
</g>
<g filter="url(#filter10_d_390_651)">
<path d="M37.2784 49.8977C38.9274 48.6219 40.7064 47.5238 42.586 46.6217C44.286 45.7946 46.3756 45.1623 48.6054 44.494C54.8869 42.6112 62.4079 42.3663 62.4079 42.3663L59.4403 40.1546C59.4403 40.1546 53.334 40.1263 47.7937 42.5623C45.8102 43.4343 43.8465 44.2209 42.1663 45.4181C40.368 46.7158 38.7276 48.2192 37.2784 49.8977Z" fill="white"/>
</g>
<g filter="url(#filter11_d_390_651)">
<path d="M37.2784 49.8977C38.9274 48.6219 40.7064 47.5238 42.586 46.6217C44.286 45.7946 46.3756 45.1623 48.6054 44.494C54.8869 42.6112 62.4079 42.3663 62.4079 42.3663L59.4403 40.1546C59.4403 40.1546 53.334 40.1263 47.7937 42.5623C45.8102 43.4343 43.8465 44.2209 42.1663 45.4181C40.368 46.7158 38.7276 48.2192 37.2784 49.8977Z" fill="white"/>
</g>
<g filter="url(#filter12_d_390_651)">
<path d="M35.1341 51.3259C31.0934 50.0062 26.9494 49.0265 22.7455 48.3971C16.1007 47.4421 8.55542 47.5055 8.55542 47.5055L11.9369 45.8223C11.9369 45.8223 18.3464 46.1382 24.1458 47.5142C26.2588 47.9948 28.3438 48.5915 30.3912 49.3016C32.0116 49.8801 33.5954 50.5561 35.1341 51.3259Z" fill="black" stroke="black" stroke-width="0.409563" stroke-linecap="round"/>
</g>
<g filter="url(#filter13_d_390_651)">
<path d="M35.6993 50.6684C35.6993 50.6684 31.3178 48.1726 24.4992 46.7759C17.6805 45.3791 8.99536 45.3072 8.99536 45.3072L12.1491 43.1124C12.1491 43.1124 19.6929 43.5567 25.7697 45.5054C28.0607 46.24 29.1747 46.6142 31.7998 47.9605C34.4248 49.3068 35.6993 50.6684 35.6993 50.6684Z" fill="white"/>
</g>
<g filter="url(#filter14_d_390_651)">
<path d="M35.6993 50.6684C35.6993 50.6684 31.3178 48.1726 24.4992 46.7759C17.6805 45.3791 8.99536 45.3072 8.99536 45.3072L12.1491 43.1124C12.1491 43.1124 19.6929 43.5567 25.7697 45.5054C28.0607 46.24 29.1747 46.6142 31.7998 47.9605C34.4248 49.3068 35.6993 50.6684 35.6993 50.6684Z" fill="white"/>
</g>
<g filter="url(#filter15_d_390_651)">
<path d="M36.2838 49.8977C34.6348 48.6219 32.8558 47.5238 30.9762 46.6217C29.2763 45.7946 27.1867 45.1623 24.9569 44.494C18.6753 42.6112 11.1544 42.3663 11.1544 42.3663L14.1221 40.1546C14.1221 40.1546 20.2284 40.1263 25.7687 42.5623C27.7522 43.4343 29.716 44.2209 31.3961 45.4181C33.1943 46.7158 34.8346 48.2192 36.2838 49.8977Z" fill="white"/>
</g>
<g filter="url(#filter16_d_390_651)">
<path d="M36.2838 49.8977C34.6348 48.6219 32.8558 47.5238 30.9762 46.6217C29.2763 45.7946 27.1867 45.1623 24.9569 44.494C18.6753 42.6112 11.1544 42.3663 11.1544 42.3663L14.1221 40.1546C14.1221 40.1546 20.2284 40.1263 25.7687 42.5623C27.7522 43.4343 29.716 44.2209 31.3961 45.4181C33.1943 46.7158 34.8346 48.2192 36.2838 49.8977Z" fill="white"/>
</g>
<path d="M37.1462 69.082C55.0609 69.082 69.5836 54.5593 69.5836 36.6446C69.5836 18.7299 55.0609 4.20715 37.1462 4.20715C19.2315 4.20715 4.7088 18.7299 4.7088 36.6446C4.7088 54.5593 19.2315 69.082 37.1462 69.082Z" stroke="white" stroke-width="8.19127"/>
<g filter="url(#filter17_d_390_651)">
<path d="M40.7488 60.2261H33.7464C32.8365 60.2261 32.0988 60.9637 32.0988 61.8737C32.0988 62.7836 32.8365 63.5213 33.7464 63.5213H40.7488C41.6587 63.5213 42.3964 62.7836 42.3964 61.8737C42.3964 60.9637 41.6587 60.2261 40.7488 60.2261Z" fill="white"/>
</g>
<g filter="url(#filter18_d_390_651)">
<path d="M40.7488 60.2261H33.7464C32.8365 60.2261 32.0988 60.9637 32.0988 61.8737C32.0988 62.7836 32.8365 63.5213 33.7464 63.5213H40.7488C41.6587 63.5213 42.3964 62.7836 42.3964 61.8737C42.3964 60.9637 41.6587 60.2261 40.7488 60.2261Z" fill="white"/>
</g>
<g filter="url(#filter19_d_390_651)">
<path d="M45.6908 53.8417H28.3909C27.4809 53.8417 26.7433 54.5793 26.7433 55.4893C26.7433 56.3992 27.4809 57.1369 28.3909 57.1369H45.6908C46.6008 57.1369 47.3385 56.3992 47.3385 55.4893C47.3385 54.5793 46.6008 53.8417 45.6908 53.8417Z" fill="white"/>
</g>
<g filter="url(#filter20_d_390_651)">
<path d="M45.6908 53.8417H28.3909C27.4809 53.8417 26.7433 54.5793 26.7433 55.4893C26.7433 56.3992 27.4809 57.1369 28.3909 57.1369H45.6908C46.6008 57.1369 47.3385 56.3992 47.3385 55.4893C47.3385 54.5793 46.6008 53.8417 45.6908 53.8417Z" fill="white"/>
</g>
<path d="M91.9939 42.7411C90.6747 42.7411 89.5693 42.5151 88.6776 42.0632C87.7859 41.6112 87.0224 40.9821 86.3873 40.1759L88.3661 37.9406C88.9768 38.7468 89.5937 39.2904 90.2167 39.5713C90.8518 39.8522 91.487 39.9927 92.1222 39.9927C92.5986 39.9927 92.9895 39.9072 93.2948 39.7362C93.6002 39.5652 93.7529 39.3087 93.7529 38.9667C93.7529 38.6735 93.6246 38.4292 93.3681 38.2338C93.1238 38.0383 92.8123 37.8856 92.4337 37.7757C92.055 37.6535 91.6702 37.5497 91.2794 37.4642C89.8624 37.1588 88.8058 36.6764 88.1096 36.0167C87.4133 35.3571 87.0652 34.4838 87.0652 33.3966C87.0652 32.6027 87.2912 31.9125 87.7431 31.3262C88.2073 30.7277 88.8119 30.2635 89.557 29.9337C90.3022 29.5917 91.1022 29.4207 91.9573 29.4207C93.2521 29.4207 94.2781 29.6222 95.0355 30.0253C95.7928 30.4162 96.4035 30.9536 96.8677 31.6377L94.8706 33.5615C94.4797 33.1096 94.0461 32.7737 93.5697 32.5538C93.0933 32.3217 92.5986 32.2057 92.0855 32.2057C91.5725 32.2057 91.1633 32.2912 90.8579 32.4622C90.5526 32.6332 90.3999 32.8836 90.3999 33.2134C90.3999 33.4699 90.5037 33.6837 90.7114 33.8547C90.9312 34.0257 91.2061 34.1662 91.5359 34.2761C91.8657 34.3738 92.2077 34.4593 92.5619 34.5326C93.4536 34.7036 94.2354 34.954 94.9072 35.2838C95.5912 35.6136 96.1226 36.0473 96.5013 36.5847C96.8799 37.11 97.0693 37.7635 97.0693 38.5452C97.0693 39.4492 96.8494 40.2126 96.4096 40.8356C95.9699 41.4585 95.3653 41.9349 94.5957 42.2647C93.8384 42.5823 92.9711 42.7411 91.9939 42.7411ZM99.0255 42.5579V32.8103H101.957L102.03 34.0196C102.824 33.0913 103.747 32.6271 104.797 32.6271C105.432 32.6271 105.97 32.7553 106.409 33.0119C106.861 33.2684 107.258 33.7203 107.6 34.3677C108.028 33.7692 108.529 33.3294 109.103 33.0485C109.689 32.7676 110.3 32.6271 110.935 32.6271C112.047 32.6271 112.896 32.9691 113.482 33.6531C114.068 34.325 114.361 35.3083 114.361 36.6031V42.5579H111.247V36.8413C111.247 35.7663 110.788 35.2289 109.872 35.2289C109.396 35.2289 109.005 35.3755 108.7 35.6686C108.394 35.9618 108.242 36.3221 108.242 36.7496V42.5579H105.127V36.8413C105.127 36.316 105.005 35.919 104.76 35.6503C104.528 35.3694 104.199 35.2289 103.771 35.2289C103.295 35.2289 102.904 35.3755 102.598 35.6686C102.293 35.9496 102.14 36.3099 102.14 36.7496V42.5579H99.0255ZM120.348 42.7228C119.542 42.7228 118.815 42.509 118.168 42.0815C117.533 41.6417 117.026 41.0432 116.647 40.2859C116.281 39.5163 116.097 38.643 116.097 37.6658C116.097 36.6764 116.281 35.803 116.647 35.0457C117.026 34.2883 117.539 33.6959 118.186 33.2684C118.846 32.8286 119.597 32.6088 120.44 32.6088C121.075 32.6088 121.631 32.7309 122.107 32.9752C122.584 33.2195 122.981 33.5371 123.298 33.928V32.8103H126.358V42.5579H123.225V41.4402C122.895 41.8189 122.486 42.1303 121.997 42.3746C121.509 42.6067 120.959 42.7228 120.348 42.7228ZM121.228 40.1393C121.875 40.1393 122.382 39.9194 122.748 39.4797C123.127 39.0277 123.316 38.4231 123.316 37.6658C123.316 36.9207 123.127 36.3282 122.748 35.8885C122.382 35.4365 121.875 35.2106 121.228 35.2106C120.593 35.2106 120.086 35.4365 119.707 35.8885C119.34 36.3282 119.157 36.9207 119.157 37.6658C119.157 38.4231 119.34 39.0277 119.707 39.4797C120.086 39.9194 120.593 40.1393 121.228 40.1393ZM128.961 42.5579V32.8103H131.893L131.947 34.2578C132.277 33.7692 132.693 33.3722 133.193 33.0668C133.706 32.7615 134.25 32.6088 134.824 32.6088C135.032 32.6088 135.233 32.6271 135.429 32.6637C135.624 32.7004 135.801 32.7431 135.96 32.792L135.117 36.2183C134.983 36.145 134.8 36.0778 134.568 36.0167C134.336 35.9435 134.085 35.9068 133.816 35.9068C133.303 35.9068 132.882 36.0778 132.552 36.4198C132.235 36.7619 132.076 37.2077 132.076 37.7574V42.5579H128.961ZM138.533 42.5579V35.5037H136.847V32.8103H138.533V30.3551H141.648V32.8103H143.462V35.5037H141.648V42.5579H138.533ZM148.086 42.5579V31.143H144.403V29.7321H153.326V31.143H149.533V42.5579H148.086ZM157.618 42.7411C156.653 42.7411 155.798 42.5334 155.053 42.1181C154.32 41.7028 153.746 41.1226 153.331 40.3775C152.915 39.6324 152.708 38.7773 152.708 37.8123C152.708 36.8351 152.909 35.9679 153.312 35.2106C153.716 34.4532 154.277 33.8608 154.998 33.4333C155.719 32.9935 156.543 32.7737 157.472 32.7737C158.327 32.7737 159.078 32.9752 159.725 33.3783C160.385 33.7692 160.892 34.3128 161.246 35.009C161.6 35.693 161.765 36.487 161.741 37.3909L161.722 38.0322H154.137C154.198 39.0705 154.552 39.895 155.2 40.5057C155.847 41.1165 156.708 41.4219 157.783 41.4219C158.247 41.4219 158.699 41.3486 159.139 41.202C159.591 41.0432 160.086 40.7378 160.623 40.2859L161.338 41.2936C160.91 41.7089 160.367 42.057 159.707 42.338C159.047 42.6067 158.351 42.7411 157.618 42.7411ZM157.453 34.0929C156.574 34.0929 155.847 34.3311 155.273 34.8075C154.699 35.2716 154.339 35.9557 154.192 36.8596H160.33V36.7496C160.306 36.3099 160.177 35.8885 159.945 35.4854C159.713 35.0701 159.383 34.7342 158.956 34.4777C158.54 34.2211 158.04 34.0929 157.453 34.0929ZM167.448 42.7411C166.617 42.7411 165.866 42.5273 165.194 42.0998C164.522 41.6601 163.991 41.0676 163.6 40.3225C163.209 39.5652 163.014 38.7101 163.014 37.7574C163.014 36.7924 163.215 35.9373 163.618 35.1922C164.022 34.4349 164.565 33.8425 165.249 33.415C165.933 32.9874 166.697 32.7737 167.539 32.7737C168.309 32.7737 168.993 32.9508 169.592 33.305C170.202 33.6593 170.666 34.1173 170.984 34.6792L171.021 32.9752H172.413V42.5579H171.002V40.8539C170.66 41.3913 170.172 41.8433 169.537 42.2097C168.901 42.564 168.205 42.7411 167.448 42.7411ZM167.759 41.4035C168.394 41.4035 168.962 41.2509 169.463 40.9455C169.964 40.6279 170.355 40.1943 170.636 39.6446C170.929 39.0949 171.076 38.4597 171.076 37.7391C171.076 37.0428 170.929 36.4198 170.636 35.8702C170.355 35.3205 169.964 34.893 169.463 34.5876C168.962 34.27 168.394 34.1112 167.759 34.1112C167.112 34.1112 166.538 34.27 166.037 34.5876C165.548 34.893 165.164 35.3205 164.883 35.8702C164.602 36.4198 164.461 37.0428 164.461 37.7391C164.461 38.4475 164.602 39.0827 164.883 39.6446C165.164 40.1943 165.548 40.6279 166.037 40.9455C166.538 41.2509 167.112 41.4035 167.759 41.4035ZM179.103 42.7411C178.199 42.7411 177.393 42.5273 176.684 42.0998C175.976 41.6601 175.414 41.0676 174.999 40.3225C174.596 39.5652 174.394 38.7101 174.394 37.7574C174.394 36.8046 174.596 35.9557 174.999 35.2106C175.414 34.4532 175.976 33.8608 176.684 33.4333C177.405 32.9935 178.224 32.7737 179.14 32.7737C179.946 32.7737 180.685 32.9386 181.357 33.2684C182.029 33.5982 182.566 34.0501 182.969 34.6242L182.163 35.6136C181.809 35.1617 181.363 34.7952 180.825 34.5143C180.288 34.2334 179.744 34.0929 179.195 34.0929C178.535 34.0929 177.949 34.2517 177.436 34.5693C176.923 34.8869 176.52 35.3205 176.226 35.8702C175.933 36.4198 175.787 37.0489 175.787 37.7574C175.787 38.4536 175.933 39.0827 176.226 39.6446C176.532 40.1943 176.941 40.6279 177.454 40.9455C177.967 41.2631 178.541 41.4219 179.176 41.4219C180.3 41.4219 181.283 40.9211 182.126 39.9194L182.951 40.9272C182.523 41.4768 181.961 41.9166 181.265 42.2464C180.581 42.5762 179.86 42.7411 179.103 42.7411ZM184.734 42.5579V28.9992H186.127V34.6792C186.444 34.1173 186.909 33.6593 187.519 33.305C188.13 32.9508 188.759 32.7737 189.407 32.7737C190.506 32.7737 191.324 33.1035 191.862 33.7631C192.411 34.4105 192.686 35.3999 192.686 36.7313V42.5579H191.275V36.8229C191.275 34.9663 190.518 34.0501 189.003 34.0746C188.454 34.0746 187.959 34.1967 187.519 34.441C187.092 34.6853 186.75 35.009 186.493 35.4121C186.249 35.8152 186.127 36.2549 186.127 36.7313V42.5579H184.734ZM199.542 42.7411C198.577 42.7411 197.722 42.5334 196.976 42.1181C196.244 41.7028 195.669 41.1226 195.254 40.3775C194.839 39.6324 194.631 38.7773 194.631 37.8123C194.631 36.8351 194.833 35.9679 195.236 35.2106C195.639 34.4532 196.201 33.8608 196.922 33.4333C197.642 32.9935 198.467 32.7737 199.395 32.7737C200.25 32.7737 201.001 32.9752 201.649 33.3783C202.308 33.7692 202.815 34.3128 203.169 35.009C203.524 35.693 203.689 36.487 203.664 37.3909L203.646 38.0322H196.06C196.121 39.0705 196.476 39.895 197.123 40.5057C197.77 41.1165 198.632 41.4219 199.707 41.4219C200.171 41.4219 200.623 41.3486 201.062 41.202C201.514 41.0432 202.009 40.7378 202.546 40.2859L203.261 41.2936C202.834 41.7089 202.29 42.057 201.63 42.338C200.971 42.6067 200.275 42.7411 199.542 42.7411ZM199.377 34.0929C198.497 34.0929 197.77 34.3311 197.196 34.8075C196.622 35.2716 196.262 35.9557 196.115 36.8596H202.253V36.7496C202.229 36.3099 202.101 35.8885 201.869 35.4854C201.636 35.0701 201.307 34.7342 200.879 34.4777C200.464 34.2211 199.963 34.0929 199.377 34.0929ZM205.633 42.5579V32.9752H207.026L207.044 34.8258C207.301 34.2517 207.692 33.7692 208.217 33.3783C208.742 32.9752 209.341 32.7737 210.012 32.7737C210.22 32.7737 210.416 32.792 210.599 32.8286C210.782 32.8653 210.935 32.9019 211.057 32.9386L210.672 34.496C210.354 34.3616 210.037 34.2944 209.719 34.2944C209.17 34.2944 208.693 34.4288 208.29 34.6975C207.887 34.954 207.576 35.2961 207.356 35.7236C207.148 36.1511 207.044 36.6214 207.044 37.1344V42.5579H205.633Z" fill="white"/>
<path d="M218.068 25.8927H222.264V27.1073H220.856V30.8083H219.476V27.1073H218.068V25.8927ZM222.874 25.8927H224.689L225.39 28.8826L226.089 25.8927H227.898V30.8075H226.77V27.0598L225.896 30.8075H224.876L224.004 27.0598V30.8075H222.874V25.8927Z" fill="white"/>
<path d="M86.8771 56.3604V55.6231H87.9878V50.2169H86.8771V49.4797H89.8751V50.2169H88.7644V55.6231H89.8751V56.3604H86.8771ZM91.2838 56.3604V51.2195H92.021L92.0407 52.0943C92.1979 51.8191 92.4404 51.5865 92.768 51.3964C93.1022 51.2064 93.4528 51.1114 93.8198 51.1114C94.3899 51.1114 94.8191 51.2883 95.1075 51.6422C95.4024 51.9895 95.5498 52.5203 95.5498 53.2346V56.3604H94.7929V53.2837C94.7929 52.2811 94.3899 51.7896 93.5839 51.8093C93.2825 51.8093 93.0138 51.8748 92.7779 52.0059C92.5485 52.1369 92.365 52.3106 92.2274 52.5268C92.0964 52.7431 92.0308 52.979 92.0308 53.2346V56.3604H91.2838ZM97.6646 56.3604V51.9371H96.5146V51.2195H97.6646V49.8827H98.4116V51.2195H99.6993V51.9371H98.4116V56.3604H97.6646ZM102.837 56.4586C102.319 56.4586 101.86 56.3472 101.461 56.1244C101.067 55.9016 100.759 55.5904 100.537 55.1906C100.314 54.7909 100.202 54.3322 100.202 53.8145C100.202 53.2903 100.311 52.825 100.527 52.4187C100.743 52.0124 101.045 51.6946 101.431 51.4653C101.818 51.2293 102.26 51.1114 102.758 51.1114C103.217 51.1114 103.62 51.2195 103.967 51.4358C104.321 51.6455 104.593 51.9371 104.783 52.3106C104.973 52.6776 105.062 53.1035 105.048 53.5884L105.039 53.9325H100.969C101.002 54.4895 101.192 54.9318 101.539 55.2594C101.887 55.5871 102.349 55.7509 102.925 55.7509C103.174 55.7509 103.417 55.7116 103.653 55.633C103.895 55.5478 104.16 55.384 104.449 55.1415L104.832 55.6821C104.603 55.9049 104.311 56.0917 103.957 56.2424C103.603 56.3866 103.23 56.4586 102.837 56.4586ZM102.748 51.8191C102.276 51.8191 101.887 51.9469 101.579 52.2025C101.271 52.4515 101.077 52.8184 100.999 53.3034H104.292V53.2444C104.278 53.0085 104.21 52.7824 104.085 52.5662C103.961 52.3434 103.784 52.1631 103.554 52.0255C103.332 51.8879 103.063 51.8191 102.748 51.8191ZM108.269 58.6211C107.888 58.6211 107.528 58.5622 107.187 58.4442C106.853 58.3263 106.571 58.1788 106.342 58.0019L106.647 57.3728C106.843 57.5301 107.082 57.6611 107.364 57.766C107.653 57.8708 107.961 57.9232 108.288 57.9232C108.845 57.9232 109.281 57.766 109.595 57.4514C109.91 57.1434 110.067 56.6847 110.067 56.0753V55.3971C109.91 55.6919 109.658 55.9442 109.31 56.1539C108.97 56.3571 108.596 56.4586 108.19 56.4586C107.712 56.4586 107.282 56.344 106.902 56.1146C106.529 55.8853 106.234 55.5707 106.018 55.171C105.801 54.7647 105.693 54.3027 105.693 53.785C105.693 53.2739 105.801 52.8184 106.018 52.4187C106.24 52.0124 106.539 51.6946 106.912 51.4653C107.292 51.2293 107.715 51.1114 108.18 51.1114C108.573 51.1114 108.937 51.2064 109.271 51.3964C109.612 51.5865 109.871 51.8158 110.048 52.0845L110.067 51.2195H110.814V56.0458C110.814 56.8649 110.582 57.4973 110.116 57.9429C109.651 58.3951 109.035 58.6211 108.269 58.6211ZM108.278 55.7411C108.626 55.7411 108.934 55.6592 109.202 55.4954C109.478 55.325 109.694 55.0923 109.851 54.7975C110.008 54.5026 110.087 54.1651 110.087 53.785C110.087 53.4049 110.008 53.0675 109.851 52.7726C109.694 52.4777 109.478 52.2451 109.202 52.0747C108.934 51.9043 108.626 51.8191 108.278 51.8191C107.924 51.8191 107.61 51.9043 107.335 52.0747C107.066 52.2451 106.853 52.4777 106.696 52.7726C106.545 53.0675 106.47 53.4049 106.47 53.785C106.47 54.1585 106.545 54.496 106.696 54.7975C106.853 55.0923 107.066 55.325 107.335 55.4954C107.61 55.6592 107.924 55.7411 108.278 55.7411ZM112.248 56.3604V51.2195H112.995L113.005 52.2123C113.143 51.9043 113.352 51.6455 113.634 51.4358C113.916 51.2195 114.237 51.1114 114.598 51.1114C114.709 51.1114 114.814 51.1212 114.912 51.1409C115.01 51.1605 115.092 51.1802 115.158 51.1999L114.951 52.0354C114.781 51.9633 114.611 51.9272 114.44 51.9272C114.145 51.9272 113.89 51.9993 113.674 52.1435C113.457 52.2811 113.29 52.4646 113.172 52.6939C113.061 52.9233 113.005 53.1756 113.005 53.4508V56.3604H112.248ZM117.709 56.4586C117.264 56.4586 116.861 56.344 116.5 56.1146C116.14 55.8787 115.855 55.5609 115.645 55.1612C115.435 54.7549 115.33 54.2962 115.33 53.785C115.33 53.2673 115.439 52.8086 115.655 52.4089C115.871 52.0026 116.163 51.6848 116.53 51.4554C116.897 51.2261 117.306 51.1114 117.758 51.1114C118.171 51.1114 118.538 51.2064 118.859 51.3964C119.187 51.5865 119.436 51.8322 119.606 52.1337L119.626 51.2195H120.373V56.3604H119.616V55.4462C119.433 55.7345 119.171 55.977 118.83 56.1736C118.489 56.3636 118.116 56.4586 117.709 56.4586ZM117.876 55.7411C118.217 55.7411 118.522 55.6592 118.79 55.4954C119.059 55.325 119.269 55.0923 119.42 54.7975C119.577 54.5026 119.655 54.1618 119.655 53.7752C119.655 53.4017 119.577 53.0675 119.42 52.7726C119.269 52.4777 119.059 52.2483 118.79 52.0845C118.522 51.9141 118.217 51.8289 117.876 51.8289C117.529 51.8289 117.221 51.9141 116.952 52.0845C116.69 52.2483 116.484 52.4777 116.333 52.7726C116.182 53.0675 116.107 53.4017 116.107 53.7752C116.107 54.1553 116.182 54.496 116.333 54.7975C116.484 55.0923 116.69 55.325 116.952 55.4954C117.221 55.6592 117.529 55.7411 117.876 55.7411ZM122.507 56.3604V51.9371H121.357V51.2195H122.507V49.8827H123.254V51.2195H124.542V51.9371H123.254V56.3604H122.507ZM127.679 56.4586C127.162 56.4586 126.703 56.3472 126.303 56.1244C125.91 55.9016 125.602 55.5904 125.379 55.1906C125.156 54.7909 125.045 54.3322 125.045 53.8145C125.045 53.2903 125.153 52.825 125.369 52.4187C125.586 52.0124 125.887 51.6946 126.274 51.4653C126.66 51.2293 127.103 51.1114 127.601 51.1114C128.059 51.1114 128.462 51.2195 128.81 51.4358C129.164 51.6455 129.436 51.9371 129.626 52.3106C129.816 52.6776 129.904 53.1035 129.891 53.5884L129.881 53.9325H125.812C125.845 54.4895 126.035 54.9318 126.382 55.2594C126.729 55.5871 127.191 55.7509 127.768 55.7509C128.017 55.7509 128.259 55.7116 128.495 55.633C128.738 55.5478 129.003 55.384 129.291 55.1415L129.675 55.6821C129.445 55.9049 129.154 56.0917 128.8 56.2424C128.446 56.3866 128.073 56.4586 127.679 56.4586ZM127.591 51.8191C127.119 51.8191 126.729 51.9469 126.421 52.2025C126.113 52.4515 125.92 52.8184 125.841 53.3034H129.134V53.2444C129.121 53.0085 129.052 52.7824 128.928 52.5662C128.803 52.3434 128.626 52.1631 128.397 52.0255C128.174 51.8879 127.905 51.8191 127.591 51.8191ZM133.041 56.4586C132.569 56.4586 132.147 56.344 131.773 56.1146C131.406 55.8853 131.115 55.5707 130.898 55.171C130.689 54.7647 130.584 54.3027 130.584 53.785C130.584 53.2739 130.692 52.8184 130.908 52.4187C131.124 52.0124 131.416 51.6946 131.783 51.4653C132.15 51.2293 132.563 51.1114 133.021 51.1114C133.415 51.1114 133.775 51.2031 134.103 51.3866C134.437 51.5635 134.696 51.7831 134.879 52.0452V49.0865H135.626V56.3604H134.889L134.869 55.4954C134.706 55.764 134.457 55.9934 134.122 56.1834C133.788 56.3669 133.428 56.4586 133.041 56.4586ZM133.139 55.7706C133.48 55.7706 133.785 55.6854 134.054 55.515C134.322 55.3446 134.532 55.112 134.683 54.8171C134.84 54.5157 134.919 54.1716 134.919 53.785C134.919 53.3984 134.84 53.0576 134.683 52.7627C134.532 52.4613 134.322 52.2254 134.054 52.055C133.785 51.8846 133.48 51.7995 133.139 51.7995C132.792 51.7995 132.484 51.8846 132.215 52.055C131.947 52.2254 131.737 52.4613 131.586 52.7627C131.436 53.0576 131.36 53.3984 131.36 53.785C131.36 54.1651 131.436 54.5058 131.586 54.8073C131.737 55.1087 131.947 55.3446 132.215 55.515C132.484 55.6854 132.792 55.7706 133.139 55.7706ZM140.112 56.3604V49.4797H144.28V50.2366H140.888V52.4384H143.729V53.1952H140.888V55.6035H144.26V56.3604H140.112ZM147.757 56.4586C147.285 56.4586 146.862 56.344 146.489 56.1146C146.122 55.8853 145.83 55.5707 145.614 55.171C145.404 54.7647 145.299 54.3027 145.299 53.785C145.299 53.2739 145.407 52.8184 145.624 52.4187C145.84 52.0124 146.131 51.6946 146.498 51.4653C146.865 51.2293 147.278 51.1114 147.737 51.1114C148.13 51.1114 148.491 51.2031 148.818 51.3866C149.152 51.5635 149.411 51.7831 149.595 52.0452V49.0865H150.342V56.3604H149.605L149.585 55.4954C149.421 55.764 149.172 55.9934 148.838 56.1834C148.504 56.3669 148.143 56.4586 147.757 56.4586ZM147.855 55.7706C148.196 55.7706 148.5 55.6854 148.769 55.515C149.038 55.3446 149.247 55.112 149.398 54.8171C149.555 54.5157 149.634 54.1716 149.634 53.785C149.634 53.3984 149.555 53.0576 149.398 52.7627C149.247 52.4613 149.038 52.2254 148.769 52.055C148.5 51.8846 148.196 51.7995 147.855 51.7995C147.508 51.7995 147.2 51.8846 146.931 52.055C146.662 52.2254 146.453 52.4613 146.302 52.7627C146.151 53.0576 146.076 53.3984 146.076 53.785C146.076 54.1651 146.151 54.5058 146.302 54.8073C146.453 55.1087 146.662 55.3446 146.931 55.515C147.2 55.6854 147.508 55.7706 147.855 55.7706ZM153.75 56.4586C153.16 56.4586 152.708 56.2817 152.393 55.9279C152.079 55.5674 151.921 55.0465 151.921 54.365V51.2195H152.678V54.2175C152.678 55.2594 153.107 55.7804 153.966 55.7804C154.248 55.7804 154.503 55.7182 154.733 55.5936C154.962 55.4626 155.142 55.2889 155.273 55.0727C155.411 54.8499 155.48 54.6041 155.48 54.3355V51.2195H156.227V56.3604H155.489L155.46 55.4757C155.303 55.7575 155.067 55.9934 154.752 56.1834C154.438 56.3669 154.103 56.4586 153.75 56.4586ZM159.824 56.4586C159.339 56.4586 158.907 56.344 158.527 56.1146C158.147 55.8787 157.845 55.5609 157.623 55.1612C157.406 54.7549 157.298 54.2962 157.298 53.785C157.298 53.2739 157.406 52.8184 157.623 52.4187C157.845 52.0124 158.147 51.6946 158.527 51.4653C158.913 51.2293 159.353 51.1114 159.844 51.1114C160.276 51.1114 160.673 51.1999 161.033 51.3768C161.394 51.5537 161.682 51.7962 161.898 52.1042L161.466 52.635C161.276 52.3925 161.037 52.1959 160.748 52.0452C160.46 51.8945 160.168 51.8191 159.873 51.8191C159.52 51.8191 159.205 51.9043 158.93 52.0747C158.655 52.2451 158.438 52.4777 158.281 52.7726C158.124 53.0675 158.045 53.4049 158.045 53.785C158.045 54.1585 158.124 54.496 158.281 54.7975C158.445 55.0923 158.664 55.325 158.94 55.4954C159.215 55.6657 159.523 55.7509 159.864 55.7509C160.467 55.7509 160.994 55.4822 161.446 54.9449L161.889 55.4855C161.659 55.7804 161.358 56.0163 160.984 56.1932C160.617 56.3702 160.231 56.4586 159.824 56.4586ZM164.851 56.4586C164.405 56.4586 164.002 56.344 163.642 56.1146C163.281 55.8787 162.996 55.5609 162.786 55.1612C162.577 54.7549 162.472 54.2962 162.472 53.785C162.472 53.2673 162.58 52.8086 162.796 52.4089C163.012 52.0026 163.304 51.6848 163.671 51.4554C164.038 51.2261 164.448 51.1114 164.9 51.1114C165.313 51.1114 165.68 51.2064 166.001 51.3964C166.328 51.5865 166.577 51.8322 166.748 52.1337L166.767 51.2195H167.514V56.3604H166.758V55.4462C166.574 55.7345 166.312 55.977 165.971 56.1736C165.63 56.3636 165.257 56.4586 164.851 56.4586ZM165.018 55.7411C165.358 55.7411 165.663 55.6592 165.932 55.4954C166.201 55.325 166.41 55.0923 166.561 54.7975C166.718 54.5026 166.797 54.1618 166.797 53.7752C166.797 53.4017 166.718 53.0675 166.561 52.7726C166.41 52.4777 166.201 52.2483 165.932 52.0845C165.663 51.9141 165.358 51.8289 165.018 51.8289C164.67 51.8289 164.362 51.9141 164.094 52.0845C163.832 52.2483 163.625 52.4777 163.474 52.7726C163.324 53.0675 163.248 53.4017 163.248 53.7752C163.248 54.1553 163.324 54.496 163.474 54.7975C163.625 55.0923 163.832 55.325 164.094 55.4954C164.362 55.6592 164.67 55.7411 165.018 55.7411ZM169.649 56.3604V51.9371H168.499V51.2195H169.649V49.8827H170.396V51.2195H171.683V51.9371H170.396V56.3604H169.649ZM173.07 50.1186C172.886 50.1186 172.746 50.0727 172.647 49.981C172.549 49.8827 172.5 49.7484 172.5 49.578C172.5 49.4142 172.549 49.2831 172.647 49.1848C172.746 49.0865 172.886 49.0374 173.07 49.0374C173.247 49.0374 173.384 49.0865 173.483 49.1848C173.581 49.2765 173.63 49.4076 173.63 49.578C173.63 49.7418 173.581 49.8729 173.483 49.9712C173.384 50.0695 173.247 50.1186 173.07 50.1186ZM172.696 56.3604V51.2195H173.453V56.3604H172.696ZM177.221 56.4586C176.716 56.4586 176.264 56.344 175.864 56.1146C175.471 55.8787 175.16 55.5609 174.93 55.1612C174.701 54.7549 174.586 54.2929 174.586 53.7752C174.586 53.2641 174.701 52.8086 174.93 52.4089C175.16 52.0026 175.471 51.6848 175.864 51.4554C176.264 51.2261 176.716 51.1114 177.221 51.1114C177.725 51.1114 178.174 51.2261 178.567 51.4554C178.967 51.6848 179.278 52.0026 179.501 52.4089C179.73 52.8086 179.845 53.2641 179.845 53.7752C179.845 54.2929 179.73 54.7549 179.501 55.1612C179.278 55.5609 178.967 55.8787 178.567 56.1146C178.174 56.344 177.725 56.4586 177.221 56.4586ZM177.221 55.7509C177.581 55.7509 177.899 55.6657 178.174 55.4954C178.456 55.325 178.675 55.0923 178.833 54.7975C178.99 54.496 179.068 54.1553 179.068 53.7752C179.068 53.3951 178.99 53.0609 178.833 52.7726C178.675 52.4777 178.456 52.2451 178.174 52.0747C177.899 51.9043 177.581 51.8191 177.221 51.8191C176.86 51.8191 176.539 51.9043 176.257 52.0747C175.975 52.2451 175.756 52.4777 175.599 52.7726C175.441 53.0675 175.363 53.4017 175.363 53.7752C175.363 54.1553 175.441 54.496 175.599 54.7975C175.756 55.0923 175.975 55.325 176.257 55.4954C176.539 55.6657 176.86 55.7509 177.221 55.7509ZM180.921 56.3604V51.2195H181.658L181.677 52.0943C181.835 51.8191 182.077 51.5865 182.405 51.3964C182.739 51.2064 183.09 51.1114 183.457 51.1114C184.027 51.1114 184.456 51.2883 184.744 51.6422C185.039 51.9895 185.187 52.5203 185.187 53.2346V56.3604H184.43V53.2837C184.43 52.2811 184.027 51.7896 183.221 51.8093C182.919 51.8093 182.651 51.8748 182.415 52.0059C182.185 52.1369 182.002 52.3106 181.864 52.5268C181.733 52.7431 181.668 52.979 181.668 53.2346V56.3604H180.921ZM188.599 56.4586C188.153 56.4586 187.75 56.344 187.39 56.1146C187.029 55.8787 186.744 55.5609 186.535 55.1612C186.325 54.7549 186.22 54.2962 186.22 53.785C186.22 53.2673 186.328 52.8086 186.544 52.4089C186.761 52.0026 187.052 51.6848 187.419 51.4554C187.786 51.2261 188.196 51.1114 188.648 51.1114C189.061 51.1114 189.428 51.2064 189.749 51.3964C190.077 51.5865 190.326 51.8322 190.496 52.1337L190.516 51.2195H191.263V56.3604H190.506V55.4462C190.322 55.7345 190.06 55.977 189.719 56.1736C189.379 56.3636 189.005 56.4586 188.599 56.4586ZM188.766 55.7411C189.107 55.7411 189.411 55.6592 189.68 55.4954C189.949 55.325 190.158 55.0923 190.309 54.7975C190.466 54.5026 190.545 54.1618 190.545 53.7752C190.545 53.4017 190.466 53.0675 190.309 52.7726C190.158 52.4777 189.949 52.2483 189.68 52.0845C189.411 51.9141 189.107 51.8289 188.766 51.8289C188.419 51.8289 188.111 51.9141 187.842 52.0845C187.58 52.2483 187.373 52.4777 187.223 52.7726C187.072 53.0675 186.997 53.4017 186.997 53.7752C186.997 54.1553 187.072 54.496 187.223 54.7975C187.373 55.0923 187.58 55.325 187.842 55.4954C188.111 55.6592 188.419 55.7411 188.766 55.7411ZM192.709 56.3604V49.0865H193.456V56.3604H192.709ZM197.956 56.3604V49.4797H200.679C201.04 49.4797 201.364 49.5714 201.652 49.7549C201.941 49.9318 202.17 50.1743 202.34 50.4823C202.511 50.7903 202.596 51.1376 202.596 51.5242C202.596 51.9305 202.511 52.2942 202.34 52.6153C202.17 52.9364 201.941 53.1887 201.652 53.3722C201.364 53.5557 201.04 53.6474 200.679 53.6474H198.733V56.3604H197.956ZM198.733 52.8905H200.718C200.922 52.8905 201.102 52.8316 201.259 52.7136C201.423 52.5956 201.554 52.4318 201.652 52.2221C201.751 52.0124 201.8 51.7765 201.8 51.5144C201.8 51.154 201.695 50.8525 201.485 50.6101C201.275 50.3611 201.02 50.2366 200.718 50.2366H198.733V52.8905ZM203.805 56.3604V49.0865H204.552V56.3604H203.805ZM207.912 56.4586C207.467 56.4586 207.064 56.344 206.703 56.1146C206.343 55.8787 206.058 55.5609 205.848 55.1612C205.638 54.7549 205.534 54.2962 205.534 53.785C205.534 53.2673 205.642 52.8086 205.858 52.4089C206.074 52.0026 206.366 51.6848 206.733 51.4554C207.1 51.2261 207.509 51.1114 207.961 51.1114C208.374 51.1114 208.741 51.2064 209.062 51.3964C209.39 51.5865 209.639 51.8322 209.809 52.1337L209.829 51.2195H210.576V56.3604H209.819V55.4462C209.636 55.7345 209.374 55.977 209.033 56.1736C208.692 56.3636 208.319 56.4586 207.912 56.4586ZM208.079 55.7411C208.42 55.7411 208.725 55.6592 208.994 55.4954C209.262 55.325 209.472 55.0923 209.623 54.7975C209.78 54.5026 209.859 54.1618 209.859 53.7752C209.859 53.4017 209.78 53.0675 209.623 52.7726C209.472 52.4777 209.262 52.2483 208.994 52.0845C208.725 51.9141 208.42 51.8289 208.079 51.8289C207.732 51.8289 207.424 51.9141 207.155 52.0845C206.893 52.2483 206.687 52.4777 206.536 52.7726C206.385 53.0675 206.31 53.4017 206.31 53.7752C206.31 54.1553 206.385 54.496 206.536 54.7975C206.687 55.0923 206.893 55.325 207.155 55.4954C207.424 55.6592 207.732 55.7411 208.079 55.7411ZM212.71 56.3604V51.9371H211.56V51.2195H212.71V49.8827H213.457V51.2195H214.745V51.9371H213.457V56.3604H212.71ZM216 56.3604V51.9567H215.086V51.2687H216V50.4332C216 50.0531 216.125 49.7385 216.374 49.4895C216.623 49.2405 216.954 49.116 217.366 49.116C217.576 49.116 217.766 49.1553 217.936 49.2339C218.107 49.306 218.248 49.4076 218.359 49.5387L218.094 50.1186C217.989 50.0138 217.877 49.9384 217.76 49.8925C217.642 49.8401 217.527 49.8139 217.415 49.8139C216.976 49.8139 216.757 50.0236 216.757 50.443V51.2687H218.064V51.9567H216.757V56.3604H216ZM221.213 56.4586C220.709 56.4586 220.257 56.344 219.857 56.1146C219.464 55.8787 219.152 55.5609 218.923 55.1612C218.694 54.7549 218.579 54.2929 218.579 53.7752C218.579 53.2641 218.694 52.8086 218.923 52.4089C219.152 52.0026 219.464 51.6848 219.857 51.4554C220.257 51.2261 220.709 51.1114 221.213 51.1114C221.718 51.1114 222.167 51.2261 222.56 51.4554C222.96 51.6848 223.271 52.0026 223.494 52.4089C223.723 52.8086 223.838 53.2641 223.838 53.7752C223.838 54.2929 223.723 54.7549 223.494 55.1612C223.271 55.5609 222.96 55.8787 222.56 56.1146C222.167 56.344 221.718 56.4586 221.213 56.4586ZM221.213 55.7509C221.574 55.7509 221.892 55.6657 222.167 55.4954C222.449 55.325 222.668 55.0923 222.825 54.7975C222.983 54.496 223.061 54.1553 223.061 53.7752C223.061 53.3951 222.983 53.0609 222.825 52.7726C222.668 52.4777 222.449 52.2451 222.167 52.0747C221.892 51.9043 221.574 51.8191 221.213 51.8191C220.853 51.8191 220.532 51.9043 220.25 52.0747C219.968 52.2451 219.749 52.4777 219.591 52.7726C219.434 53.0675 219.356 53.4017 219.356 53.7752C219.356 54.1553 219.434 54.496 219.591 54.7975C219.749 55.0923 219.968 55.325 220.25 55.4954C220.532 55.6657 220.853 55.7509 221.213 55.7509ZM224.913 56.3604V51.2195H225.66L225.67 52.2123C225.808 51.9043 226.018 51.6455 226.299 51.4358C226.581 51.2195 226.902 51.1114 227.263 51.1114C227.374 51.1114 227.479 51.1212 227.577 51.1409C227.676 51.1605 227.757 51.1802 227.823 51.1999L227.617 52.0354C227.446 51.9633 227.276 51.9272 227.105 51.9272C226.811 51.9272 226.555 51.9993 226.339 52.1435C226.122 52.2811 225.955 52.4646 225.837 52.6939C225.726 52.9233 225.67 53.1756 225.67 53.4508V56.3604H224.913ZM228.58 56.3604V51.2195H229.327L229.337 52.1042C229.507 51.8093 229.75 51.5734 230.064 51.3964C230.379 51.213 230.72 51.1212 231.087 51.1212C231.454 51.1212 231.765 51.2064 232.02 51.3768C232.283 51.5472 232.479 51.8388 232.61 52.2516C232.708 52.0485 232.853 51.8617 233.043 51.6913C233.233 51.521 233.449 51.3833 233.691 51.2785C233.94 51.1736 234.203 51.1212 234.478 51.1212C235.022 51.1212 235.435 51.2981 235.716 51.652C236.005 51.9993 236.149 52.5367 236.149 53.2641V56.3604H235.392V53.3034C235.392 52.7988 235.297 52.4285 235.107 52.1926C234.917 51.9502 234.632 51.8289 234.252 51.8289C233.957 51.8289 233.695 51.8945 233.465 52.0255C233.236 52.1566 233.056 52.3302 232.925 52.5465C232.8 52.7627 232.738 52.9987 232.738 53.2542V56.3604H231.981V53.2935C231.981 52.3171 231.601 51.8289 230.841 51.8289C230.553 51.8289 230.294 51.8945 230.064 52.0255C229.835 52.15 229.655 52.3204 229.524 52.5367C229.399 52.7529 229.337 52.9888 229.337 53.2444V56.3604H228.58Z" fill="white"/>
<defs>
<filter id="filter0_d_390_651" x="10.2537" y="14.9192" width="64.1469" height="41.5054" filterUnits="userSpaceOnUse" color-interpolation-filters="sRGB">
<feFlood flood-opacity="0" result="BackgroundImageFix"/>
<feColorMatrix in="SourceAlpha" type="matrix" values="0 0 0 0 0 0 0 0 0 0 0 0 0 0 0 0 0 0 127 0" result="hardAlpha"/>
<feOffset dx="8.19127" dy="2.45738"/>
<feGaussianBlur stdDeviation="2.45738"/>
<feColorMatrix type="matrix" values="0 0 0 0 0 0 0 0 0 0 0 0 0 0 0 0 0 0 0.161 0"/>
<feBlend mode="normal" in2="BackgroundImageFix" result="effect1_dropShadow_390_651"/>
<feBlend mode="normal" in="SourceGraphic" in2="effect1_dropShadow_390_651" result="shape"/>
</filter>
<filter id="filter1_d_390_651" x="5.3389" y="14.9192" width="60.8704" height="41.5054" filterUnits="userSpaceOnUse" color-interpolation-filters="sRGB">
<feFlood flood-opacity="0" result="BackgroundImageFix"/>
<feColorMatrix in="SourceAlpha" type="matrix" values="0 0 0 0 0 0 0 0 0 0 0 0 0 0 0 0 0 0 127 0" result="hardAlpha"/>
<feOffset dy="2.45738"/>
<feGaussianBlur stdDeviation="2.45738"/>
<feColorMatrix type="matrix" values="0 0 0 0 0 0 0 0 0 0 0 0 0 0 0 0 0 0 0.161 0"/>
<feBlend mode="normal" in2="BackgroundImageFix" result="effect1_dropShadow_390_651"/>
<feBlend mode="normal" in="SourceGraphic" in2="effect1_dropShadow_390_651" result="shape"/>
</filter>
<filter id="filter2_d_390_651" x="24.4188" y="18.1979" width="13.106" height="16.0629" filterUnits="userSpaceOnUse" color-interpolation-filters="sRGB">
<feFlood flood-opacity="0" result="BackgroundImageFix"/>
<feColorMatrix in="SourceAlpha" type="matrix" values="0 0 0 0 0 0 0 0 0 0 0 0 0 0 0 0 0 0 127 0" result="hardAlpha"/>
<feOffset dx="4.09563" dy="2.45738"/>
<feGaussianBlur stdDeviation="2.45738"/>
<feColorMatrix type="matrix" values="0 0 0 0 0 0 0 0 0 0 0 0 0 0 0 0 0 0 0.161 0"/>
<feBlend mode="normal" in2="BackgroundImageFix" result="effect1_dropShadow_390_651"/>
<feBlend mode="normal" in="SourceGraphic" in2="effect1_dropShadow_390_651" result="shape"/>
</filter>
<filter id="filter3_d_390_651" x="24.0505" y="15.5011" width="25.6709" height="14.6423" filterUnits="userSpaceOnUse" color-interpolation-filters="sRGB">
<feFlood flood-opacity="0" result="BackgroundImageFix"/>
<feColorMatrix in="SourceAlpha" type="matrix" values="0 0 0 0 0 0 0 0 0 0 0 0 0 0 0 0 0 0 127 0" result="hardAlpha"/>
<feOffset dx="4.09563" dy="2.45738"/>
<feGaussianBlur stdDeviation="2.45738"/>
<feColorMatrix type="matrix" values="0 0 0 0 0 0 0 0 0 0 0 0 0 0 0 0 0 0 0.161 0"/>
<feBlend mode="normal" in2="BackgroundImageFix" result="effect1_dropShadow_390_651"/>
<feBlend mode="normal" in="SourceGraphic" in2="effect1_dropShadow_390_651" result="shape"/>
</filter>
<filter id="filter4_d_390_651" x="19.9549" y="15.5011" width="25.6709" height="14.6423" filterUnits="userSpaceOnUse" color-interpolation-filters="sRGB">
<feFlood flood-opacity="0" result="BackgroundImageFix"/>
<feColorMatrix in="SourceAlpha" type="matrix" values="0 0 0 0 0 0 0 0 0 0 0 0 0 0 0 0 0 0 127 0" result="hardAlpha"/>
<feOffset dy="2.45738"/>
<feGaussianBlur stdDeviation="2.45738"/>
<feColorMatrix type="matrix" values="0 0 0 0 0 0 0 0 0 0 0 0 0 0 0 0 0 0 0.161 0"/>
<feBlend mode="normal" in2="BackgroundImageFix" result="effect1_dropShadow_390_651"/>
<feBlend mode="normal" in="SourceGraphic" in2="effect1_dropShadow_390_651" result="shape"/>
</filter>
<filter id="filter5_d_390_651" x="27.9697" y="17.1402" width="20.1271" height="20.0191" filterUnits="userSpaceOnUse" color-interpolation-filters="sRGB">
<feFlood flood-opacity="0" result="BackgroundImageFix"/>
<feColorMatrix in="SourceAlpha" type="matrix" values="0 0 0 0 0 0 0 0 0 0 0 0 0 0 0 0 0 0 127 0" result="hardAlpha"/>
<feOffset dx="4.09563" dy="2.45738"/>
<feGaussianBlur stdDeviation="2.45738"/>
<feColorMatrix type="matrix" values="0 0 0 0 0 0 0 0 0 0 0 0 0 0 0 0 0 0 0.161 0"/>
<feBlend mode="normal" in2="BackgroundImageFix" result="effect1_dropShadow_390_651"/>
<feBlend mode="normal" in="SourceGraphic" in2="effect1_dropShadow_390_651" result="shape"/>
</filter>
<filter id="filter6_d_390_651" x="23.8741" y="17.1402" width="20.1271" height="20.0191" filterUnits="userSpaceOnUse" color-interpolation-filters="sRGB">
<feFlood flood-opacity="0" result="BackgroundImageFix"/>
<feColorMatrix in="SourceAlpha" type="matrix" values="0 0 0 0 0 0 0 0 0 0 0 0 0 0 0 0 0 0 127 0" result="hardAlpha"/>
<feOffset dy="2.45738"/>
<feGaussianBlur stdDeviation="2.45738"/>
<feColorMatrix type="matrix" values="0 0 0 0 0 0 0 0 0 0 0 0 0 0 0 0 0 0 0.161 0"/>
<feBlend mode="normal" in2="BackgroundImageFix" result="effect1_dropShadow_390_651"/>
<feBlend mode="normal" in="SourceGraphic" in2="effect1_dropShadow_390_651" result="shape"/>
</filter>
<filter id="filter7_d_390_651" x="38.3363" y="43.1577" width="48.0591" height="15.735" filterUnits="userSpaceOnUse" color-interpolation-filters="sRGB">
<feFlood flood-opacity="0" result="BackgroundImageFix"/>
<feColorMatrix in="SourceAlpha" type="matrix" values="0 0 0 0 0 0 0 0 0 0 0 0 0 0 0 0 0 0 127 0" result="hardAlpha"/>
<feOffset dx="16.3825" dy="2.45738"/>
<feGaussianBlur stdDeviation="2.45738"/>
<feColorMatrix type="matrix" values="0 0 0 0 0 0 0 0 0 0 0 0 0 0 0 0 0 0 0.161 0"/>
<feBlend mode="normal" in2="BackgroundImageFix" result="effect1_dropShadow_390_651"/>
<feBlend mode="normal" in="SourceGraphic" in2="effect1_dropShadow_390_651" result="shape"/>
</filter>
<filter id="filter8_d_390_651" x="32.9485" y="40.6565" width="36.5334" height="17.3845" filterUnits="userSpaceOnUse" color-interpolation-filters="sRGB">
<feFlood flood-opacity="0" result="BackgroundImageFix"/>
<feColorMatrix in="SourceAlpha" type="matrix" values="0 0 0 0 0 0 0 0 0 0 0 0 0 0 0 0 0 0 127 0" result="hardAlpha"/>
<feOffset dy="2.45738"/>
<feGaussianBlur stdDeviation="2.45738"/>
<feColorMatrix type="matrix" values="0 0 0 0 0 0 0 0 0 0 0 0 0 0 0 0 0 0 0.161 0"/>
<feBlend mode="normal" in2="BackgroundImageFix" result="effect1_dropShadow_390_651"/>
<feBlend mode="normal" in="SourceGraphic" in2="effect1_dropShadow_390_651" result="shape"/>
</filter>
<filter id="filter9_d_390_651" x="32.9485" y="40.6565" width="36.5334" height="17.3845" filterUnits="userSpaceOnUse" color-interpolation-filters="sRGB">
<feFlood flood-opacity="0" result="BackgroundImageFix"/>
<feColorMatrix in="SourceAlpha" type="matrix" values="0 0 0 0 0 0 0 0 0 0 0 0 0 0 0 0 0 0 127 0" result="hardAlpha"/>
<feOffset dy="2.45738"/>
<feGaussianBlur stdDeviation="2.45738"/>
<feColorMatrix type="matrix" values="0 0 0 0 0 0 0 0 0 0 0 0 0 0 0 0 0 0 0.161 0"/>
<feBlend mode="normal" in2="BackgroundImageFix" result="effect1_dropShadow_390_651"/>
<feBlend mode="normal" in="SourceGraphic" in2="effect1_dropShadow_390_651" result="shape"/>
</filter>
<filter id="filter10_d_390_651" x="32.3637" y="37.6972" width="34.9589" height="19.5727" filterUnits="userSpaceOnUse" color-interpolation-filters="sRGB">
<feFlood flood-opacity="0" result="BackgroundImageFix"/>
<feColorMatrix in="SourceAlpha" type="matrix" values="0 0 0 0 0 0 0 0 0 0 0 0 0 0 0 0 0 0 127 0" result="hardAlpha"/>
<feOffset dy="2.45738"/>
<feGaussianBlur stdDeviation="2.45738"/>
<feColorMatrix type="matrix" values="0 0 0 0 0 0 0 0 0 0 0 0 0 0 0 0 0 0 0.161 0"/>
<feBlend mode="normal" in2="BackgroundImageFix" result="effect1_dropShadow_390_651"/>
<feBlend mode="normal" in="SourceGraphic" in2="effect1_dropShadow_390_651" result="shape"/>
</filter>
<filter id="filter11_d_390_651" x="32.3637" y="37.6972" width="34.9589" height="19.5727" filterUnits="userSpaceOnUse" color-interpolation-filters="sRGB">
<feFlood flood-opacity="0" result="BackgroundImageFix"/>
<feColorMatrix in="SourceAlpha" type="matrix" values="0 0 0 0 0 0 0 0 0 0 0 0 0 0 0 0 0 0 127 0" result="hardAlpha"/>
<feOffset dy="2.45738"/>
<feGaussianBlur stdDeviation="2.45738"/>
<feColorMatrix type="matrix" values="0 0 0 0 0 0 0 0 0 0 0 0 0 0 0 0 0 0 0.161 0"/>
<feBlend mode="normal" in2="BackgroundImageFix" result="effect1_dropShadow_390_651"/>
<feBlend mode="normal" in="SourceGraphic" in2="effect1_dropShadow_390_651" result="shape"/>
</filter>
<filter id="filter12_d_390_651" x="8.46417" y="43.1577" width="48.0589" height="15.735" filterUnits="userSpaceOnUse" color-interpolation-filters="sRGB">
<feFlood flood-opacity="0" result="BackgroundImageFix"/>
<feColorMatrix in="SourceAlpha" type="matrix" values="0 0 0 0 0 0 0 0 0 0 0 0 0 0 0 0 0 0 127 0" result="hardAlpha"/>
<feOffset dx="16.3825" dy="2.45738"/>
<feGaussianBlur stdDeviation="2.45738"/>
<feColorMatrix type="matrix" values="0 0 0 0 0 0 0 0 0 0 0 0 0 0 0 0 0 0 0.161 0"/>
<feBlend mode="normal" in2="BackgroundImageFix" result="effect1_dropShadow_390_651"/>
<feBlend mode="normal" in="SourceGraphic" in2="effect1_dropShadow_390_651" result="shape"/>
</filter>
<filter id="filter13_d_390_651" x="8.99536" y="40.655" width="39.8099" height="17.3854" filterUnits="userSpaceOnUse" color-interpolation-filters="sRGB">
<feFlood flood-opacity="0" result="BackgroundImageFix"/>
<feColorMatrix in="SourceAlpha" type="matrix" values="0 0 0 0 0 0 0 0 0 0 0 0 0 0 0 0 0 0 127 0" result="hardAlpha"/>
<feOffset dx="8.19127" dy="2.45738"/>
<feGaussianBlur stdDeviation="2.45738"/>
<feColorMatrix type="matrix" values="0 0 0 0 0 0 0 0 0 0 0 0 0 0 0 0 0 0 0.161 0"/>
<feBlend mode="normal" in2="BackgroundImageFix" result="effect1_dropShadow_390_651"/>
<feBlend mode="normal" in="SourceGraphic" in2="effect1_dropShadow_390_651" result="shape"/>
</filter>
<filter id="filter14_d_390_651" x="4.0806" y="40.655" width="36.5334" height="17.3854" filterUnits="userSpaceOnUse" color-interpolation-filters="sRGB">
<feFlood flood-opacity="0" result="BackgroundImageFix"/>
<feColorMatrix in="SourceAlpha" type="matrix" values="0 0 0 0 0 0 0 0 0 0 0 0 0 0 0 0 0 0 127 0" result="hardAlpha"/>
<feOffset dy="2.45738"/>
<feGaussianBlur stdDeviation="2.45738"/>
<feColorMatrix type="matrix" values="0 0 0 0 0 0 0 0 0 0 0 0 0 0 0 0 0 0 0.161 0"/>
<feBlend mode="normal" in2="BackgroundImageFix" result="effect1_dropShadow_390_651"/>
<feBlend mode="normal" in="SourceGraphic" in2="effect1_dropShadow_390_651" result="shape"/>
</filter>
<filter id="filter15_d_390_651" x="11.1544" y="37.6972" width="38.2354" height="19.5727" filterUnits="userSpaceOnUse" color-interpolation-filters="sRGB">
<feFlood flood-opacity="0" result="BackgroundImageFix"/>
<feColorMatrix in="SourceAlpha" type="matrix" values="0 0 0 0 0 0 0 0 0 0 0 0 0 0 0 0 0 0 127 0" result="hardAlpha"/>
<feOffset dx="8.19127" dy="2.45738"/>
<feGaussianBlur stdDeviation="2.45738"/>
<feColorMatrix type="matrix" values="0 0 0 0 0 0 0 0 0 0 0 0 0 0 0 0 0 0 0.161 0"/>
<feBlend mode="normal" in2="BackgroundImageFix" result="effect1_dropShadow_390_651"/>
<feBlend mode="normal" in="SourceGraphic" in2="effect1_dropShadow_390_651" result="shape"/>
</filter>
<filter id="filter16_d_390_651" x="6.2396" y="37.6972" width="34.9589" height="19.5727" filterUnits="userSpaceOnUse" color-interpolation-filters="sRGB">
<feFlood flood-opacity="0" result="BackgroundImageFix"/>
<feColorMatrix in="SourceAlpha" type="matrix" values="0 0 0 0 0 0 0 0 0 0 0 0 0 0 0 0 0 0 127 0" result="hardAlpha"/>
<feOffset dy="2.45738"/>
<feGaussianBlur stdDeviation="2.45738"/>
<feColorMatrix type="matrix" values="0 0 0 0 0 0 0 0 0 0 0 0 0 0 0 0 0 0 0.161 0"/>
<feBlend mode="normal" in2="BackgroundImageFix" result="effect1_dropShadow_390_651"/>
<feBlend mode="normal" in="SourceGraphic" in2="effect1_dropShadow_390_651" result="shape"/>
</filter>
<filter id="filter17_d_390_651" x="27.1841" y="57.7687" width="20.1271" height="13.1247" filterUnits="userSpaceOnUse" color-interpolation-filters="sRGB">
<feFlood flood-opacity="0" result="BackgroundImageFix"/>
<feColorMatrix in="SourceAlpha" type="matrix" values="0 0 0 0 0 0 0 0 0 0 0 0 0 0 0 0 0 0 127 0" result="hardAlpha"/>
<feOffset dy="2.45738"/>
<feGaussianBlur stdDeviation="2.45738"/>
<feColorMatrix type="matrix" values="0 0 0 0 0 0 0 0 0 0 0 0 0 0 0 0 0 0 0.161 0"/>
<feBlend mode="normal" in2="BackgroundImageFix" result="effect1_dropShadow_390_651"/>
<feBlend mode="normal" in="SourceGraphic" in2="effect1_dropShadow_390_651" result="shape"/>
</filter>
<filter id="filter18_d_390_651" x="27.1841" y="57.7687" width="20.1271" height="13.1247" filterUnits="userSpaceOnUse" color-interpolation-filters="sRGB">
<feFlood flood-opacity="0" result="BackgroundImageFix"/>
<feColorMatrix in="SourceAlpha" type="matrix" values="0 0 0 0 0 0 0 0 0 0 0 0 0 0 0 0 0 0 127 0" result="hardAlpha"/>
<feOffset dy="2.45738"/>
<feGaussianBlur stdDeviation="2.45738"/>
<feColorMatrix type="matrix" values="0 0 0 0 0 0 0 0 0 0 0 0 0 0 0 0 0 0 0.161 0"/>
<feBlend mode="normal" in2="BackgroundImageFix" result="effect1_dropShadow_390_651"/>
<feBlend mode="normal" in="SourceGraphic" in2="effect1_dropShadow_390_651" result="shape"/>
</filter>
<filter id="filter19_d_390_651" x="21.8285" y="51.3843" width="30.4247" height="13.1248" filterUnits="userSpaceOnUse" color-interpolation-filters="sRGB">
<feFlood flood-opacity="0" result="BackgroundImageFix"/>
<feColorMatrix in="SourceAlpha" type="matrix" values="0 0 0 0 0 0 0 0 0 0 0 0 0 0 0 0 0 0 127 0" result="hardAlpha"/>
<feOffset dy="2.45738"/>
<feGaussianBlur stdDeviation="2.45738"/>
<feColorMatrix type="matrix" values="0 0 0 0 0 0 0 0 0 0 0 0 0 0 0 0 0 0 0.161 0"/>
<feBlend mode="normal" in2="BackgroundImageFix" result="effect1_dropShadow_390_651"/>
<feBlend mode="normal" in="SourceGraphic" in2="effect1_dropShadow_390_651" result="shape"/>
</filter>
<filter id="filter20_d_390_651" x="21.8285" y="51.3843" width="30.4247" height="13.1248" filterUnits="userSpaceOnUse" color-interpolation-filters="sRGB">
<feFlood flood-opacity="0" result="BackgroundImageFix"/>
<feColorMatrix in="SourceAlpha" type="matrix" values="0 0 0 0 0 0 0 0 0 0 0 0 0 0 0 0 0 0 127 0" result="hardAlpha"/>
<feOffset dy="2.45738"/>
<feGaussianBlur stdDeviation="2.45738"/>
<feColorMatrix type="matrix" values="0 0 0 0 0 0 0 0 0 0 0 0 0 0 0 0 0 0 0.161 0"/>
<feBlend mode="normal" in2="BackgroundImageFix" result="effect1_dropShadow_390_651"/>
<feBlend mode="normal" in="SourceGraphic" in2="effect1_dropShadow_390_651" result="shape"/>
</filter>
</defs>
</svg>
